<svg version="1" xmlns="http://www.w3.org/2000/svg" width="1222.667" height="1222.667" viewBox="0 0 917.000000 917.000000"><path d="M374.6 2c-10.2 5.1-12.5 10.2-12.6 26.7v12.2l-5.7.6c-27.8 2.8-48.6 15.3-59.7 35.6-7 12.9-6.6 1.8-6.6 173.7v155l-10.1 6.7c-24 16-44.5 36.7-60.3 60.8-7.4 11.4-20.6 41.7-20.6 47.4 0 1.8-.4 1.7-6.3-2.1-10.6-6.8-35.7-22.6-50.7-32-12.7-7.9-10.7-7.7-71.6-7.4l-53.9.3-4 2.4c-5.5 3.2-6.4 4-9.7 8.5-2.3 3.2-2.8 4.9-2.8 9.5 0 5.2.5 6.5 6.1 15.6 3.4 5.5 9.2 14.9 12.9 21 3.7 6 12 19.5 18.5 30 6.5 10.4 15.2 24.6 19.4 31.5 4.3 6.9 19.7 31.8 34.3 55.5 47 76.2 68.7 111.4 85.4 138.6l16.4 26.6v19.4c.1 11.7.6 22.4 1.4 26.9 4.2 23.3 23.4 42.6 49.6 49.7 6.2 1.7 22.4 1.8 311.5 1.8 289.5 0 305.3-.1 311.5-1.8 23.4-6.4 42.7-24.5 48-45 1.8-6.9 1.8-13.5 1.6-168.2-.2-161-.2-161-2.4-170.2-8.9-38.3-26-68.6-53.3-94.8-10.3-9.9-16.4-14.8-29.6-23.6L821 406l-.2-156.3-.3-156.2-2.2-6.5c-4.5-13.3-12.2-23.2-24.7-32.1-10.4-7.4-22.1-11.3-39.7-13.4l-4.6-.6-.5-12.7c-.6-17.1-2.9-21.6-12.8-26.1-4.5-2-5.7-2.1-181-2C381.5.1 378.4.1 374.6 2zm-12.4 95.8c.3 13 .5 14.1 2.9 17.8 1.6 2.3 4.8 5.1 8 6.9l5.4 3 173.5.3c122.6.2 175-.1 178.8-.9 6.4-1.3 12.8-5.9 15.5-11.3 1.6-3.1 2.1-6.5 2.5-16.8l.5-13 4.1.6c5.3.9 11.5 4.6 14.6 8.8l2.5 3.3.3 144.2.2 144.2-4.7-1.4c-6.5-1.9-22.9-5.1-33.5-6.6l-8.8-1.2v-15.8c0-12.9-.4-16.8-2-22-5.2-16.7-16.8-29.8-34-38.4-13.2-6.7-19.3-7.6-53.6-8.2l-30.2-.5-.6-3.9c-.9-5.4-8.5-13.3-14.4-14.9-2.9-.7-14.6-1-36.5-.8l-32.2.3-4.1 2.7c-5.1 3.3-7.8 7-9.3 12.4l-1.1 4.2-30.3.5c-26.5.4-31.2.8-38.2 2.6-12.8 3.4-23.4 9.3-32.6 17.9-6.8 6.4-8.7 8.9-12.4 16.6-5.3 11.1-6.5 17.2-6.5 34.1v13l-15.7 2.7c-8.7 1.5-19.3 3.5-23.5 4.6l-7.8 1.9V242.6c0-136.7.1-142.3 1.9-146.2 3-6.6 11.3-12.1 18.8-12.3 2-.1 2.1.3 2.5 13.7zm-12.7 381.6c4.3 1.8 6.6 5.4 6.7 10.6 0 4.6-2.3 8-5.6 8-1.2 0-5 1.4-8.5 3-7.3 3.5-18.6 14.1-21.9 20.6-3.5 6.8-6.2 18.7-6.2 26.9 0 4.2-.5 8.5-1 9.6-3 5.5-14.8 6.5-19.7 1.7-2.4-2.5-2.5-3-2.4-14.2.2-9.3.7-13.1 2.6-19 6.6-20.3 23.1-37.5 44.2-46.2 6.8-2.8 7.3-2.8 11.8-1zm-41.8 105.1c6.3 2.6 6.2 2.5 6.3 30.3v25.4l-2.9 2.9c-2.6 2.5-3.7 2.9-8.5 2.9-4.7 0-6.1-.4-8.6-2.8l-3.1-2.7.1-25.5c.1-28.1.3-29.2 6.3-30.9 4.7-1.3 6.3-1.3 10.4.4zm1.3 84c1.6.8 3.4 2.4 4 3.4 1.6 3 1.2 9.4-.8 11.7-5.1 6.1-16.9 5.6-20.3-.9-1.7-3-1.2-9.7.9-12 3.4-3.9 11-4.9 16.2-2.2zm390 168c0 6.3-6.4 13.9-13.9 16.4-2.5.8-61.4 1.1-222.7 1.1H243v-20h456v2.5z"/><path d="M68.4 115.4c-.3.7.2 5.3 1 10.2 2 11.3 2 17 0 24.8-1.7 6.6-2.5 8-11.9 22.6-10.6 16.4-11.6 18.5-14 30.2-4.2 20.3-.1 38.4 11.7 52.2 2.3 2.7 9.4 9.1 15.9 14.2 12.4 9.8 15.1 12.8 17.4 19.5 2.8 7.9 2.8 8-10.7 14.4-16.3 7.6-21.8 11.4-26.4 18.2-3.7 5.2-3.9 6-3.8 12.7 0 5.6.6 8.2 2.6 12.1 4.4 8.6 13.9 15.9 25.3 19.5 10.6 3.4 14.5 5.2 14.5 6.8 0 2.8-3.5 7.7-9.7 13.3-14.4 13.3-18.5 18-21.5 24.7-3.7 8.1-5.7 18.8-5.8 30.3 0 9.3.3 10 7.3 15.3 6.4 4.9 15.8 3 21.1-4.3 1.9-2.5 2.4-4.8 2.9-12.8 1-15.5 2.6-19.4 11-27.2 19.3-17.7 25.4-26.8 26.4-39.6.6-7.3-.1-9.4-5.5-16.3-4.3-5.4-10.5-9-23-13.1-10.8-3.6-14.8-6-13.9-8.3.5-1.3 5.7-4.1 22.2-11.9 11.2-5.3 19.5-14.5 20.2-22.6.6-5.9-2.5-19.1-6.3-26.4-3.1-6.2-14.3-17.6-26.6-27.1-13.2-10.3-16.7-18.1-16.8-37.4 0-10.5.8-13.5 8.3-29.9 7.6-16.8 9.2-26.2 6.7-39.3-2.5-13.3-16.1-31.4-18.6-24.8z"/></svg>