<?xml version="1.0" encoding="UTF-8" standalone="no"?>
<!DOCTYPE svg PUBLIC "-//W3C//DTD SVG 1.1//EN"
 "http://www.w3.org/Graphics/SVG/1.1/DTD/svg11.dtd">
<!-- Generated by graphviz version 2.38.0 (20140413.2041)
 -->
<!-- Title: foo Pages: 1 -->
<svg width="380pt" height="254pt"
 viewBox="75.00 0.00 380.00 254.00" xmlns="http://www.w3.org/2000/svg" xmlns:xlink="http://www.w3.org/1999/xlink">
<g id="graph0" class="graph" transform="scale(1 1) rotate(0) translate(4 250)">
<title>foo</title>
<polygon fill="white" stroke="none" points="-4,4 -4,-250 448,-250 448,4 -4,4"/>
<g id="clust2" class="cluster"><title>cluster_0</title>
<polygon fill="gold" stroke="gold" points="83,-127 83,-238 436,-238 436,-127 83,-127"/>
<text text-anchor="middle" x="259.5" y="-222.8" font-family="Times,serif" font-size="14.00">Kompilacja</text>
</g>
<g id="clust3" class="cluster"><title>cluster_1</title>
<polygon fill="#ffc125" stroke="#ffc125" points="83,-8 83,-119 436,-119 436,-8 83,-8"/>
<text text-anchor="middle" x="259.5" y="-103.8" font-family="Times,serif" font-size="14.00">Wykonanie</text>
</g>
<!-- 0 -->
<!-- 1 -->
<!-- 0&#45;&gt;1 -->
<!-- plik .java -->
<g id="node3" class="node"><title>plik .java</title>
<polygon fill="white" stroke="white" points="199,-207 91,-207 91,-135 199,-135 199,-207"/>
<text text-anchor="middle" x="145" y="-167.3" font-family="Times,serif" font-size="14.00">plik .java</text>
</g>
<!-- 0&#45;&gt;plik .java -->
<!-- Kod natywny -->
<g id="node5" class="node"><title>Kod natywny</title>
<polygon fill="white" stroke="white" points="199,-88 91,-88 91,-16 199,-16 199,-88"/>
<text text-anchor="middle" x="145" y="-48.3" font-family="Times,serif" font-size="14.00">Kod natywny</text>
</g>
<!-- 1&#45;&gt;Kod natywny -->
<!-- plik .class -->
<g id="node4" class="node"><title>plik .class</title>
<polygon fill="white" stroke="white" points="428,-207 320,-207 320,-135 428,-135 428,-207"/>
<text text-anchor="middle" x="374" y="-167.3" font-family="Times,serif" font-size="14.00">plik .class</text>
</g>
<!-- plik .java&#45;&gt;plik .class -->
<g id="edge2" class="edge"><title>plik .java&#45;&gt;plik .class</title>
<path fill="none" stroke="black" d="M199.221,-171C232.259,-171 274.896,-171 309.669,-171"/>
<polygon fill="black" stroke="black" points="309.719,-174.5 319.719,-171 309.719,-167.5 309.719,-174.5"/>
<text text-anchor="middle" x="259.5" y="-174.8" font-family="Times,serif" font-size="14.00"> javac</text>
</g>
<!-- ClassLoader -->
<g id="node6" class="node"><title>ClassLoader</title>
<polygon fill="white" stroke="white" points="428,-88 320,-88 320,-16 428,-16 428,-88"/>
<text text-anchor="middle" x="374" y="-48.3" font-family="Times,serif" font-size="14.00">ClassLoader</text>
</g>
<!-- plik .class&#45;&gt;ClassLoader -->
<g id="edge4" class="edge"><title>plik .class&#45;&gt;ClassLoader</title>
<path fill="none" stroke="black" d="M374,-134.685C374,-123.234 374,-110.424 374,-98.371"/>
<polygon fill="black" stroke="black" points="377.5,-98.0268 374,-88.0269 370.5,-98.0269 377.5,-98.0268"/>
<text text-anchor="middle" x="363.5" y="-107.8" font-family="Times,serif" font-size="14.00"> &#160;&#160;&#160;&#160;&#160;&#160;&#160;&#160;&#160;&#160;&#160;&#160;&#160;&#160;java</text>
</g>
<!-- Kod natywny&#45;&gt;ClassLoader -->
<g id="edge3" class="edge"><title>Kod natywny&#45;&gt;ClassLoader</title>
<path fill="none" stroke="black" d="M209.269,-52C244.032,-52 286.67,-52 319.719,-52"/>
<polygon fill="black" stroke="black" points="209.221,-48.5001 199.221,-52 209.221,-55.5001 209.221,-48.5001"/>
<text text-anchor="middle" x="259.5" y="-55.8" font-family="Times,serif" font-size="14.00">Kompilator JIT</text>
</g>
</g>
</svg>
