<?xml version="1.0" encoding="UTF-8" standalone="no"?><svg xmlns="http://www.w3.org/2000/svg" xmlns:xlink="http://www.w3.org/1999/xlink" contentScriptType="application/ecmascript" contentStyleType="text/css" height="634px" preserveAspectRatio="none" style="width:1088px;height:634px;" version="1.1" viewBox="0 0 1088 634" width="1088px" zoomAndPan="magnify"><rect width="100%" height="100%" fill="white" /><defs><filter height="300%" id="f1qgwwugtu4ayl" width="300%" x="-1" y="-1"><feGaussianBlur result="blurOut" stdDeviation="2.0"/><feColorMatrix in="blurOut" result="blurOut2" type="matrix" values="0 0 0 0 0 0 0 0 0 0 0 0 0 0 0 0 0 0 .4 0"/><feOffset dx="4.0" dy="4.0" in="blurOut2" result="blurOut3"/><feBlend in="SourceGraphic" in2="blurOut3" mode="normal"/></filter></defs><g><text fill="#888888" font-family="sans-serif" font-size="10" lengthAdjust="spacingAndGlyphs" textLength="240" x="835.5" y="9.2822">Hierarchy of BottomAppBar behavior classes</text><!--MD5=[35a45f2bb906f1a4e75917fca45f1213]
cluster CoordinatorLayout--><polygon fill="#FFFFFF" filter="url(#f1qgwwugtu4ayl)" points="534.5,67.9156,693.5,67.9156,700.5,90.2125,1071.5,90.2125,1071.5,214.9156,534.5,214.9156,534.5,67.9156" style="stroke:#000000;stroke-width:1.5;"/><line style="stroke:#000000;stroke-width:1.5;" x1="534.5" x2="700.5" y1="90.2125" y2="90.2125"/><text fill="#000000" font-family="sans-serif" font-size="14" font-weight="bold" lengthAdjust="spacingAndGlyphs" textLength="153" x="538.5" y="82.9107">CoordinatorLayout</text><!--MD5=[361e4a9e8dc259659d8f1afe8c76f16b]
class CoordinatorLayout.LayoutParams--><rect codeLine="13" fill="#FEFECE" filter="url(#f1qgwwugtu4ayl)" height="60.8047" id="CoordinatorLayout.LayoutParams" style="stroke:#A80036;stroke-width:1.5;" width="255" x="792" y="129.9156"/><ellipse cx="873.75" cy="145.9156" fill="#ADD1B2" rx="11" ry="11" style="stroke:#A80036;stroke-width:1.0;"/><path d="M876.0938,141.5875 C875.1563,141.15 874.5625,141.0094 873.6875,141.0094 C871.0625,141.0094 869.0625,143.0875 869.0625,145.8062 L869.0625,146.9312 C869.0625,149.5094 871.1719,151.4 874.0625,151.4 C875.2813,151.4 876.4375,151.1031 877.1875,150.5562 C877.7656,150.15 878.0938,149.6969 878.0938,149.3062 C878.0938,148.8531 877.7031,148.4625 877.2344,148.4625 C877.0156,148.4625 876.8125,148.5406 876.625,148.7281 C876.1719,149.2125 876.1719,149.2125 875.9844,149.3062 C875.5625,149.5719 874.875,149.6969 874.1094,149.6969 C872.0625,149.6969 870.7656,148.6031 870.7656,146.9 L870.7656,145.8062 C870.7656,144.025 872.0156,142.7125 873.75,142.7125 C874.3281,142.7125 874.9375,142.8687 875.4063,143.1187 C875.8906,143.4 876.0625,143.6187 876.1563,144.025 C876.2188,144.4312 876.25,144.5562 876.3906,144.6812 C876.5313,144.8219 876.7656,144.9312 876.9844,144.9312 C877.25,144.9312 877.5156,144.7906 877.6875,144.5719 C877.7969,144.4156 877.8281,144.2281 877.8281,143.8062 L877.8281,142.3844 C877.8281,141.9469 877.8125,141.8219 877.7188,141.6656 C877.5625,141.4 877.2813,141.2594 876.9844,141.2594 C876.6875,141.2594 876.4844,141.3531 876.2656,141.6656 L876.0938,141.5875 Z " fill="#000000"/><ellipse cx="894.25" cy="145.4156" fill="#84BE84" rx="-2" ry="-2" style="stroke:#038048;stroke-width:1.0;"/><text fill="#000000" font-family="sans-serif" font-size="12" lengthAdjust="spacingAndGlyphs" textLength="82" x="895.25" y="150.0699">LayoutParams</text><line style="stroke:#A80036;stroke-width:1.5;" x1="793" x2="1046" y1="161.9156" y2="161.9156"/><line style="stroke:#A80036;stroke-width:1.5;" x1="793" x2="1046" y1="169.9156" y2="169.9156"/><text fill="#000000" font-family="sans-serif" font-size="11" lengthAdjust="spacingAndGlyphs" textLength="243" x="798" y="184.1261">+setBehavior(CoordinatorLayout.Behavior)</text><!--MD5=[6258cd235a9f2d909a8f0c016917a2b3]
class CoordinatorLayout.Behavior--><rect codeLine="17" fill="#FEFECE" filter="url(#f1qgwwugtu4ayl)" height="60.8047" id="CoordinatorLayout.Behavior" style="stroke:#A80036;stroke-width:1.5;" width="179" x="578" y="129.9156"/><ellipse cx="593" cy="145.9156" fill="#A9DCDF" rx="11" ry="11" style="stroke:#A80036;stroke-width:1.0;"/><path d="M595.0781,147.7281 L595.4688,148.7125 L595.0781,148.7125 C594.625,148.7125 594.5156,148.7281 594.3594,148.8375 C594.1094,148.9937 593.9531,149.275 593.9531,149.5719 C593.9531,149.8375 594.0938,150.0875 594.3125,150.2437 C594.4531,150.3687 594.6563,150.4156 595.0781,150.4156 L597.4375,150.4156 C597.7969,150.4156 598.0156,150.3844 598.1563,150.2906 C598.4063,150.15 598.5625,149.8531 598.5625,149.5719 C598.5625,149.2906 598.4219,149.0406 598.2031,148.8844 C598.0313,148.7437 597.875,148.7125 597.4063,148.7125 L594.0156,140.5094 L590.3438,140.5094 C589.8906,140.5094 589.7656,140.525 589.6094,140.6187 C589.3594,140.7906 589.2031,141.0719 589.2031,141.3531 C589.2031,141.6344 589.3438,141.8844 589.5625,142.0562 C589.7344,142.1656 589.9063,142.1969 590.3438,142.1969 L591.4219,142.1969 L588.7813,148.7125 C588.3594,148.7125 588.2031,148.7281 588.0469,148.8375 C587.7969,148.9937 587.6406,149.275 587.6406,149.5719 C587.6406,150.1344 588.0156,150.4156 588.7656,150.4156 L591.0313,150.4156 C591.3906,150.4156 591.6094,150.3844 591.7344,150.2906 C592,150.15 592.1406,149.8531 592.1406,149.5719 C592.1406,149.2906 592.0156,149.0406 591.7969,148.8687 C591.625,148.7437 591.4844,148.7125 591.0313,148.7125 L590.6406,148.7125 L591.0313,147.7281 L595.0781,147.7281 Z M594.375,146.025 L591.7031,146.025 L593.0469,142.7594 L594.375,146.025 Z " fill="#000000"/><ellipse cx="607" cy="145.4156" fill="#84BE84" rx="-2" ry="-2" style="stroke:#038048;stroke-width:1.0;"/><text fill="#000000" font-family="sans-serif" font-size="12" font-style="italic" lengthAdjust="spacingAndGlyphs" textLength="52" x="608" y="150.0699">Behavior</text><rect fill="#FFFFFF" height="15.9688" style="stroke:#000000;stroke-width:1.0;stroke-dasharray:2.0,2.0;" width="92" x="668" y="126.9156"/><text fill="#000000" font-family="sans-serif" font-size="12" font-style="italic" lengthAdjust="spacingAndGlyphs" textLength="90" x="669" y="139.0543">? extends View</text><line style="stroke:#A80036;stroke-width:1.5;" x1="579" x2="756" y1="161.9156" y2="161.9156"/><line style="stroke:#A80036;stroke-width:1.5;" x1="579" x2="756" y1="169.9156" y2="169.9156"/><text fill="#000000" font-family="sans-serif" font-size="11" lengthAdjust="spacingAndGlyphs" textLength="112" x="584" y="184.1261">+onNestedScroll(...)</text><!--MD5=[f6864fda828613808eac52cf052d90fd]
class HideBottomViewOnScrollBehavior--><rect codeLine="22" fill="#FEFECE" filter="url(#f1qgwwugtu4ayl)" height="73.6094" id="HideBottomViewOnScrollBehavior" style="stroke:#A80036;stroke-width:1.5;" width="333" x="428" y="269.9156"/><ellipse cx="443" cy="285.9156" fill="#ADD1B2" rx="11" ry="11" style="stroke:#A80036;stroke-width:1.0;"/><path d="M445.3438,281.5875 C444.4063,281.15 443.8125,281.0094 442.9375,281.0094 C440.3125,281.0094 438.3125,283.0875 438.3125,285.8063 L438.3125,286.9313 C438.3125,289.5094 440.4219,291.4 443.3125,291.4 C444.5313,291.4 445.6875,291.1031 446.4375,290.5563 C447.0156,290.15 447.3438,289.6969 447.3438,289.3063 C447.3438,288.8531 446.9531,288.4625 446.4844,288.4625 C446.2656,288.4625 446.0625,288.5406 445.875,288.7281 C445.4219,289.2125 445.4219,289.2125 445.2344,289.3063 C444.8125,289.5719 444.125,289.6969 443.3594,289.6969 C441.3125,289.6969 440.0156,288.6031 440.0156,286.9 L440.0156,285.8063 C440.0156,284.025 441.2656,282.7125 443,282.7125 C443.5781,282.7125 444.1875,282.8688 444.6563,283.1188 C445.1406,283.4 445.3125,283.6188 445.4063,284.025 C445.4688,284.4313 445.5,284.5563 445.6406,284.6813 C445.7813,284.8219 446.0156,284.9313 446.2344,284.9313 C446.5,284.9313 446.7656,284.7906 446.9375,284.5719 C447.0469,284.4156 447.0781,284.2281 447.0781,283.8063 L447.0781,282.3844 C447.0781,281.9469 447.0625,281.8219 446.9688,281.6656 C446.8125,281.4 446.5313,281.2594 446.2344,281.2594 C445.9375,281.2594 445.7344,281.3531 445.5156,281.6656 L445.3438,281.5875 Z " fill="#000000"/><ellipse cx="457" cy="285.4156" fill="#84BE84" rx="-2" ry="-2" style="stroke:#038048;stroke-width:1.0;"/><text fill="#000000" font-family="sans-serif" font-size="12" lengthAdjust="spacingAndGlyphs" textLength="204" x="458" y="290.0699">HideBottomViewOnScrollBehavior</text><rect fill="#FFFFFF" height="15.9688" style="stroke:#000000;stroke-width:1.0;stroke-dasharray:2.0,2.0;" width="94" x="670" y="266.9156"/><text fill="#000000" font-family="sans-serif" font-size="12" font-style="italic" lengthAdjust="spacingAndGlyphs" textLength="92" x="671" y="279.0543">V extends View</text><line style="stroke:#A80036;stroke-width:1.5;" x1="429" x2="760" y1="301.9156" y2="301.9156"/><line style="stroke:#A80036;stroke-width:1.5;" x1="429" x2="760" y1="309.9156" y2="309.9156"/><text fill="#000000" font-family="sans-serif" font-size="11" lengthAdjust="spacingAndGlyphs" textLength="67" x="434" y="324.1261">+slideUp(V)</text><text fill="#000000" font-family="sans-serif" font-size="11" lengthAdjust="spacingAndGlyphs" textLength="84" x="434" y="336.9308">+slideDown(V)</text><!--MD5=[ca7a8a00441821369125c43154978ae2]
class BottomAppBar--><rect codeLine="28" fill="#FEFECE" filter="url(#f1qgwwugtu4ayl)" height="60.8047" id="BottomAppBar" style="stroke:#A80036;stroke-width:1.5;" width="291" x="137" y="129.9156"/><ellipse cx="234.25" cy="145.9156" fill="#ADD1B2" rx="11" ry="11" style="stroke:#A80036;stroke-width:1.0;"/><path d="M236.5938,141.5875 C235.6563,141.15 235.0625,141.0094 234.1875,141.0094 C231.5625,141.0094 229.5625,143.0875 229.5625,145.8062 L229.5625,146.9312 C229.5625,149.5094 231.6719,151.4 234.5625,151.4 C235.7813,151.4 236.9375,151.1031 237.6875,150.5562 C238.2656,150.15 238.5938,149.6969 238.5938,149.3062 C238.5938,148.8531 238.2031,148.4625 237.7344,148.4625 C237.5156,148.4625 237.3125,148.5406 237.125,148.7281 C236.6719,149.2125 236.6719,149.2125 236.4844,149.3062 C236.0625,149.5719 235.375,149.6969 234.6094,149.6969 C232.5625,149.6969 231.2656,148.6031 231.2656,146.9 L231.2656,145.8062 C231.2656,144.025 232.5156,142.7125 234.25,142.7125 C234.8281,142.7125 235.4375,142.8687 235.9063,143.1187 C236.3906,143.4 236.5625,143.6187 236.6563,144.025 C236.7188,144.4312 236.75,144.5562 236.8906,144.6812 C237.0313,144.8219 237.2656,144.9312 237.4844,144.9312 C237.75,144.9312 238.0156,144.7906 238.1875,144.5719 C238.2969,144.4156 238.3281,144.2281 238.3281,143.8062 L238.3281,142.3844 C238.3281,141.9469 238.3125,141.8219 238.2188,141.6656 C238.0625,141.4 237.7813,141.2594 237.4844,141.2594 C237.1875,141.2594 236.9844,141.3531 236.7656,141.6656 L236.5938,141.5875 Z " fill="#000000"/><ellipse cx="254.75" cy="145.4156" fill="#84BE84" rx="-2" ry="-2" style="stroke:#038048;stroke-width:1.0;"/><text fill="#000000" font-family="sans-serif" font-size="12" lengthAdjust="spacingAndGlyphs" textLength="87" x="255.75" y="150.0699">BottomAppBar</text><line style="stroke:#A80036;stroke-width:1.5;" x1="138" x2="427" y1="161.9156" y2="161.9156"/><line style="stroke:#A80036;stroke-width:1.5;" x1="138" x2="427" y1="169.9156" y2="169.9156"/><text fill="#000000" font-family="sans-serif" font-size="11" lengthAdjust="spacingAndGlyphs" textLength="279" x="143" y="184.1261">+getLayoutParams(): CoordinatorLayout.Behavior</text><!--MD5=[5eb7b6760882fab25c9fe8531e6eb963]
class BottomAppBar.Behavior--><rect codeLine="32" fill="#FEFECE" filter="url(#f1qgwwugtu4ayl)" height="48" id="BottomAppBar.Behavior" style="stroke:#A80036;stroke-width:1.5;" width="268" x="148.5" y="420.9156"/><ellipse cx="163.5" cy="436.9156" fill="#ADD1B2" rx="11" ry="11" style="stroke:#A80036;stroke-width:1.0;"/><path d="M165.8438,432.5875 C164.9063,432.15 164.3125,432.0094 163.4375,432.0094 C160.8125,432.0094 158.8125,434.0875 158.8125,436.8063 L158.8125,437.9313 C158.8125,440.5094 160.9219,442.4 163.8125,442.4 C165.0313,442.4 166.1875,442.1031 166.9375,441.5563 C167.5156,441.15 167.8438,440.6969 167.8438,440.3063 C167.8438,439.8531 167.4531,439.4625 166.9844,439.4625 C166.7656,439.4625 166.5625,439.5406 166.375,439.7281 C165.9219,440.2125 165.9219,440.2125 165.7344,440.3063 C165.3125,440.5719 164.625,440.6969 163.8594,440.6969 C161.8125,440.6969 160.5156,439.6031 160.5156,437.9 L160.5156,436.8063 C160.5156,435.025 161.7656,433.7125 163.5,433.7125 C164.0781,433.7125 164.6875,433.8688 165.1563,434.1188 C165.6406,434.4 165.8125,434.6188 165.9063,435.025 C165.9688,435.4313 166,435.5563 166.1406,435.6813 C166.2813,435.8219 166.5156,435.9313 166.7344,435.9313 C167,435.9313 167.2656,435.7906 167.4375,435.5719 C167.5469,435.4156 167.5781,435.2281 167.5781,434.8063 L167.5781,433.3844 C167.5781,432.9469 167.5625,432.8219 167.4688,432.6656 C167.3125,432.4 167.0313,432.2594 166.7344,432.2594 C166.4375,432.2594 166.2344,432.3531 166.0156,432.6656 L165.8438,432.5875 Z " fill="#000000"/><ellipse cx="177.5" cy="436.4156" fill="#84BE84" rx="-2" ry="-2" style="stroke:#038048;stroke-width:1.0;"/><text fill="#000000" font-family="sans-serif" font-size="12" lengthAdjust="spacingAndGlyphs" textLength="143" x="178.5" y="441.0699">BottomAppBar.Behavior</text><rect fill="#FFFFFF" height="15.9688" style="stroke:#000000;stroke-width:1.0;stroke-dasharray:2.0,2.0;" width="90" x="329.5" y="417.9156"/><text fill="#000000" font-family="sans-serif" font-size="12" font-style="italic" lengthAdjust="spacingAndGlyphs" textLength="88" x="330.5" y="430.0543">BottomAppBar</text><line style="stroke:#A80036;stroke-width:1.5;" x1="149.5" x2="415.5" y1="452.9156" y2="452.9156"/><line style="stroke:#A80036;stroke-width:1.5;" x1="149.5" x2="415.5" y1="460.9156" y2="460.9156"/><!--MD5=[1a21bd80a42728920b9c8bf9afb825b9]
class HideListenableBottomAppBarBehavior--><rect codeLine="36" fill="#FFFF66" filter="url(#f1qgwwugtu4ayl)" height="73.6094" id="HideListenableBottomAppBarBehavior" style="stroke:#A80036;stroke-width:1.5;" width="261" x="7" y="529.9156"/><ellipse cx="22" cy="545.9156" fill="#A9DCDF" rx="11" ry="11" style="stroke:#A80036;stroke-width:1.0;"/><path d="M24.0781,547.7281 L24.4688,548.7125 L24.0781,548.7125 C23.625,548.7125 23.5156,548.7281 23.3594,548.8375 C23.1094,548.9938 22.9531,549.275 22.9531,549.5719 C22.9531,549.8375 23.0938,550.0875 23.3125,550.2438 C23.4531,550.3688 23.6563,550.4156 24.0781,550.4156 L26.4375,550.4156 C26.7969,550.4156 27.0156,550.3844 27.1563,550.2906 C27.4063,550.15 27.5625,549.8531 27.5625,549.5719 C27.5625,549.2906 27.4219,549.0406 27.2031,548.8844 C27.0313,548.7438 26.875,548.7125 26.4063,548.7125 L23.0156,540.5094 L19.3438,540.5094 C18.8906,540.5094 18.7656,540.525 18.6094,540.6188 C18.3594,540.7906 18.2031,541.0719 18.2031,541.3531 C18.2031,541.6344 18.3438,541.8844 18.5625,542.0563 C18.7344,542.1656 18.9063,542.1969 19.3438,542.1969 L20.4219,542.1969 L17.7813,548.7125 C17.3594,548.7125 17.2031,548.7281 17.0469,548.8375 C16.7969,548.9938 16.6406,549.275 16.6406,549.5719 C16.6406,550.1344 17.0156,550.4156 17.7656,550.4156 L20.0313,550.4156 C20.3906,550.4156 20.6094,550.3844 20.7344,550.2906 C21,550.15 21.1406,549.8531 21.1406,549.5719 C21.1406,549.2906 21.0156,549.0406 20.7969,548.8688 C20.625,548.7438 20.4844,548.7125 20.0313,548.7125 L19.6406,548.7125 L20.0313,547.7281 L24.0781,547.7281 Z M23.375,546.025 L20.7031,546.025 L22.0469,542.7594 L23.375,546.025 Z " fill="#000000"/><ellipse cx="36" cy="545.4156" fill="#84BE84" rx="-2" ry="-2" style="stroke:#038048;stroke-width:1.0;"/><text fill="#000000" font-family="sans-serif" font-size="12" font-style="italic" lengthAdjust="spacingAndGlyphs" textLength="228" x="37" y="550.0699">HideListenableBottomAppBarBehavior</text><line style="stroke:#A80036;stroke-width:1.5;" x1="8" x2="267" y1="561.9156" y2="561.9156"/><line style="stroke:#A80036;stroke-width:1.5;" x1="8" x2="267" y1="569.9156" y2="569.9156"/><text fill="#000000" font-family="sans-serif" font-size="11" font-style="italic" lengthAdjust="spacingAndGlyphs" textLength="89" x="13" y="584.1261">+onSlideDown()</text><text fill="#000000" font-family="sans-serif" font-size="11" font-style="italic" lengthAdjust="spacingAndGlyphs" textLength="73" x="13" y="596.9308">+onSlideUp()</text><path d="M303,554.4156 L303,562.9156 L268.203,566.9156 L303,570.9156 L303,579.5484 A0,0 0 0 0 303,579.5484 L450,579.5484 A0,0 0 0 0 450,579.5484 L450,564.4156 L440,554.4156 L303,554.4156 A0,0 0 0 0 303,554.4156 " fill="#FBFB77" filter="url(#f1qgwwugtu4ayl)" style="stroke:#A80036;stroke-width:1.0;"/><path d="M440,554.4156 L440,564.4156 L450,564.4156 L440,554.4156 " fill="#FBFB77" style="stroke:#A80036;stroke-width:1.0;"/><text fill="#000000" font-family="sans-serif" font-size="13" lengthAdjust="spacingAndGlyphs" textLength="126" x="309" y="571.4825">Our custom listener</text><!--MD5=[c881b25adf3665c6568c9693d41a70f3]
class Activity--><rect codeLine="44" fill="#FEFECE" filter="url(#f1qgwwugtu4ayl)" height="53.9375" id="Activity" style="stroke:#A80036;stroke-width:1.5;" width="89" x="13" y="133.4156"/><ellipse cx="28" cy="152.3844" fill="#ADD1B2" rx="11" ry="11" style="stroke:#A80036;stroke-width:1.0;"/><path d="M30.3438,148.0562 C29.4063,147.6187 28.8125,147.4781 27.9375,147.4781 C25.3125,147.4781 23.3125,149.5562 23.3125,152.275 L23.3125,153.4 C23.3125,155.9781 25.4219,157.8687 28.3125,157.8687 C29.5313,157.8687 30.6875,157.5719 31.4375,157.025 C32.0156,156.6187 32.3438,156.1656 32.3438,155.775 C32.3438,155.3219 31.9531,154.9312 31.4844,154.9312 C31.2656,154.9312 31.0625,155.0094 30.875,155.1969 C30.4219,155.6812 30.4219,155.6812 30.2344,155.775 C29.8125,156.0406 29.125,156.1656 28.3594,156.1656 C26.3125,156.1656 25.0156,155.0719 25.0156,153.3687 L25.0156,152.275 C25.0156,150.4937 26.2656,149.1812 28,149.1812 C28.5781,149.1812 29.1875,149.3375 29.6563,149.5875 C30.1406,149.8687 30.3125,150.0875 30.4063,150.4937 C30.4688,150.9 30.5,151.025 30.6406,151.15 C30.7813,151.2906 31.0156,151.4 31.2344,151.4 C31.5,151.4 31.7656,151.2594 31.9375,151.0406 C32.0469,150.8844 32.0781,150.6969 32.0781,150.275 L32.0781,148.8531 C32.0781,148.4156 32.0625,148.2906 31.9688,148.1344 C31.8125,147.8687 31.5313,147.7281 31.2344,147.7281 C30.9375,147.7281 30.7344,147.8219 30.5156,148.1344 L30.3438,148.0562 Z " fill="#000000"/><text fill="#000000" font-family="sans-serif" font-size="12" lengthAdjust="spacingAndGlyphs" textLength="47" x="47" y="149.5543">Activity/</text><text fill="#000000" font-family="sans-serif" font-size="12" lengthAdjust="spacingAndGlyphs" textLength="57" x="42" y="163.523">Fragment</text><line style="stroke:#A80036;stroke-width:1.5;" x1="14" x2="101" y1="171.3531" y2="171.3531"/><line style="stroke:#A80036;stroke-width:1.5;" x1="14" x2="101" y1="179.3531" y2="179.3531"/><!--MD5=[c281e0e625cbd35243d55910a1c01d00]
reverse link CoordinatorLayout.Behavior to HideBottomViewOnScrollBehavior--><path d="M643.518,208.8866 C633.52,228.6776 622.096,251.2916 612.793,269.7056 " fill="none" id="CoordinatorLayout.Behavior-backto-HideBottomViewOnScrollBehavior" style="stroke:#A80036;stroke-width:1.0;"/><polygon fill="none" points="637.285,205.7006,652.551,191.0056,649.781,212.0136,637.285,205.7006" style="stroke:#A80036;stroke-width:1.0;"/><!--MD5=[e1d12715f07a408760ed175c046f4c31]
reverse link HideBottomViewOnScrollBehavior to BottomAppBar.Behavior--><path d="M493.222,352.0626 C440.743,374.9376 378.803,401.9376 335.715,420.7196 " fill="none" id="HideBottomViewOnScrollBehavior-backto-BottomAppBar.Behavior" style="stroke:#A80036;stroke-width:1.0;"/><polygon fill="none" points="490.578,345.5786,511.709,344.0036,496.172,358.4126,490.578,345.5786" style="stroke:#A80036;stroke-width:1.0;"/><!--MD5=[e0adb8371f990b5c5958ac9431edb82c]
reverse link BottomAppBar.Behavior to HideListenableBottomAppBarBehavior--><path d="M239.031,481.8896 C220.701,497.0596 199.406,514.6829 181.066,529.8608 " fill="none" id="BottomAppBar.Behavior-backto-HideListenableBottomAppBarBehavior" style="stroke:#A80036;stroke-width:1.0;"/><polygon fill="none" points="234.672,476.4116,254.543,469.0526,243.598,487.1966,234.672,476.4116" style="stroke:#A80036;stroke-width:1.0;"/><!--MD5=[05039e6fe6818e3613e972f9db614749]
link Activity to HideListenableBottomAppBarBehavior--><path codeLine="46" d="M62.6874,187.6446 C76.5544,257.7596 114.503,449.6386 130.374,529.8859 " fill="none" id="Activity-HideListenableBottomAppBarBehavior" style="stroke:#A80036;stroke-width:1.0;"/><polygon fill="#000000" points="109.4701,387.387,110.5983,377.9436,104.8321,379.084,109.4701,387.387" style="stroke:#000000;stroke-width:1.0;"/><text fill="#000000" font-family="sans-serif" font-size="13" lengthAdjust="spacingAndGlyphs" textLength="58" x="117.5" y="386.9825">initializes</text><!--MD5=[5cebfff8ced92b09e131e3d6a3bba31c]
link Activity to CoordinatorLayout.LayoutParams--><path codeLine="47" d="M64.9176,132.9506 C73.4463,107.3836 90.1951,70.7646 119.5,53.9156 C182.593,17.6406 705.343,31.2466 774.5,53.9156 C819.911,68.8006 862.835,103.9346 890.024,129.7966 " fill="none" id="Activity-CoordinatorLayout.LayoutParams" style="stroke:#A80036;stroke-width:1.0;"/><polygon fill="#000000" points="680.5,35.5011,689.5563,38.4055,689.5338,32.5277,680.5,35.5011" style="stroke:#000000;stroke-width:1.0;"/><text fill="#000000" font-family="sans-serif" font-size="13" lengthAdjust="spacingAndGlyphs" textLength="75" x="694.5" y="39.9825">returned by</text><!--MD5=[e3fd3b72cef8f8bcf8e94f59d7fd68a8]
link BottomAppBar to CoordinatorLayout.LayoutParams--><path codeLine="49" d="M335.123,129.8396 C383.159,103.8146 457.048,68.4126 526.5,53.9156 C634.397,31.3946 669.761,19.5836 774.5,53.9156 C819.911,68.8006 862.835,103.9346 890.024,129.7966 " fill="none" id="BottomAppBar-CoordinatorLayout.LayoutParams" style="stroke:#A80036;stroke-width:1.0;"/><polygon fill="#000000" points="458.5,35.4816,449.4547,32.5434,449.4551,38.4213,458.5,35.4816" style="stroke:#000000;stroke-width:1.0;"/><text fill="#000000" font-family="sans-serif" font-size="13" lengthAdjust="spacingAndGlyphs" textLength="169" x="462.5" y="39.9825">overrides default behavior</text><!--MD5=[e89fa0af7a5cdc406cc659388aec9092]
link BottomAppBar to CoordinatorLayout--><path codeLine="50" d="M428.082,160.4156 C455.931,160.4156 482.8122,160.4156 503.5139,160.4156 C513.8647,160.4156 522.6706,160.4156 529.2801,160.4156 C530.9325,160.4156 532.4476,160.4156 533.8152,160.4156 C533.9862,160.4156 534.1549,160.4156 534.3212,160.4156 " fill="none" id="BottomAppBar-CoordinatorLayout" style="stroke:#A80036;stroke-width:1.0;"/><text fill="#000000" font-family="sans-serif" font-size="13" lengthAdjust="spacingAndGlyphs" textLength="57" x="456.57" y="138.4825">attached</text><polygon fill="#000000" points="456.07,149.1148,447.0249,146.1759,447.0249,152.0538,456.07,149.1148" style="stroke:#000000;stroke-width:1.0;"/><text fill="#000000" font-family="sans-serif" font-size="13" lengthAdjust="spacingAndGlyphs" textLength="65" x="459.07" y="153.6153">as child of</text><!--MD5=[5763bead1c922e15a4ba1312cf4b292f]
link BottomAppBar to BottomAppBar.Behavior--><path codeLine="51" d="M282.5,191.1146 C282.5,247.6376 282.5,369.5906 282.5,420.6686 " fill="none" id="BottomAppBar-BottomAppBar.Behavior" style="stroke:#A80036;stroke-width:1.0;"/><text fill="#000000" font-family="sans-serif" font-size="13" lengthAdjust="spacingAndGlyphs" textLength="84" x="283.5" y="303.9825">has a default</text><polygon fill="#000000" points="296,319.6148,298.9389,310.5698,293.0611,310.5698,296,319.6148" style="stroke:#000000;stroke-width:1.0;"/><text fill="#000000" font-family="sans-serif" font-size="13" lengthAdjust="spacingAndGlyphs" textLength="56" x="304" y="319.1153">behavior</text><text fill="#888888" font-family="sans-serif" font-size="10" lengthAdjust="spacingAndGlyphs" textLength="277" x="399.25" y="625.8072">A sample way to bind to BottomAppBar hide events</text><!--MD5=[11cb6508b08e268125c30757efc1e3b2]
@startuml
header
Hierarchy of BottomAppBar behavior classes
endheader

footer
A sample way to bind to BottomAppBar hide events
endfooter

skinparam classAttributeIconSize 0



+class CoordinatorLayout.LayoutParams {
  +setBehavior(CoordinatorLayout.Behavior)
}

+abstract class CoordinatorLayout.Behavior<? extends View> {
  +onNestedScroll(...)
}


+class HideBottomViewOnScrollBehavior<V extends View> extends CoordinatorLayout.Behavior { 
  +slideUp(V)
  +slideDown(V)
}


+class BottomAppBar {
   +getLayoutParams(): CoordinatorLayout.Behavior
}

+class BottomAppBar.Behavior<BottomAppBar> extends HideBottomViewOnScrollBehavior {
}


+abstract class HideListenableBottomAppBarBehavior #FFFF66 extends BottomAppBar.Behavior {
    +{abstract} onSlideDown()
    +{abstract} onSlideUp()
}

note right of HideListenableBottomAppBarBehavior: Our custom listener


class "Activity/\nFragment" as Activity

Activity - HideListenableBottomAppBarBehavior: initializes >
Activity - CoordinatorLayout.LayoutParams: returned by <

BottomAppBar - CoordinatorLayout.LayoutParams: overrides default behavior >
BottomAppBar - CoordinatorLayout: attached\nas child of >
BottomAppBar - BottomAppBar.Behavior: has a default\nbehavior >
@enduml

PlantUML version 1.2020.22(Sun Dec 06 09:36:27 UTC 2020)
(GPL source distribution)
Java Runtime: Java(TM) SE Runtime Environment
JVM: Java HotSpot(TM) 64-Bit Server VM
Default Encoding: UTF-8
Language: en
Country: US
--></g></svg>