<?xml version="1.0" encoding="UTF-8" standalone="no"?><svg xmlns="http://www.w3.org/2000/svg" xmlns:xlink="http://www.w3.org/1999/xlink" contentScriptType="application/ecmascript" contentStyleType="text/css" height="635px" preserveAspectRatio="none" style="width:1101px;height:635px;" version="1.1" viewBox="0 0 1101 635" width="1101px" zoomAndPan="magnify"><rect width="100%" height="100%" fill="white" /><defs><filter height="300%" id="fj3q7q0snuaqj" width="300%" x="-1" y="-1"><feGaussianBlur result="blurOut" stdDeviation="2.0"/><feColorMatrix in="blurOut" result="blurOut2" type="matrix" values="0 0 0 0 0 0 0 0 0 0 0 0 0 0 0 0 0 0 .4 0"/><feOffset dx="4.0" dy="4.0" in="blurOut2" result="blurOut3"/><feBlend in="SourceGraphic" in2="blurOut3" mode="normal"/></filter></defs><g><text fill="#888888" font-family="sans-serif" font-size="10" lengthAdjust="spacingAndGlyphs" textLength="225" x="863.5" y="9.2822">Hierarchia klas BottomAppBar + Behavior</text><!--MD5=[35a45f2bb906f1a4e75917fca45f1213]
cluster CoordinatorLayout--><polygon fill="#FFFFFF" filter="url(#fj3q7q0snuaqj)" points="547.5,68.6356,706.5,68.6356,713.5,90.9325,1084.5,90.9325,1084.5,215.6356,547.5,215.6356,547.5,68.6356" style="stroke:#000000;stroke-width:1.5;"/><line style="stroke:#000000;stroke-width:1.5;" x1="547.5" x2="713.5" y1="90.9325" y2="90.9325"/><text fill="#000000" font-family="sans-serif" font-size="14" font-weight="bold" lengthAdjust="spacingAndGlyphs" textLength="153" x="551.5" y="83.6307">CoordinatorLayout</text><!--MD5=[361e4a9e8dc259659d8f1afe8c76f16b]
class CoordinatorLayout.LayoutParams--><rect codeLine="13" fill="#FEFECE" filter="url(#fj3q7q0snuaqj)" height="60.8047" id="CoordinatorLayout.LayoutParams" style="stroke:#A80036;stroke-width:1.5;" width="255" x="805" y="130.6356"/><ellipse cx="886.75" cy="146.6356" fill="#ADD1B2" rx="11" ry="11" style="stroke:#A80036;stroke-width:1.0;"/><path d="M889.0938,142.3075 C888.1563,141.87 887.5625,141.7294 886.6875,141.7294 C884.0625,141.7294 882.0625,143.8075 882.0625,146.5263 L882.0625,147.6513 C882.0625,150.2294 884.1719,152.12 887.0625,152.12 C888.2813,152.12 889.4375,151.8231 890.1875,151.2763 C890.7656,150.87 891.0938,150.4169 891.0938,150.0263 C891.0938,149.5731 890.7031,149.1825 890.2344,149.1825 C890.0156,149.1825 889.8125,149.2606 889.625,149.4481 C889.1719,149.9325 889.1719,149.9325 888.9844,150.0263 C888.5625,150.2919 887.875,150.4169 887.1094,150.4169 C885.0625,150.4169 883.7656,149.3231 883.7656,147.62 L883.7656,146.5263 C883.7656,144.745 885.0156,143.4325 886.75,143.4325 C887.3281,143.4325 887.9375,143.5888 888.4063,143.8388 C888.8906,144.12 889.0625,144.3388 889.1563,144.745 C889.2188,145.1513 889.25,145.2763 889.3906,145.4013 C889.5313,145.5419 889.7656,145.6513 889.9844,145.6513 C890.25,145.6513 890.5156,145.5106 890.6875,145.2919 C890.7969,145.1356 890.8281,144.9481 890.8281,144.5263 L890.8281,143.1044 C890.8281,142.6669 890.8125,142.5419 890.7188,142.3856 C890.5625,142.12 890.2813,141.9794 889.9844,141.9794 C889.6875,141.9794 889.4844,142.0731 889.2656,142.3856 L889.0938,142.3075 Z " fill="#000000"/><ellipse cx="907.25" cy="146.1356" fill="#84BE84" rx="-2" ry="-2" style="stroke:#038048;stroke-width:1.0;"/><text fill="#000000" font-family="sans-serif" font-size="12" lengthAdjust="spacingAndGlyphs" textLength="82" x="908.25" y="150.7899">LayoutParams</text><line style="stroke:#A80036;stroke-width:1.5;" x1="806" x2="1059" y1="162.6356" y2="162.6356"/><line style="stroke:#A80036;stroke-width:1.5;" x1="806" x2="1059" y1="170.6356" y2="170.6356"/><text fill="#000000" font-family="sans-serif" font-size="11" lengthAdjust="spacingAndGlyphs" textLength="243" x="811" y="184.8461">+setBehavior(CoordinatorLayout.Behavior)</text><!--MD5=[6258cd235a9f2d909a8f0c016917a2b3]
class CoordinatorLayout.Behavior--><rect codeLine="17" fill="#FEFECE" filter="url(#fj3q7q0snuaqj)" height="60.8047" id="CoordinatorLayout.Behavior" style="stroke:#A80036;stroke-width:1.5;" width="179" x="591" y="130.6356"/><ellipse cx="606" cy="146.6356" fill="#A9DCDF" rx="11" ry="11" style="stroke:#A80036;stroke-width:1.0;"/><path d="M608.0781,148.4481 L608.4688,149.4325 L608.0781,149.4325 C607.625,149.4325 607.5156,149.4481 607.3594,149.5575 C607.1094,149.7138 606.9531,149.995 606.9531,150.2919 C606.9531,150.5575 607.0938,150.8075 607.3125,150.9638 C607.4531,151.0888 607.6563,151.1356 608.0781,151.1356 L610.4375,151.1356 C610.7969,151.1356 611.0156,151.1044 611.1563,151.0106 C611.4063,150.87 611.5625,150.5731 611.5625,150.2919 C611.5625,150.0106 611.4219,149.7606 611.2031,149.6044 C611.0313,149.4638 610.875,149.4325 610.4063,149.4325 L607.0156,141.2294 L603.3438,141.2294 C602.8906,141.2294 602.7656,141.245 602.6094,141.3388 C602.3594,141.5106 602.2031,141.7919 602.2031,142.0731 C602.2031,142.3544 602.3438,142.6044 602.5625,142.7763 C602.7344,142.8856 602.9063,142.9169 603.3438,142.9169 L604.4219,142.9169 L601.7813,149.4325 C601.3594,149.4325 601.2031,149.4481 601.0469,149.5575 C600.7969,149.7138 600.6406,149.995 600.6406,150.2919 C600.6406,150.8544 601.0156,151.1356 601.7656,151.1356 L604.0313,151.1356 C604.3906,151.1356 604.6094,151.1044 604.7344,151.0106 C605,150.87 605.1406,150.5731 605.1406,150.2919 C605.1406,150.0106 605.0156,149.7606 604.7969,149.5888 C604.625,149.4638 604.4844,149.4325 604.0313,149.4325 L603.6406,149.4325 L604.0313,148.4481 L608.0781,148.4481 Z M607.375,146.745 L604.7031,146.745 L606.0469,143.4794 L607.375,146.745 Z " fill="#000000"/><ellipse cx="620" cy="146.1356" fill="#84BE84" rx="-2" ry="-2" style="stroke:#038048;stroke-width:1.0;"/><text fill="#000000" font-family="sans-serif" font-size="12" font-style="italic" lengthAdjust="spacingAndGlyphs" textLength="52" x="621" y="150.7899">Behavior</text><rect fill="#FFFFFF" height="15.9688" style="stroke:#000000;stroke-width:1.0;stroke-dasharray:2.0,2.0;" width="92" x="681" y="127.6356"/><text fill="#000000" font-family="sans-serif" font-size="12" font-style="italic" lengthAdjust="spacingAndGlyphs" textLength="90" x="682" y="139.7743">? extends View</text><line style="stroke:#A80036;stroke-width:1.5;" x1="592" x2="769" y1="162.6356" y2="162.6356"/><line style="stroke:#A80036;stroke-width:1.5;" x1="592" x2="769" y1="170.6356" y2="170.6356"/><text fill="#000000" font-family="sans-serif" font-size="11" lengthAdjust="spacingAndGlyphs" textLength="112" x="597" y="184.8461">+onNestedScroll(...)</text><!--MD5=[f6864fda828613808eac52cf052d90fd]
class HideBottomViewOnScrollBehavior--><rect codeLine="22" fill="#FEFECE" filter="url(#fj3q7q0snuaqj)" height="73.6094" id="HideBottomViewOnScrollBehavior" style="stroke:#A80036;stroke-width:1.5;" width="333" x="435" y="270.6356"/><ellipse cx="450" cy="286.6356" fill="#ADD1B2" rx="11" ry="11" style="stroke:#A80036;stroke-width:1.0;"/><path d="M452.3438,282.3075 C451.4063,281.87 450.8125,281.7294 449.9375,281.7294 C447.3125,281.7294 445.3125,283.8075 445.3125,286.5263 L445.3125,287.6513 C445.3125,290.2294 447.4219,292.12 450.3125,292.12 C451.5313,292.12 452.6875,291.8231 453.4375,291.2763 C454.0156,290.87 454.3438,290.4169 454.3438,290.0263 C454.3438,289.5731 453.9531,289.1825 453.4844,289.1825 C453.2656,289.1825 453.0625,289.2606 452.875,289.4481 C452.4219,289.9325 452.4219,289.9325 452.2344,290.0263 C451.8125,290.2919 451.125,290.4169 450.3594,290.4169 C448.3125,290.4169 447.0156,289.3231 447.0156,287.62 L447.0156,286.5263 C447.0156,284.745 448.2656,283.4325 450,283.4325 C450.5781,283.4325 451.1875,283.5888 451.6563,283.8388 C452.1406,284.12 452.3125,284.3388 452.4063,284.745 C452.4688,285.1513 452.5,285.2763 452.6406,285.4013 C452.7813,285.5419 453.0156,285.6513 453.2344,285.6513 C453.5,285.6513 453.7656,285.5106 453.9375,285.2919 C454.0469,285.1356 454.0781,284.9481 454.0781,284.5263 L454.0781,283.1044 C454.0781,282.6669 454.0625,282.5419 453.9688,282.3856 C453.8125,282.12 453.5313,281.9794 453.2344,281.9794 C452.9375,281.9794 452.7344,282.0731 452.5156,282.3856 L452.3438,282.3075 Z " fill="#000000"/><ellipse cx="464" cy="286.1356" fill="#84BE84" rx="-2" ry="-2" style="stroke:#038048;stroke-width:1.0;"/><text fill="#000000" font-family="sans-serif" font-size="12" lengthAdjust="spacingAndGlyphs" textLength="204" x="465" y="290.7899">HideBottomViewOnScrollBehavior</text><rect fill="#FFFFFF" height="15.9688" style="stroke:#000000;stroke-width:1.0;stroke-dasharray:2.0,2.0;" width="94" x="677" y="267.6356"/><text fill="#000000" font-family="sans-serif" font-size="12" font-style="italic" lengthAdjust="spacingAndGlyphs" textLength="92" x="678" y="279.7743">V extends View</text><line style="stroke:#A80036;stroke-width:1.5;" x1="436" x2="767" y1="302.6356" y2="302.6356"/><line style="stroke:#A80036;stroke-width:1.5;" x1="436" x2="767" y1="310.6356" y2="310.6356"/><text fill="#000000" font-family="sans-serif" font-size="11" lengthAdjust="spacingAndGlyphs" textLength="67" x="441" y="324.8461">+slideUp(V)</text><text fill="#000000" font-family="sans-serif" font-size="11" lengthAdjust="spacingAndGlyphs" textLength="84" x="441" y="337.6508">+slideDown(V)</text><!--MD5=[ca7a8a00441821369125c43154978ae2]
class BottomAppBar--><rect codeLine="28" fill="#FEFECE" filter="url(#fj3q7q0snuaqj)" height="60.8047" id="BottomAppBar" style="stroke:#A80036;stroke-width:1.5;" width="291" x="137" y="130.6356"/><ellipse cx="234.25" cy="146.6356" fill="#ADD1B2" rx="11" ry="11" style="stroke:#A80036;stroke-width:1.0;"/><path d="M236.5938,142.3075 C235.6563,141.87 235.0625,141.7294 234.1875,141.7294 C231.5625,141.7294 229.5625,143.8075 229.5625,146.5263 L229.5625,147.6513 C229.5625,150.2294 231.6719,152.12 234.5625,152.12 C235.7813,152.12 236.9375,151.8231 237.6875,151.2763 C238.2656,150.87 238.5938,150.4169 238.5938,150.0263 C238.5938,149.5731 238.2031,149.1825 237.7344,149.1825 C237.5156,149.1825 237.3125,149.2606 237.125,149.4481 C236.6719,149.9325 236.6719,149.9325 236.4844,150.0263 C236.0625,150.2919 235.375,150.4169 234.6094,150.4169 C232.5625,150.4169 231.2656,149.3231 231.2656,147.62 L231.2656,146.5263 C231.2656,144.745 232.5156,143.4325 234.25,143.4325 C234.8281,143.4325 235.4375,143.5888 235.9063,143.8388 C236.3906,144.12 236.5625,144.3388 236.6563,144.745 C236.7188,145.1513 236.75,145.2763 236.8906,145.4013 C237.0313,145.5419 237.2656,145.6513 237.4844,145.6513 C237.75,145.6513 238.0156,145.5106 238.1875,145.2919 C238.2969,145.1356 238.3281,144.9481 238.3281,144.5263 L238.3281,143.1044 C238.3281,142.6669 238.3125,142.5419 238.2188,142.3856 C238.0625,142.12 237.7813,141.9794 237.4844,141.9794 C237.1875,141.9794 236.9844,142.0731 236.7656,142.3856 L236.5938,142.3075 Z " fill="#000000"/><ellipse cx="254.75" cy="146.1356" fill="#84BE84" rx="-2" ry="-2" style="stroke:#038048;stroke-width:1.0;"/><text fill="#000000" font-family="sans-serif" font-size="12" lengthAdjust="spacingAndGlyphs" textLength="87" x="255.75" y="150.7899">BottomAppBar</text><line style="stroke:#A80036;stroke-width:1.5;" x1="138" x2="427" y1="162.6356" y2="162.6356"/><line style="stroke:#A80036;stroke-width:1.5;" x1="138" x2="427" y1="170.6356" y2="170.6356"/><text fill="#000000" font-family="sans-serif" font-size="11" lengthAdjust="spacingAndGlyphs" textLength="279" x="143" y="184.8461">+getLayoutParams(): CoordinatorLayout.Behavior</text><!--MD5=[5eb7b6760882fab25c9fe8531e6eb963]
class BottomAppBar.Behavior--><rect codeLine="32" fill="#FEFECE" filter="url(#fj3q7q0snuaqj)" height="48" id="BottomAppBar.Behavior" style="stroke:#A80036;stroke-width:1.5;" width="268" x="148.5" y="421.6356"/><ellipse cx="163.5" cy="437.6356" fill="#ADD1B2" rx="11" ry="11" style="stroke:#A80036;stroke-width:1.0;"/><path d="M165.8438,433.3075 C164.9063,432.87 164.3125,432.7294 163.4375,432.7294 C160.8125,432.7294 158.8125,434.8075 158.8125,437.5263 L158.8125,438.6513 C158.8125,441.2294 160.9219,443.12 163.8125,443.12 C165.0313,443.12 166.1875,442.8231 166.9375,442.2763 C167.5156,441.87 167.8438,441.4169 167.8438,441.0263 C167.8438,440.5731 167.4531,440.1825 166.9844,440.1825 C166.7656,440.1825 166.5625,440.2606 166.375,440.4481 C165.9219,440.9325 165.9219,440.9325 165.7344,441.0263 C165.3125,441.2919 164.625,441.4169 163.8594,441.4169 C161.8125,441.4169 160.5156,440.3231 160.5156,438.62 L160.5156,437.5263 C160.5156,435.745 161.7656,434.4325 163.5,434.4325 C164.0781,434.4325 164.6875,434.5888 165.1563,434.8388 C165.6406,435.12 165.8125,435.3388 165.9063,435.745 C165.9688,436.1513 166,436.2763 166.1406,436.4013 C166.2813,436.5419 166.5156,436.6513 166.7344,436.6513 C167,436.6513 167.2656,436.5106 167.4375,436.2919 C167.5469,436.1356 167.5781,435.9481 167.5781,435.5263 L167.5781,434.1044 C167.5781,433.6669 167.5625,433.5419 167.4688,433.3856 C167.3125,433.12 167.0313,432.9794 166.7344,432.9794 C166.4375,432.9794 166.2344,433.0731 166.0156,433.3856 L165.8438,433.3075 Z " fill="#000000"/><ellipse cx="177.5" cy="437.1356" fill="#84BE84" rx="-2" ry="-2" style="stroke:#038048;stroke-width:1.0;"/><text fill="#000000" font-family="sans-serif" font-size="12" lengthAdjust="spacingAndGlyphs" textLength="143" x="178.5" y="441.7899">BottomAppBar.Behavior</text><rect fill="#FFFFFF" height="15.9688" style="stroke:#000000;stroke-width:1.0;stroke-dasharray:2.0,2.0;" width="90" x="329.5" y="418.6356"/><text fill="#000000" font-family="sans-serif" font-size="12" font-style="italic" lengthAdjust="spacingAndGlyphs" textLength="88" x="330.5" y="430.7743">BottomAppBar</text><line style="stroke:#A80036;stroke-width:1.5;" x1="149.5" x2="415.5" y1="453.6356" y2="453.6356"/><line style="stroke:#A80036;stroke-width:1.5;" x1="149.5" x2="415.5" y1="461.6356" y2="461.6356"/><!--MD5=[1a21bd80a42728920b9c8bf9afb825b9]
class HideListenableBottomAppBarBehavior--><rect codeLine="36" fill="#FFFF66" filter="url(#fj3q7q0snuaqj)" height="73.6094" id="HideListenableBottomAppBarBehavior" style="stroke:#A80036;stroke-width:1.5;" width="261" x="7" y="530.6356"/><ellipse cx="22" cy="546.6356" fill="#A9DCDF" rx="11" ry="11" style="stroke:#A80036;stroke-width:1.0;"/><path d="M24.0781,548.4481 L24.4688,549.4325 L24.0781,549.4325 C23.625,549.4325 23.5156,549.4481 23.3594,549.5575 C23.1094,549.7138 22.9531,549.995 22.9531,550.2919 C22.9531,550.5575 23.0938,550.8075 23.3125,550.9638 C23.4531,551.0888 23.6563,551.1356 24.0781,551.1356 L26.4375,551.1356 C26.7969,551.1356 27.0156,551.1044 27.1563,551.0106 C27.4063,550.87 27.5625,550.5731 27.5625,550.2919 C27.5625,550.0106 27.4219,549.7606 27.2031,549.6044 C27.0313,549.4638 26.875,549.4325 26.4063,549.4325 L23.0156,541.2294 L19.3438,541.2294 C18.8906,541.2294 18.7656,541.245 18.6094,541.3388 C18.3594,541.5106 18.2031,541.7919 18.2031,542.0731 C18.2031,542.3544 18.3438,542.6044 18.5625,542.7763 C18.7344,542.8856 18.9063,542.9169 19.3438,542.9169 L20.4219,542.9169 L17.7813,549.4325 C17.3594,549.4325 17.2031,549.4481 17.0469,549.5575 C16.7969,549.7138 16.6406,549.995 16.6406,550.2919 C16.6406,550.8544 17.0156,551.1356 17.7656,551.1356 L20.0313,551.1356 C20.3906,551.1356 20.6094,551.1044 20.7344,551.0106 C21,550.87 21.1406,550.5731 21.1406,550.2919 C21.1406,550.0106 21.0156,549.7606 20.7969,549.5888 C20.625,549.4638 20.4844,549.4325 20.0313,549.4325 L19.6406,549.4325 L20.0313,548.4481 L24.0781,548.4481 Z M23.375,546.745 L20.7031,546.745 L22.0469,543.4794 L23.375,546.745 Z " fill="#000000"/><ellipse cx="36" cy="546.1356" fill="#84BE84" rx="-2" ry="-2" style="stroke:#038048;stroke-width:1.0;"/><text fill="#000000" font-family="sans-serif" font-size="12" font-style="italic" lengthAdjust="spacingAndGlyphs" textLength="228" x="37" y="550.7899">HideListenableBottomAppBarBehavior</text><line style="stroke:#A80036;stroke-width:1.5;" x1="8" x2="267" y1="562.6356" y2="562.6356"/><line style="stroke:#A80036;stroke-width:1.5;" x1="8" x2="267" y1="570.6356" y2="570.6356"/><text fill="#000000" font-family="sans-serif" font-size="11" font-style="italic" lengthAdjust="spacingAndGlyphs" textLength="89" x="13" y="584.8461">+onSlideDown()</text><text fill="#000000" font-family="sans-serif" font-size="11" font-style="italic" lengthAdjust="spacingAndGlyphs" textLength="73" x="13" y="597.6508">+onSlideUp()</text><path d="M303.5,555.1356 L303.5,563.6356 L268.426,567.6356 L303.5,571.6356 L303.5,580.2684 A0,0 0 0 0 303.5,580.2684 L455.5,580.2684 A0,0 0 0 0 455.5,580.2684 L455.5,565.1356 L445.5,555.1356 L303.5,555.1356 A0,0 0 0 0 303.5,555.1356 " fill="#FBFB77" filter="url(#fj3q7q0snuaqj)" style="stroke:#A80036;stroke-width:1.0;"/><path d="M445.5,555.1356 L445.5,565.1356 L455.5,565.1356 L445.5,555.1356 " fill="#FBFB77" style="stroke:#A80036;stroke-width:1.0;"/><text fill="#000000" font-family="sans-serif" font-size="13" lengthAdjust="spacingAndGlyphs" textLength="131" x="309.5" y="572.2025">Nasz własny listener</text><!--MD5=[c881b25adf3665c6568c9693d41a70f3]
class Activity--><rect codeLine="44" fill="#FEFECE" filter="url(#fj3q7q0snuaqj)" height="53.9375" id="Activity" style="stroke:#A80036;stroke-width:1.5;" width="89" x="13" y="134.1356"/><ellipse cx="28" cy="153.1044" fill="#ADD1B2" rx="11" ry="11" style="stroke:#A80036;stroke-width:1.0;"/><path d="M30.3438,148.7763 C29.4063,148.3388 28.8125,148.1981 27.9375,148.1981 C25.3125,148.1981 23.3125,150.2763 23.3125,152.995 L23.3125,154.12 C23.3125,156.6981 25.4219,158.5888 28.3125,158.5888 C29.5313,158.5888 30.6875,158.2919 31.4375,157.745 C32.0156,157.3388 32.3438,156.8856 32.3438,156.495 C32.3438,156.0419 31.9531,155.6513 31.4844,155.6513 C31.2656,155.6513 31.0625,155.7294 30.875,155.9169 C30.4219,156.4013 30.4219,156.4013 30.2344,156.495 C29.8125,156.7606 29.125,156.8856 28.3594,156.8856 C26.3125,156.8856 25.0156,155.7919 25.0156,154.0888 L25.0156,152.995 C25.0156,151.2138 26.2656,149.9013 28,149.9013 C28.5781,149.9013 29.1875,150.0575 29.6563,150.3075 C30.1406,150.5888 30.3125,150.8075 30.4063,151.2138 C30.4688,151.62 30.5,151.745 30.6406,151.87 C30.7813,152.0106 31.0156,152.12 31.2344,152.12 C31.5,152.12 31.7656,151.9794 31.9375,151.7606 C32.0469,151.6044 32.0781,151.4169 32.0781,150.995 L32.0781,149.5731 C32.0781,149.1356 32.0625,149.0106 31.9688,148.8544 C31.8125,148.5888 31.5313,148.4481 31.2344,148.4481 C30.9375,148.4481 30.7344,148.5419 30.5156,148.8544 L30.3438,148.7763 Z " fill="#000000"/><text fill="#000000" font-family="sans-serif" font-size="12" lengthAdjust="spacingAndGlyphs" textLength="47" x="47" y="150.2743">Activity/</text><text fill="#000000" font-family="sans-serif" font-size="12" lengthAdjust="spacingAndGlyphs" textLength="57" x="42" y="164.243">Fragment</text><line style="stroke:#A80036;stroke-width:1.5;" x1="14" x2="101" y1="172.0731" y2="172.0731"/><line style="stroke:#A80036;stroke-width:1.5;" x1="14" x2="101" y1="180.0731" y2="180.0731"/><!--MD5=[c281e0e625cbd35243d55910a1c01d00]
reverse link CoordinatorLayout.Behavior to HideBottomViewOnScrollBehavior--><path d="M654.714,209.3006 C643.854,229.1646 631.416,251.9166 621.296,270.4256 " fill="none" id="CoordinatorLayout.Behavior-backto-HideBottomViewOnScrollBehavior" style="stroke:#A80036;stroke-width:1.0;"/><polygon fill="none" points="648.586,205.9166,664.323,191.7256,660.87,212.6326,648.586,205.9166" style="stroke:#A80036;stroke-width:1.0;"/><!--MD5=[e1d12715f07a408760ed175c046f4c31]
reverse link HideBottomViewOnScrollBehavior to BottomAppBar.Behavior--><path d="M498.302,352.6326 C444.571,375.5396 381.06,402.6166 336.909,421.4396 " fill="none" id="HideBottomViewOnScrollBehavior-backto-BottomAppBar.Behavior" style="stroke:#A80036;stroke-width:1.0;"/><polygon fill="none" points="495.708,346.1286,516.851,344.7236,501.199,359.0066,495.708,346.1286" style="stroke:#A80036;stroke-width:1.0;"/><!--MD5=[e0adb8371f990b5c5958ac9431edb82c]
reverse link BottomAppBar.Behavior to HideListenableBottomAppBarBehavior--><path d="M239.031,482.6096 C220.701,497.7796 199.406,515.4029 181.066,530.5808 " fill="none" id="BottomAppBar.Behavior-backto-HideListenableBottomAppBarBehavior" style="stroke:#A80036;stroke-width:1.0;"/><polygon fill="none" points="234.672,477.1316,254.543,469.7726,243.598,487.9166,234.672,477.1316" style="stroke:#A80036;stroke-width:1.0;"/><!--MD5=[05039e6fe6818e3613e972f9db614749]
link Activity to HideListenableBottomAppBarBehavior--><path codeLine="46" d="M62.6874,188.3646 C76.5544,258.4796 114.503,450.3586 130.374,530.6059 " fill="none" id="Activity-HideListenableBottomAppBarBehavior" style="stroke:#A80036;stroke-width:1.0;"/><polygon fill="#000000" points="109.4701,388.107,110.5983,378.6636,104.8321,379.804,109.4701,388.107" style="stroke:#000000;stroke-width:1.0;"/><text fill="#000000" font-family="sans-serif" font-size="13" lengthAdjust="spacingAndGlyphs" textLength="64" x="117.5" y="387.7025">inicjalizuje</text><!--MD5=[5cebfff8ced92b09e131e3d6a3bba31c]
link Activity to CoordinatorLayout.LayoutParams--><path codeLine="47" d="M64.9176,133.6706 C73.4463,108.1036 90.1951,71.4846 119.5,54.6356 C183.845,17.6406 716.97,31.5166 787.5,54.6356 C832.911,69.5206 875.835,104.6546 903.024,130.5166 " fill="none" id="Activity-CoordinatorLayout.LayoutParams" style="stroke:#A80036;stroke-width:1.0;"/><polygon fill="#000000" points="680.5,36.2208,689.5561,39.1257,689.534,33.2479,680.5,36.2208" style="stroke:#000000;stroke-width:1.0;"/><text fill="#000000" font-family="sans-serif" font-size="13" lengthAdjust="spacingAndGlyphs" textLength="101" x="694.5" y="40.7025">zwracany przez</text><!--MD5=[e3fd3b72cef8f8bcf8e94f59d7fd68a8]
link BottomAppBar to CoordinatorLayout.LayoutParams--><path codeLine="49" d="M338.139,130.5466 C388.875,104.5126 466.789,69.1046 539.5,54.6356 C647.603,33.1236 682.761,20.3036 787.5,54.6356 C832.911,69.5206 875.835,104.6546 903.024,130.5166 " fill="none" id="BottomAppBar-CoordinatorLayout.LayoutParams" style="stroke:#A80036;stroke-width:1.0;"/><polygon fill="#000000" points="445.5,36.2018,436.4548,33.2633,436.4551,39.1412,445.5,36.2018" style="stroke:#000000;stroke-width:1.0;"/><text fill="#000000" font-family="sans-serif" font-size="13" lengthAdjust="spacingAndGlyphs" textLength="209" x="449.5" y="40.7025">zastępuje domyślne zachowanie</text><!--MD5=[e89fa0af7a5cdc406cc659388aec9092]
link BottomAppBar to CoordinatorLayout--><path codeLine="50" d="M428.192,161.1356 C459.1935,161.1356 489.5598,161.1356 512.8555,161.1356 C524.5034,161.1356 534.3836,161.1356 541.6918,161.1356 C543.5189,161.1356 545.1852,161.1356 546.6782,161.1356 C546.8648,161.1356 547.0487,161.1356 547.2299,161.1356 C547.3205,161.1356 547.4104,161.1356 547.4996,161.1356 " fill="none" id="BottomAppBar-CoordinatorLayout" style="stroke:#A80036;stroke-width:1.0;"/><polygon fill="#000000" points="455.07,149.702,446.0249,146.7631,446.0249,152.641,455.07,149.702" style="stroke:#000000;stroke-width:1.0;"/><text fill="#000000" font-family="sans-serif" font-size="13" lengthAdjust="spacingAndGlyphs" textLength="78" x="459.07" y="154.2025">jako dziecko</text><!--MD5=[5763bead1c922e15a4ba1312cf4b292f]
link BottomAppBar to BottomAppBar.Behavior--><path codeLine="51" d="M282.5,191.8346 C282.5,248.3576 282.5,370.3106 282.5,421.3886 " fill="none" id="BottomAppBar-BottomAppBar.Behavior" style="stroke:#A80036;stroke-width:1.0;"/><text fill="#000000" font-family="sans-serif" font-size="13" lengthAdjust="spacingAndGlyphs" textLength="88" x="284" y="304.7025">ma domyślne</text><polygon fill="#000000" points="288.5,320.3348,291.4389,311.2898,285.5611,311.2898,288.5,320.3348" style="stroke:#000000;stroke-width:1.0;"/><text fill="#000000" font-family="sans-serif" font-size="13" lengthAdjust="spacingAndGlyphs" textLength="76" x="296.5" y="319.8353">zachowanie</text><text fill="#888888" font-family="sans-serif" font-size="10" lengthAdjust="spacingAndGlyphs" textLength="438" x="325.25" y="626.5272">Przykładowy sposób podpięcia się pod zdarzenia ukrywania paska BottomAppBar</text><!--MD5=[9ed032ff30de5fff35cd89e1690e954a]
@startuml
header
Hierarchia klas BottomAppBar + Behavior
endheader

footer
Przykładowy sposób podpięcia się pod zdarzenia ukrywania paska BottomAppBar
endfooter

skinparam classAttributeIconSize 0



+class CoordinatorLayout.LayoutParams {
  +setBehavior(CoordinatorLayout.Behavior)
}

+abstract class CoordinatorLayout.Behavior<? extends View> {
  +onNestedScroll(...)
}


+class HideBottomViewOnScrollBehavior<V extends View> extends CoordinatorLayout.Behavior { 
  +slideUp(V)
  +slideDown(V)
}


+class BottomAppBar {
   +getLayoutParams(): CoordinatorLayout.Behavior
}

+class BottomAppBar.Behavior<BottomAppBar> extends HideBottomViewOnScrollBehavior {
}


+abstract class HideListenableBottomAppBarBehavior #FFFF66 extends BottomAppBar.Behavior {
    +{abstract} onSlideDown()
    +{abstract} onSlideUp()
}

note right of HideListenableBottomAppBarBehavior: Nasz własny listener


class "Activity/\nFragment" as Activity

Activity - HideListenableBottomAppBarBehavior: inicjalizuje >
Activity - CoordinatorLayout.LayoutParams: zwracany przez <

BottomAppBar - CoordinatorLayout.LayoutParams: zastępuje domyślne zachowanie >
BottomAppBar - CoordinatorLayout: jako dziecko >
BottomAppBar - BottomAppBar.Behavior: ma domyślne\nzachowanie >
@enduml

PlantUML version 1.2020.22(Sun Dec 06 09:36:27 UTC 2020)
(GPL source distribution)
Java Runtime: Java(TM) SE Runtime Environment
JVM: Java HotSpot(TM) 64-Bit Server VM
Default Encoding: UTF-8
Language: en
Country: US
--></g></svg>