<?xml version="1.0" encoding="UTF-8" standalone="no"?>
<!DOCTYPE svg PUBLIC "-//W3C//DTD SVG 1.1//EN"
 "http://www.w3.org/Graphics/SVG/1.1/DTD/svg11.dtd">
<!-- Generated by graphviz version 2.38.0 (20140413.2041)
 -->
<!-- Title: foo Pages: 1 -->
<svg width="304pt" height="258pt"
 viewBox="0.00 0.00 304.00 258.00" xmlns="http://www.w3.org/2000/svg" xmlns:xlink="http://www.w3.org/1999/xlink">
<g id="graph0" class="graph" transform="scale(1 1) rotate(0) translate(4 254)">
<title>foo</title>
<polygon fill="white" stroke="none" points="-4,4 -4,-254 300,-254 300,4 -4,4"/>
<g id="clust1" class="cluster"><title>cluster_0</title>
<polygon fill="gold" stroke="gold" points="8,-8 8,-242 132,-242 132,-8 8,-8"/>
<text text-anchor="middle" x="70" y="-226.8" font-family="Times,serif" font-size="14.00">Compile time</text>
</g>
<g id="clust2" class="cluster"><title>cluster_1</title>
<polygon fill="#ffc125" stroke="#ffc125" points="164,-8 164,-242 288,-242 288,-8 164,-8"/>
<text text-anchor="middle" x="226" y="-226.8" font-family="Times,serif" font-size="14.00">Run time</text>
</g>
<!-- .java file -->
<g id="node1" class="node"><title>.java file</title>
<polygon fill="white" stroke="white" points="124,-211 16,-211 16,-139 124,-139 124,-211"/>
<text text-anchor="middle" x="70" y="-171.3" font-family="Times,serif" font-size="14.00">.java file</text>
</g>
<!-- .class file -->
<g id="node2" class="node"><title>.class file</title>
<polygon fill="white" stroke="white" points="124,-88 16,-88 16,-16 124,-16 124,-88"/>
<text text-anchor="middle" x="70" y="-48.3" font-family="Times,serif" font-size="14.00">.class file</text>
</g>
<!-- .java file&#45;&gt;.class file -->
<g id="edge1" class="edge"><title>.java file&#45;&gt;.class file</title>
<path fill="none" stroke="black" d="M70,-138.677C70,-126.127 70,-111.819 70,-98.5367"/>
<polygon fill="black" stroke="black" points="73.5001,-98.1582 70,-88.1582 66.5001,-98.1582 73.5001,-98.1582"/>
<text text-anchor="middle" x="91.5" y="-109.8" font-family="Times,serif" font-size="14.00"> javac</text>
</g>
<!-- ClassLoader -->
<g id="node4" class="node"><title>ClassLoader</title>
<polygon fill="white" stroke="white" points="280,-88 172,-88 172,-16 280,-16 280,-88"/>
<text text-anchor="middle" x="226" y="-48.3" font-family="Times,serif" font-size="14.00">ClassLoader</text>
</g>
<!-- .class file&#45;&gt;ClassLoader -->
<g id="edge3" class="edge"><title>.class file&#45;&gt;ClassLoader</title>
<path fill="none" stroke="black" d="M124.123,-52C136.224,-52 149.172,-52 161.641,-52"/>
<polygon fill="black" stroke="black" points="161.972,-55.5001 171.972,-52 161.972,-48.5001 161.972,-55.5001"/>
<text text-anchor="middle" x="148" y="-58.8" font-family="Times,serif" font-size="14.00">java</text>
</g>
<!-- Native code -->
<g id="node3" class="node"><title>Native code</title>
<polygon fill="white" stroke="white" points="280,-211 172,-211 172,-139 280,-139 280,-211"/>
<text text-anchor="middle" x="226" y="-171.3" font-family="Times,serif" font-size="14.00">Native code</text>
</g>
<!-- Native code&#45;&gt;ClassLoader -->
<g id="edge2" class="edge"><title>Native code&#45;&gt;ClassLoader</title>
<path fill="none" stroke="black" d="M226,-128.288C226,-114.997 226,-100.692 226,-88.1582"/>
<polygon fill="black" stroke="black" points="222.5,-128.676 226,-138.677 229.5,-128.677 222.5,-128.676"/>
<text text-anchor="middle" x="244.5" y="-109.8" font-family="Times,serif" font-size="14.00"> JITC</text>
</g>
</g>
</svg>
