<?xml version="1.0" encoding="UTF-8" standalone="no"?><svg xmlns="http://www.w3.org/2000/svg" xmlns:xlink="http://www.w3.org/1999/xlink" contentScriptType="application/ecmascript" contentStyleType="text/css" height="107px" preserveAspectRatio="none" style="width:577px;height:107px;" version="1.1" viewBox="0 0 577 107" width="577px" zoomAndPan="magnify"><rect width="100%" height="100%" fill="white" /><defs><filter height="300%" id="f1rwz1ptol4gaq" width="300%" x="-1" y="-1"><feGaussianBlur result="blurOut" stdDeviation="2.0"/><feColorMatrix in="blurOut" result="blurOut2" type="matrix" values="0 0 0 0 0 0 0 0 0 0 0 0 0 0 0 0 0 0 .4 0"/><feOffset dx="4.0" dy="4.0" in="blurOut2" result="blurOut3"/><feBlend in="SourceGraphic" in2="blurOut3" mode="normal"/></filter></defs><g><!--MD5=[2ce0c9fb7f55b1e256ab28a8ea6b25ec]
class Customer--><rect codeLine="1" fill="#FEFECE" filter="url(#f1rwz1ptol4gaq)" height="86.4141" id="Customer" style="stroke:#A80036;stroke-width:1.5;" width="125" x="7" y="7"/><ellipse cx="37.75" cy="23" fill="#ADD1B2" rx="11" ry="11" style="stroke:#A80036;stroke-width:1.0;"/><path d="M40.0938,18.6719 C39.1563,18.2344 38.5625,18.0938 37.6875,18.0938 C35.0625,18.0938 33.0625,20.1719 33.0625,22.8906 L33.0625,24.0156 C33.0625,26.5938 35.1719,28.4844 38.0625,28.4844 C39.2813,28.4844 40.4375,28.1875 41.1875,27.6406 C41.7656,27.2344 42.0938,26.7813 42.0938,26.3906 C42.0938,25.9375 41.7031,25.5469 41.2344,25.5469 C41.0156,25.5469 40.8125,25.625 40.625,25.8125 C40.1719,26.2969 40.1719,26.2969 39.9844,26.3906 C39.5625,26.6563 38.875,26.7813 38.1094,26.7813 C36.0625,26.7813 34.7656,25.6875 34.7656,23.9844 L34.7656,22.8906 C34.7656,21.1094 36.0156,19.7969 37.75,19.7969 C38.3281,19.7969 38.9375,19.9531 39.4063,20.2031 C39.8906,20.4844 40.0625,20.7031 40.1563,21.1094 C40.2188,21.5156 40.25,21.6406 40.3906,21.7656 C40.5313,21.9063 40.7656,22.0156 40.9844,22.0156 C41.25,22.0156 41.5156,21.875 41.6875,21.6563 C41.7969,21.5 41.8281,21.3125 41.8281,20.8906 L41.8281,19.4688 C41.8281,19.0313 41.8125,18.9063 41.7188,18.75 C41.5625,18.4844 41.2813,18.3438 40.9844,18.3438 C40.6875,18.3438 40.4844,18.4375 40.2656,18.75 L40.0938,18.6719 Z " fill="#000000"/><text fill="#000000" font-family="sans-serif" font-size="12" lengthAdjust="spacing" textLength="58" x="55.25" y="27.1543">Customer</text><line style="stroke:#A80036;stroke-width:1.5;" x1="8" x2="131" y1="39" y2="39"/><ellipse cx="18" cy="50" rx="3" ry="3" style="stroke:#038048;stroke-width:1.0;fill:none;"/><text fill="#000000" font-family="sans-serif" font-size="11" lengthAdjust="spacing" textLength="48" x="27" y="53.2104">id : Long</text><ellipse cx="18" cy="62.8047" rx="3" ry="3" style="stroke:#038048;stroke-width:1.0;fill:none;"/><text fill="#000000" font-family="sans-serif" font-size="11" lengthAdjust="spacing" textLength="99" x="27" y="66.0151">firstName : String</text><ellipse cx="18" cy="75.6094" rx="3" ry="3" style="stroke:#038048;stroke-width:1.0;fill:none;"/><text fill="#000000" font-family="sans-serif" font-size="11" lengthAdjust="spacing" textLength="98" x="27" y="78.8198">lastName : String</text><line style="stroke:#A80036;stroke-width:1.5;" x1="8" x2="131" y1="85.4141" y2="85.4141"/><!--MD5=[cf4d6237fcae255cd2e1656cf84a30e2]
class Order--><rect codeLine="8" fill="#FEFECE" filter="url(#f1rwz1ptol4gaq)" height="86.4141" id="Order" style="stroke:#A80036;stroke-width:1.5;" width="127" x="223" y="7"/><ellipse cx="264.55" cy="23" fill="#ADD1B2" rx="11" ry="11" style="stroke:#A80036;stroke-width:1.0;"/><path d="M266.8938,18.6719 C265.9563,18.2344 265.3625,18.0938 264.4875,18.0938 C261.8625,18.0938 259.8625,20.1719 259.8625,22.8906 L259.8625,24.0156 C259.8625,26.5938 261.9719,28.4844 264.8625,28.4844 C266.0813,28.4844 267.2375,28.1875 267.9875,27.6406 C268.5656,27.2344 268.8938,26.7813 268.8938,26.3906 C268.8938,25.9375 268.5031,25.5469 268.0344,25.5469 C267.8156,25.5469 267.6125,25.625 267.425,25.8125 C266.9719,26.2969 266.9719,26.2969 266.7844,26.3906 C266.3625,26.6563 265.675,26.7813 264.9094,26.7813 C262.8625,26.7813 261.5656,25.6875 261.5656,23.9844 L261.5656,22.8906 C261.5656,21.1094 262.8156,19.7969 264.55,19.7969 C265.1281,19.7969 265.7375,19.9531 266.2063,20.2031 C266.6906,20.4844 266.8625,20.7031 266.9563,21.1094 C267.0188,21.5156 267.05,21.6406 267.1906,21.7656 C267.3313,21.9063 267.5656,22.0156 267.7844,22.0156 C268.05,22.0156 268.3156,21.875 268.4875,21.6563 C268.5969,21.5 268.6281,21.3125 268.6281,20.8906 L268.6281,19.4688 C268.6281,19.0313 268.6125,18.9063 268.5188,18.75 C268.3625,18.4844 268.0813,18.3438 267.7844,18.3438 C267.4875,18.3438 267.2844,18.4375 267.0656,18.75 L266.8938,18.6719 Z " fill="#000000"/><text fill="#000000" font-family="sans-serif" font-size="12" lengthAdjust="spacing" textLength="36" x="284.45" y="27.1543">Order</text><line style="stroke:#A80036;stroke-width:1.5;" x1="224" x2="349" y1="39" y2="39"/><ellipse cx="234" cy="50" rx="3" ry="3" style="stroke:#038048;stroke-width:1.0;fill:none;"/><text fill="#000000" font-family="sans-serif" font-size="11" lengthAdjust="spacing" textLength="48" x="243" y="53.2104">id : Long</text><ellipse cx="234" cy="62.8047" rx="3" ry="3" style="stroke:#038048;stroke-width:1.0;fill:none;"/><text fill="#000000" font-family="sans-serif" font-size="11" lengthAdjust="spacing" textLength="101" x="243" y="66.0151">customerId : Long</text><ellipse cx="234" cy="75.6094" rx="3" ry="3" style="stroke:#038048;stroke-width:1.0;fill:none;"/><text fill="#000000" font-family="sans-serif" font-size="11" lengthAdjust="spacing" textLength="90" x="243" y="78.8198">productId : Long</text><line style="stroke:#A80036;stroke-width:1.5;" x1="224" x2="349" y1="85.4141" y2="85.4141"/><!--MD5=[72136138052d025cffdce3c22fbd185f]
class Product--><rect codeLine="15" fill="#FEFECE" filter="url(#f1rwz1ptol4gaq)" height="86.4141" id="Product" style="stroke:#A80036;stroke-width:1.5;" width="110" x="453.5" y="7"/><ellipse cx="483.35" cy="23" fill="#ADD1B2" rx="11" ry="11" style="stroke:#A80036;stroke-width:1.0;"/><path d="M485.6938,18.6719 C484.7563,18.2344 484.1625,18.0938 483.2875,18.0938 C480.6625,18.0938 478.6625,20.1719 478.6625,22.8906 L478.6625,24.0156 C478.6625,26.5938 480.7719,28.4844 483.6625,28.4844 C484.8813,28.4844 486.0375,28.1875 486.7875,27.6406 C487.3656,27.2344 487.6938,26.7813 487.6938,26.3906 C487.6938,25.9375 487.3031,25.5469 486.8344,25.5469 C486.6156,25.5469 486.4125,25.625 486.225,25.8125 C485.7719,26.2969 485.7719,26.2969 485.5844,26.3906 C485.1625,26.6563 484.475,26.7813 483.7094,26.7813 C481.6625,26.7813 480.3656,25.6875 480.3656,23.9844 L480.3656,22.8906 C480.3656,21.1094 481.6156,19.7969 483.35,19.7969 C483.9281,19.7969 484.5375,19.9531 485.0063,20.2031 C485.4906,20.4844 485.6625,20.7031 485.7563,21.1094 C485.8188,21.5156 485.85,21.6406 485.9906,21.7656 C486.1313,21.9063 486.3656,22.0156 486.5844,22.0156 C486.85,22.0156 487.1156,21.875 487.2875,21.6563 C487.3969,21.5 487.4281,21.3125 487.4281,20.8906 L487.4281,19.4688 C487.4281,19.0313 487.4125,18.9063 487.3188,18.75 C487.1625,18.4844 486.8813,18.3438 486.5844,18.3438 C486.2875,18.3438 486.0844,18.4375 485.8656,18.75 L485.6938,18.6719 Z " fill="#000000"/><text fill="#000000" font-family="sans-serif" font-size="12" lengthAdjust="spacing" textLength="45" x="500.65" y="27.1543">Product</text><line style="stroke:#A80036;stroke-width:1.5;" x1="454.5" x2="562.5" y1="39" y2="39"/><ellipse cx="464.5" cy="50" rx="3" ry="3" style="stroke:#038048;stroke-width:1.0;fill:none;"/><text fill="#000000" font-family="sans-serif" font-size="11" lengthAdjust="spacing" textLength="48" x="473.5" y="53.2104">id : Long</text><ellipse cx="464.5" cy="62.8047" rx="3" ry="3" style="stroke:#038048;stroke-width:1.0;fill:none;"/><text fill="#000000" font-family="sans-serif" font-size="11" lengthAdjust="spacing" textLength="77" x="473.5" y="66.0151">name : String</text><ellipse cx="464.5" cy="75.6094" rx="3" ry="3" style="stroke:#038048;stroke-width:1.0;fill:none;"/><text fill="#000000" font-family="sans-serif" font-size="11" lengthAdjust="spacing" textLength="84" x="473.5" y="78.8198">rating : Double</text><line style="stroke:#A80036;stroke-width:1.5;" x1="454.5" x2="562.5" y1="85.4141" y2="85.4141"/><!--MD5=[135794f54b59c9e5883929d048383f81]
link Customer to Order--><path codeLine="21" d="M132.265,50 C156.462,50 184.373,50 209.744,50 " fill="none" id="Customer-to-Order" style="stroke:#A80036;stroke-width:1.0;"/><polygon fill="#A80036" points="222.747,50,216.747,46,210.747,50,216.747,54,222.747,50" style="stroke:#A80036;stroke-width:1.0;"/><polygon fill="#000000" points="159.5,38.5664,150.4549,35.6275,150.4549,41.5053,159.5,38.5664" style="stroke:#000000;stroke-width:1.0;"/><text fill="#000000" font-family="sans-serif" font-size="13" lengthAdjust="spacing" textLength="41" x="163.5" y="43.0669">places</text><!--MD5=[e9f19b7cb7fceb8a230391eb3c9865e3]
reverse link Order to Product--><path codeLine="22" d="M363.403,50 C392.941,50 426.048,50 453.171,50 " fill="none" id="Order-backto-Product" style="stroke:#A80036;stroke-width:1.0;"/><polygon fill="#A80036" points="350.116,50,356.116,54,362.116,50,356.116,46,350.116,50" style="stroke:#A80036;stroke-width:1.0;"/><polygon fill="#000000" points="377.25,38.5664,368.2049,35.6275,368.2049,41.5053,377.25,38.5664" style="stroke:#000000;stroke-width:1.0;"/><text fill="#000000" font-family="sans-serif" font-size="13" lengthAdjust="spacing" textLength="54" x="381.25" y="43.0669">contains</text><!--MD5=[277f220a9ff972cc903fcae6b3c514dd]
@startuml
class Customer {
+ id : Long
+ firstName : String
+ lastName : String
}


class Order {
+ id : Long
+ customerId : Long
+ productId : Long
}


class Product {
+ id : Long
+ name : String
+ rating : Double
}

Customer -* Order : places >
Order *- Product : contains >
@enduml

PlantUML version 1.2021.5beta3(Unknown compile time)
(GPL source distribution)
Java Runtime: Java(TM) SE Runtime Environment
JVM: Java HotSpot(TM) 64-Bit Server VM
Default Encoding: UTF-8
Language: en
Country: US
--></g></svg>