<?xml version="1.0" encoding="UTF-8" standalone="no"?><svg xmlns="http://www.w3.org/2000/svg" xmlns:xlink="http://www.w3.org/1999/xlink" contentScriptType="application/ecmascript" contentStyleType="text/css" height="639px" preserveAspectRatio="none" style="width:710px;height:639px;" version="1.1" viewBox="0 0 710 639" width="710px" zoomAndPan="magnify"><defs><filter height="300%" id="f19pftvq5xuxrq" width="300%" x="-1" y="-1"><feGaussianBlur result="blurOut" stdDeviation="2.0"/><feColorMatrix in="blurOut" result="blurOut2" type="matrix" values="0 0 0 0 0 0 0 0 0 0 0 0 0 0 0 0 0 0 .4 0"/><feOffset dx="4.0" dy="4.0" in="blurOut2" result="blurOut3"/><feBlend in="SourceGraphic" in2="blurOut3" mode="normal"/></filter></defs><g><ellipse cx="99.5" cy="48.6982" fill="#000000" filter="url(#f19pftvq5xuxrq)" rx="10" ry="10" style="stroke: none; stroke-width: 1.0;"/><rect fill="#FEFECE" filter="url(#f19pftvq5xuxrq)" height="47.9375" rx="12.5" ry="12.5" style="stroke: #A80036; stroke-width: 1.5;" width="151" x="24" y="132.667"/><text fill="#000000" font-family="sans-serif" font-size="12" lengthAdjust="spacingAndGlyphs" textLength="131" x="34" y="153.8057">Utwórz lub zaktualizuj</text><text fill="#000000" font-family="sans-serif" font-size="12" lengthAdjust="spacingAndGlyphs" textLength="83" x="58" y="167.7744">pull requesta</text><rect fill="#FEFECE" filter="url(#f19pftvq5xuxrq)" height="33.9688" rx="12.5" ry="12.5" style="stroke: #A80036; stroke-width: 1.5;" width="115" x="42" y="432.3545"/><text fill="#000000" font-family="sans-serif" font-size="12" lengthAdjust="spacingAndGlyphs" textLength="95" x="52" y="453.4932">Sprawdź status</text><rect fill="#FEFECE" filter="url(#f19pftvq5xuxrq)" height="33.9688" rx="12.5" ry="12.5" style="stroke: #A80036; stroke-width: 1.5;" width="138" x="30.5" y="78.6982"/><text fill="#000000" font-family="sans-serif" font-size="12" lengthAdjust="spacingAndGlyphs" textLength="118" x="40.5" y="99.8369">Dodaj nowe zmiany</text><polygon fill="#FEFECE" filter="url(#f19pftvq5xuxrq)" points="76.5,486.3232,122.5,486.3232,134.5,498.3232,122.5,510.3232,76.5,510.3232,64.5,498.3232,76.5,486.3232" style="stroke: #A80036; stroke-width: 1.5;"/><text fill="#000000" font-family="sans-serif" font-size="11" lengthAdjust="spacingAndGlyphs" textLength="46" x="76.5" y="502.1313">sukces?</text><text fill="#000000" font-family="sans-serif" font-size="11" lengthAdjust="spacingAndGlyphs" textLength="17" x="134.5" y="495.729">nie</text><rect fill="#FEFECE" filter="url(#f19pftvq5xuxrq)" height="33.9688" rx="12.5" ry="12.5" style="stroke: #A80036; stroke-width: 1.5;" width="159" x="20" y="551.7222"/><text fill="#000000" font-family="sans-serif" font-size="12" lengthAdjust="spacingAndGlyphs" textLength="139" x="30" y="572.8608">Zmerguj pull requesta</text><ellipse cx="99.5" cy="616.6909" fill="#FFFFFF" filter="url(#f19pftvq5xuxrq)" rx="11" ry="11" style="stroke: #000000; stroke-width: 1.0;"/><ellipse cx="99.5" cy="616.6909" fill="#000000" rx="6" ry="6" style="stroke: #7F7F7F; stroke-width: 1.0;"/><line style="stroke: #000000; stroke-width: 2.0;" x1="15" x2="15" y1="12.7451" y2="627.6909"/><rect fill="#FEFECE" filter="url(#f19pftvq5xuxrq)" height="61.9063" rx="12.5" ry="12.5" style="stroke: #A80036; stroke-width: 1.5;" width="272" x="217" y="200.6045"/><text fill="#000000" font-family="sans-serif" font-size="12" lengthAdjust="spacingAndGlyphs" textLength="162" x="272" y="221.7432">Uruchom testy kontrolne i</text><text fill="#000000" font-family="sans-serif" font-size="12" lengthAdjust="spacingAndGlyphs" textLength="204" x="251" y="235.7119">zaktualizuj status commita wraz z</text><text fill="#000000" font-family="sans-serif" font-size="12" lengthAdjust="spacingAndGlyphs" textLength="252" x="227" y="249.6807">z odnośnikiem do testowego środowiska</text><line style="stroke: #000000; stroke-width: 2.0;" x1="212" x2="212" y1="12.7451" y2="627.6909"/><rect fill="#FEFECE" filter="url(#f19pftvq5xuxrq)" height="61.9063" rx="12.5" ry="12.5" style="stroke: #A80036; stroke-width: 1.5;" width="173" x="505.5" y="282.5107"/><text fill="#000000" font-family="sans-serif" font-size="12" lengthAdjust="spacingAndGlyphs" textLength="126" x="529" y="303.6494">Zainicjuj środowisko</text><text fill="#000000" font-family="sans-serif" font-size="12" lengthAdjust="spacingAndGlyphs" textLength="152" x="516" y="317.6182">i wykonaj testy Selenium</text><text fill="#000000" font-family="sans-serif" font-size="12" lengthAdjust="spacingAndGlyphs" textLength="153" x="515.5" y="331.5869">na testowym środowisku</text><rect fill="#FEFECE" filter="url(#f19pftvq5xuxrq)" height="47.9375" rx="12.5" ry="12.5" style="stroke: #A80036; stroke-width: 1.5;" width="188" x="498" y="364.417"/><text fill="#000000" font-family="sans-serif" font-size="12" lengthAdjust="spacingAndGlyphs" textLength="168" x="508" y="385.5557">Zaktualizuj status commita</text><text fill="#000000" font-family="sans-serif" font-size="12" lengthAdjust="spacingAndGlyphs" textLength="110" x="537" y="399.5244">z wynikiem testów</text><line style="stroke: #000000; stroke-width: 2.0;" x1="493" x2="493" y1="12.7451" y2="627.6909"/><line style="stroke: #000000; stroke-width: 2.0;" x1="690" x2="690" y1="12.7451" y2="627.6909"/><line style="stroke: #A80036; stroke-width: 1.5;" x1="99.5" x2="99.5" y1="112.667" y2="132.667"/><polygon fill="#A80036" points="95.5,122.667,99.5,132.667,103.5,122.667,99.5,126.667" style="stroke: #A80036; stroke-width: 1.0;"/><line style="stroke: #A80036; stroke-width: 1.5;" x1="134.5" x2="193" y1="498.3232" y2="498.3232"/><polygon fill="#A80036" points="189,307.0029,193,297.0029,197,307.0029,193,303.0029" style="stroke: #A80036; stroke-width: 1.5;"/><line style="stroke: #A80036; stroke-width: 1.5;" x1="193" x2="193" y1="95.6826" y2="498.3232"/><line style="stroke: #A80036; stroke-width: 1.5;" x1="193" x2="168.5" y1="95.6826" y2="95.6826"/><polygon fill="#A80036" points="178.5,91.6826,168.5,95.6826,178.5,99.6826,174.5,95.6826" style="stroke: #A80036; stroke-width: 1.0;"/><line style="stroke: #A80036; stroke-width: 1.5;" x1="99.5" x2="99.5" y1="466.3232" y2="486.3232"/><polygon fill="#A80036" points="95.5,476.3232,99.5,486.3232,103.5,476.3232,99.5,480.3232" style="stroke: #A80036; stroke-width: 1.0;"/><line style="stroke: #A80036; stroke-width: 1.5;" x1="99.5" x2="99.5" y1="58.6982" y2="78.6982"/><polygon fill="#A80036" points="95.5,68.6982,99.5,78.6982,103.5,68.6982,99.5,72.6982" style="stroke: #A80036; stroke-width: 1.0;"/><line style="stroke: #A80036; stroke-width: 1.5;" x1="99.5" x2="99.5" y1="510.3232" y2="551.7222"/><polygon fill="#A80036" points="95.5,541.7222,99.5,551.7222,103.5,541.7222,99.5,545.7222" style="stroke: #A80036; stroke-width: 1.0;"/><text fill="#000000" font-family="sans-serif" font-size="11" lengthAdjust="spacingAndGlyphs" textLength="17" x="103.5" y="531.6279">tak</text><line style="stroke: #A80036; stroke-width: 1.5;" x1="99.5" x2="99.5" y1="585.6909" y2="605.6909"/><polygon fill="#A80036" points="95.5,595.6909,99.5,605.6909,103.5,595.6909,99.5,599.6909" style="stroke: #A80036; stroke-width: 1.0;"/><line style="stroke: #A80036; stroke-width: 1.5;" x1="592" x2="592" y1="344.417" y2="364.417"/><polygon fill="#A80036" points="588,354.417,592,364.417,596,354.417,592,358.417" style="stroke: #A80036; stroke-width: 1.0;"/><line style="stroke: #A80036; stroke-width: 1.5;" x1="99.5" x2="99.5" y1="180.6045" y2="185.6045"/><line style="stroke: #A80036; stroke-width: 1.5;" x1="99.5" x2="353" y1="185.6045" y2="185.6045"/><line style="stroke: #A80036; stroke-width: 1.5;" x1="353" x2="353" y1="185.6045" y2="200.6045"/><polygon fill="#A80036" points="349,190.6045,353,200.6045,357,190.6045,353,194.6045" style="stroke: #A80036; stroke-width: 1.0;"/><line style="stroke: #A80036; stroke-width: 1.5;" x1="353" x2="353" y1="262.5107" y2="267.5107"/><line style="stroke: #A80036; stroke-width: 1.5;" x1="353" x2="592" y1="267.5107" y2="267.5107"/><line style="stroke: #A80036; stroke-width: 1.5;" x1="592" x2="592" y1="267.5107" y2="282.5107"/><polygon fill="#A80036" points="588,272.5107,592,282.5107,596,272.5107,592,276.5107" style="stroke: #A80036; stroke-width: 1.0;"/><line style="stroke: #A80036; stroke-width: 1.5;" x1="592" x2="592" y1="412.3545" y2="417.3545"/><line style="stroke: #A80036; stroke-width: 1.5;" x1="592" x2="99.5" y1="417.3545" y2="417.3545"/><line style="stroke: #A80036; stroke-width: 1.5;" x1="99.5" x2="99.5" y1="417.3545" y2="432.3545"/><polygon fill="#A80036" points="95.5,422.3545,99.5,432.3545,103.5,422.3545,99.5,426.3545" style="stroke: #A80036; stroke-width: 1.0;"/><text fill="#000000" font-family="sans-serif" font-size="18" lengthAdjust="spacingAndGlyphs" textLength="90" x="68.5" y="29.4531">Manualnie</text><text fill="#000000" font-family="sans-serif" font-size="18" lengthAdjust="spacingAndGlyphs" textLength="59" x="323" y="29.4531">Netlify</text><text fill="#000000" font-family="sans-serif" font-size="18" lengthAdjust="spacingAndGlyphs" textLength="62" x="560.5" y="29.4531">GitHub</text><!--MD5=[e085e8dfbc60b617aacff7992fef2e2a]
@startuml
skinparam defaultTextAlignment center

|Manualnie|
start

repeat :Dodaj nowe zmiany;

:Utwórz lub zaktualizuj
pull requesta;

|Netlify|
  :Uruchom testy kontrolne i
zaktualizuj status commita wraz z
z odnośnikiem do testowego środowiska;
|GitHub|
  :Zainicjuj środowisko
i wykonaj testy Selenium
na testowym środowisku;
  :Zaktualizuj status commita
z wynikiem testów;
|Manualnie|
  :Sprawdź status;
    repeat while (sukces?) is (nie)
    -> tak;
:Zmerguj pull requesta;
stop
@enduml

PlantUML version 1.2020.06beta1(Unknown compile time)
(GPL source distribution)
Java Runtime: Java(TM) SE Runtime Environment
JVM: Java HotSpot(TM) 64-Bit Server VM
Java Version: 1.7.0_25-b15
Operating System: Linux
Default Encoding: UTF-8
Language: en
Country: US
--></g></svg>