<?xml version="1.0" encoding="UTF-8" standalone="no"?><svg xmlns="http://www.w3.org/2000/svg" xmlns:xlink="http://www.w3.org/1999/xlink" contentScriptType="application/ecmascript" contentStyleType="text/css" height="639px" preserveAspectRatio="none" style="width:609px;height:639px;" version="1.1" viewBox="0 0 609 639" width="609px" zoomAndPan="magnify"><defs><filter height="300%" id="f1ai02od0mvjnb" width="300%" x="-1" y="-1"><feGaussianBlur result="blurOut" stdDeviation="2.0"/><feColorMatrix in="blurOut" result="blurOut2" type="matrix" values="0 0 0 0 0 0 0 0 0 0 0 0 0 0 0 0 0 0 .4 0"/><feOffset dx="4.0" dy="4.0" in="blurOut2" result="blurOut3"/><feBlend in="SourceGraphic" in2="blurOut3" mode="normal"/></filter></defs><g><ellipse cx="89" cy="48.6982" fill="#000000" filter="url(#f1ai02od0mvjnb)" rx="10" ry="10" style="stroke: none; stroke-width: 1.0;"/><rect fill="#FEFECE" filter="url(#f1ai02od0mvjnb)" height="47.9375" rx="12.5" ry="12.5" style="stroke: #A80036; stroke-width: 1.5;" width="128" x="25" y="132.667"/><text fill="#000000" font-family="sans-serif" font-size="12" lengthAdjust="spacingAndGlyphs" textLength="108" x="35" y="153.8057">Create or update</text><text fill="#000000" font-family="sans-serif" font-size="12" lengthAdjust="spacingAndGlyphs" textLength="75" x="51.5" y="167.7744">pull request</text><rect fill="#FEFECE" filter="url(#f1ai02od0mvjnb)" height="33.9688" rx="12.5" ry="12.5" style="stroke: #A80036; stroke-width: 1.5;" width="98" x="40" y="432.3545"/><text fill="#000000" font-family="sans-serif" font-size="12" lengthAdjust="spacingAndGlyphs" textLength="78" x="50" y="453.4932">Verify status</text><rect fill="#FEFECE" filter="url(#f1ai02od0mvjnb)" height="33.9688" rx="12.5" ry="12.5" style="stroke: #A80036; stroke-width: 1.5;" width="70" x="54" y="78.6982"/><text fill="#000000" font-family="sans-serif" font-size="12" lengthAdjust="spacingAndGlyphs" textLength="50" x="64" y="99.8369">Develop</text><polygon fill="#FEFECE" filter="url(#f1ai02od0mvjnb)" points="62.5,486.3232,115.5,486.3232,127.5,498.3232,115.5,510.3232,62.5,510.3232,50.5,498.3232,62.5,486.3232" style="stroke: #A80036; stroke-width: 1.5;"/><text fill="#000000" font-family="sans-serif" font-size="11" lengthAdjust="spacingAndGlyphs" textLength="53" x="62.5" y="502.1313">success?</text><text fill="#000000" font-family="sans-serif" font-size="11" lengthAdjust="spacingAndGlyphs" textLength="14" x="127.5" y="495.729">no</text><rect fill="#FEFECE" filter="url(#f1ai02od0mvjnb)" height="33.9688" rx="12.5" ry="12.5" style="stroke: #A80036; stroke-width: 1.5;" width="138" x="20" y="551.7222"/><text fill="#000000" font-family="sans-serif" font-size="12" lengthAdjust="spacingAndGlyphs" textLength="118" x="30" y="572.8608">Merge pull request</text><ellipse cx="89" cy="616.6909" fill="#FFFFFF" filter="url(#f1ai02od0mvjnb)" rx="11" ry="11" style="stroke: #000000; stroke-width: 1.0;"/><ellipse cx="89" cy="616.6909" fill="#000000" rx="6" ry="6" style="stroke: #7F7F7F; stroke-width: 1.0;"/><line style="stroke: #000000; stroke-width: 2.0;" x1="15" x2="15" y1="12.7451" y2="627.6909"/><rect fill="#FEFECE" filter="url(#f1ai02od0mvjnb)" height="61.9063" rx="12.5" ry="12.5" style="stroke: #A80036; stroke-width: 1.5;" width="185" x="196" y="200.6045"/><text fill="#000000" font-family="sans-serif" font-size="12" lengthAdjust="spacingAndGlyphs" textLength="100" x="238.5" y="221.7432">Run checks and</text><text fill="#000000" font-family="sans-serif" font-size="12" lengthAdjust="spacingAndGlyphs" textLength="138" x="219.5" y="235.7119">update commit status</text><text fill="#000000" font-family="sans-serif" font-size="12" lengthAdjust="spacingAndGlyphs" textLength="165" x="206" y="249.6807">with a deployment preview</text><line style="stroke: #000000; stroke-width: 2.0;" x1="191" x2="191" y1="12.7451" y2="627.6909"/><rect fill="#FEFECE" filter="url(#f1ai02od0mvjnb)" height="61.9063" rx="12.5" ry="12.5" style="stroke: #A80036; stroke-width: 1.5;" width="195" x="390" y="282.5107"/><text fill="#000000" font-family="sans-serif" font-size="12" lengthAdjust="spacingAndGlyphs" textLength="154" x="410.5" y="303.6494">Spin up the environment</text><text fill="#000000" font-family="sans-serif" font-size="12" lengthAdjust="spacingAndGlyphs" textLength="175" x="400" y="317.6182">and execute Selenium tests</text><text fill="#000000" font-family="sans-serif" font-size="12" lengthAdjust="spacingAndGlyphs" textLength="168" x="403.5" y="331.5869">against the deploy preview</text><rect fill="#FEFECE" filter="url(#f1ai02od0mvjnb)" height="47.9375" rx="12.5" ry="12.5" style="stroke: #A80036; stroke-width: 1.5;" width="159" x="408" y="364.417"/><text fill="#000000" font-family="sans-serif" font-size="12" lengthAdjust="spacingAndGlyphs" textLength="139" x="418" y="385.5557">Update commit status</text><text fill="#000000" font-family="sans-serif" font-size="12" lengthAdjust="spacingAndGlyphs" textLength="138" x="418.5" y="399.5244">with the test outcome</text><line style="stroke: #000000; stroke-width: 2.0;" x1="385" x2="385" y1="12.7451" y2="627.6909"/><line style="stroke: #000000; stroke-width: 2.0;" x1="589" x2="589" y1="12.7451" y2="627.6909"/><line style="stroke: #A80036; stroke-width: 1.5;" x1="89" x2="89" y1="112.667" y2="132.667"/><polygon fill="#A80036" points="85,122.667,89,132.667,93,122.667,89,126.667" style="stroke: #A80036; stroke-width: 1.0;"/><line style="stroke: #A80036; stroke-width: 1.5;" x1="127.5" x2="172" y1="498.3232" y2="498.3232"/><polygon fill="#A80036" points="168,307.0029,172,297.0029,176,307.0029,172,303.0029" style="stroke: #A80036; stroke-width: 1.5;"/><line style="stroke: #A80036; stroke-width: 1.5;" x1="172" x2="172" y1="95.6826" y2="498.3232"/><line style="stroke: #A80036; stroke-width: 1.5;" x1="172" x2="124" y1="95.6826" y2="95.6826"/><polygon fill="#A80036" points="134,91.6826,124,95.6826,134,99.6826,130,95.6826" style="stroke: #A80036; stroke-width: 1.0;"/><line style="stroke: #A80036; stroke-width: 1.5;" x1="89" x2="89" y1="466.3232" y2="486.3232"/><polygon fill="#A80036" points="85,476.3232,89,486.3232,93,476.3232,89,480.3232" style="stroke: #A80036; stroke-width: 1.0;"/><line style="stroke: #A80036; stroke-width: 1.5;" x1="89" x2="89" y1="58.6982" y2="78.6982"/><polygon fill="#A80036" points="85,68.6982,89,78.6982,93,68.6982,89,72.6982" style="stroke: #A80036; stroke-width: 1.0;"/><line style="stroke: #A80036; stroke-width: 1.5;" x1="89" x2="89" y1="510.3232" y2="551.7222"/><polygon fill="#A80036" points="85,541.7222,89,551.7222,93,541.7222,89,545.7222" style="stroke: #A80036; stroke-width: 1.0;"/><text fill="#000000" font-family="sans-serif" font-size="11" lengthAdjust="spacingAndGlyphs" textLength="20" x="93" y="531.6279">yes</text><line style="stroke: #A80036; stroke-width: 1.5;" x1="89" x2="89" y1="585.6909" y2="605.6909"/><polygon fill="#A80036" points="85,595.6909,89,605.6909,93,595.6909,89,599.6909" style="stroke: #A80036; stroke-width: 1.0;"/><line style="stroke: #A80036; stroke-width: 1.5;" x1="487.5" x2="487.5" y1="344.417" y2="364.417"/><polygon fill="#A80036" points="483.5,354.417,487.5,364.417,491.5,354.417,487.5,358.417" style="stroke: #A80036; stroke-width: 1.0;"/><line style="stroke: #A80036; stroke-width: 1.5;" x1="89" x2="89" y1="180.6045" y2="185.6045"/><line style="stroke: #A80036; stroke-width: 1.5;" x1="89" x2="288.5" y1="185.6045" y2="185.6045"/><line style="stroke: #A80036; stroke-width: 1.5;" x1="288.5" x2="288.5" y1="185.6045" y2="200.6045"/><polygon fill="#A80036" points="284.5,190.6045,288.5,200.6045,292.5,190.6045,288.5,194.6045" style="stroke: #A80036; stroke-width: 1.0;"/><line style="stroke: #A80036; stroke-width: 1.5;" x1="288.5" x2="288.5" y1="262.5107" y2="267.5107"/><line style="stroke: #A80036; stroke-width: 1.5;" x1="288.5" x2="487.5" y1="267.5107" y2="267.5107"/><line style="stroke: #A80036; stroke-width: 1.5;" x1="487.5" x2="487.5" y1="267.5107" y2="282.5107"/><polygon fill="#A80036" points="483.5,272.5107,487.5,282.5107,491.5,272.5107,487.5,276.5107" style="stroke: #A80036; stroke-width: 1.0;"/><line style="stroke: #A80036; stroke-width: 1.5;" x1="487.5" x2="487.5" y1="412.3545" y2="417.3545"/><line style="stroke: #A80036; stroke-width: 1.5;" x1="487.5" x2="89" y1="417.3545" y2="417.3545"/><line style="stroke: #A80036; stroke-width: 1.5;" x1="89" x2="89" y1="417.3545" y2="432.3545"/><polygon fill="#A80036" points="85,422.3545,89,432.3545,93,422.3545,89,426.3545" style="stroke: #A80036; stroke-width: 1.0;"/><text fill="#000000" font-family="sans-serif" font-size="18" lengthAdjust="spacingAndGlyphs" textLength="63" x="71.5" y="29.4531">Manual</text><text fill="#000000" font-family="sans-serif" font-size="18" lengthAdjust="spacingAndGlyphs" textLength="59" x="258.5" y="29.4531">Netlify</text><text fill="#000000" font-family="sans-serif" font-size="18" lengthAdjust="spacingAndGlyphs" textLength="123" x="425.5" y="29.4531">GitHub Action</text><!--MD5=[b6e6722c368fa013d04872c1b90e9cfd]
@startuml
skinparam defaultTextAlignment center

|Manual|
start

repeat :Develop;

:Create or update
pull request;

|Netlify|
  :Run checks and
update commit status
with a deployment preview;
|GitHub Action|
  :Spin up the environment
and execute Selenium tests
against the deploy preview;
  :Update commit status
with the test outcome;
|Manual|
  :Verify status;
    repeat while (success?) is (no)
    -> yes;
:Merge pull request;
stop
@enduml

PlantUML version 1.2020.06beta1(Unknown compile time)
(GPL source distribution)
Java Runtime: Java(TM) SE Runtime Environment
JVM: Java HotSpot(TM) 64-Bit Server VM
Java Version: 1.7.0_25-b15
Operating System: Linux
Default Encoding: UTF-8
Language: en
Country: US
--></g></svg>