<?xml version="1.0" encoding="UTF-8" standalone="no"?><svg xmlns="http://www.w3.org/2000/svg" xmlns:xlink="http://www.w3.org/1999/xlink" contentScriptType="application/ecmascript" contentStyleType="text/css" height="871px" preserveAspectRatio="none" style="width:431px;height:871px;" version="1.1" viewBox="0 0 431 871" width="431px" zoomAndPan="magnify"><defs><filter height="300%" id="fnf416sl2i4an" width="300%" x="-1" y="-1"><feGaussianBlur result="blurOut" stdDeviation="2.0"/><feColorMatrix in="blurOut" result="blurOut2" type="matrix" values="0 0 0 0 0 0 0 0 0 0 0 0 0 0 0 0 0 0 .4 0"/><feOffset dx="4.0" dy="4.0" in="blurOut2" result="blurOut3"/><feBlend in="SourceGraphic" in2="blurOut3" mode="normal"/></filter></defs><g><ellipse cx="174.5" cy="20" fill="#000000" filter="url(#fnf416sl2i4an)" rx="10" ry="10" style="stroke: none; stroke-width: 1.0;"/><rect fill="#FEFECE" filter="url(#fnf416sl2i4an)" height="33.9688" rx="12.5" ry="12.5" style="stroke: #A80036; stroke-width: 1.5;" width="291" x="29" y="94"/><text fill="#000000" font-family="sans-serif" font-size="12" lengthAdjust="spacingAndGlyphs" textLength="271" x="39" y="115.1387">Nadejście próbki z wektorem przyspieszenia</text><rect fill="#FEFECE" filter="url(#fnf416sl2i4an)" height="33.9688" rx="12.5" ry="12.5" style="stroke: #A80036; stroke-width: 1.5;" width="204" x="72.5" y="147.9688"/><text fill="#000000" font-family="sans-serif" font-size="12" lengthAdjust="spacingAndGlyphs" textLength="184" x="82.5" y="169.1074">Moduł wektora przyspieszenia</text><rect fill="#FEFECE" filter="url(#fnf416sl2i4an)" height="33.9688" rx="12.5" ry="12.5" style="stroke: #A80036; stroke-width: 1.5;" width="181" x="84" y="201.9375"/><text fill="#000000" font-family="sans-serif" font-size="12" lengthAdjust="spacingAndGlyphs" textLength="161" x="94" y="223.0762">Filtracja sygnału (modułu)</text><rect fill="#FEFECE" filter="url(#fnf416sl2i4an)" height="33.9688" rx="12.5" ry="12.5" style="stroke: #A80036; stroke-width: 1.5;" width="211" x="69" y="255.9063"/><text fill="#000000" font-family="sans-serif" font-size="12" lengthAdjust="spacingAndGlyphs" textLength="191" x="79" y="277.0449">Aktualizacja czułości algorytmu</text><rect fill="#FEFECE" filter="url(#fnf416sl2i4an)" height="47.9375" rx="12.5" ry="12.5" style="stroke: #A80036; stroke-width: 1.5;" width="124" x="112.5" y="455.082"/><text fill="#000000" font-family="sans-serif" font-size="12" lengthAdjust="spacingAndGlyphs" textLength="79" x="122.5" y="476.2207">Wykryto krok</text><text fill="#000000" font-family="sans-serif" font-size="12" font-style="italic" lengthAdjust="spacingAndGlyphs" textLength="104" x="122.5" y="490.1895">liczba_kroków++</text><rect fill="#FEFECE" filter="url(#fnf416sl2i4an)" height="33.9688" rx="12.5" ry="12.5" style="stroke: #A80036; stroke-width: 1.5;" width="176" x="86.5" y="533.5352"/><text fill="#000000" font-family="sans-serif" font-size="12" lengthAdjust="spacingAndGlyphs" textLength="156" x="96.5" y="554.6738">Zapisanie czasu wykrycia</text><polygon fill="#FEFECE" filter="url(#fnf416sl2i4an)" points="174.5,406.6797,174.5,406.6797,186.5,418.6797,174.5,430.6797,174.5,430.6797,162.5,418.6797,174.5,406.6797" style="stroke: #A80036; stroke-width: 1.5;"/><text fill="#000000" font-family="sans-serif" font-size="11" lengthAdjust="spacingAndGlyphs" textLength="241" x="178.5" y="440.8901">[przekroczono próg wykrycia z góry na dół]</text><text fill="#000000" font-family="sans-serif" font-size="11" lengthAdjust="spacingAndGlyphs" textLength="32" x="186.5" y="416.0854">[else]</text><polygon fill="#FEFECE" filter="url(#fnf416sl2i4an)" points="174.5,587.5039,186.5,599.5039,174.5,611.5039,162.5,599.5039,174.5,587.5039" style="stroke: #A80036; stroke-width: 1.5;"/><rect fill="#FEFECE" filter="url(#fnf416sl2i4an)" height="33.9688" rx="12.5" ry="12.5" style="stroke: #A80036; stroke-width: 1.5;" width="329" x="10" y="631.5039"/><text fill="#000000" font-family="sans-serif" font-size="12" lengthAdjust="spacingAndGlyphs" textLength="309" x="20" y="652.6426">Zapisanie pozycji próbki względem progu wykrycia</text><polygon fill="#FEFECE" filter="url(#fnf416sl2i4an)" points="174.5,358.2773,174.5,358.2773,186.5,370.2773,174.5,382.2773,174.5,382.2773,162.5,370.2773,174.5,358.2773" style="stroke: #A80036; stroke-width: 1.5;"/><text fill="#000000" font-family="sans-serif" font-size="11" lengthAdjust="spacingAndGlyphs" textLength="209" x="178.5" y="392.4878">[ostatni krok poza oknem czasowym]</text><text fill="#000000" font-family="sans-serif" font-size="11" lengthAdjust="spacingAndGlyphs" textLength="32" x="186.5" y="367.6831">[else]</text><polygon fill="#FEFECE" filter="url(#fnf416sl2i4an)" points="174.5,685.4727,186.5,697.4727,174.5,709.4727,162.5,697.4727,174.5,685.4727" style="stroke: #A80036; stroke-width: 1.5;"/><polygon fill="#FEFECE" filter="url(#fnf416sl2i4an)" points="174.5,309.875,174.5,309.875,186.5,321.875,174.5,333.875,174.5,333.875,162.5,321.875,174.5,309.875" style="stroke: #A80036; stroke-width: 1.5;"/><text fill="#000000" font-family="sans-serif" font-size="11" lengthAdjust="spacingAndGlyphs" textLength="160" x="178.5" y="344.0854">[przekroczono próg czułości]</text><text fill="#000000" font-family="sans-serif" font-size="11" lengthAdjust="spacingAndGlyphs" textLength="32" x="186.5" y="319.2808">[else]</text><polygon fill="#FEFECE" filter="url(#fnf416sl2i4an)" points="174.5,729.4727,186.5,741.4727,174.5,753.4727,162.5,741.4727,174.5,729.4727" style="stroke: #A80036; stroke-width: 1.5;"/><polygon fill="#FEFECE" filter="url(#fnf416sl2i4an)" points="174.5,50,186.5,62,174.5,74,162.5,62,174.5,50" style="stroke: #A80036; stroke-width: 1.5;"/><polygon fill="#FEFECE" filter="url(#fnf416sl2i4an)" points="174.5,773.4727,174.5,773.4727,186.5,785.4727,174.5,797.4727,174.5,797.4727,162.5,785.4727,174.5,773.4727" style="stroke: #A80036; stroke-width: 1.5;"/><text fill="#000000" font-family="sans-serif" font-size="11" lengthAdjust="spacingAndGlyphs" textLength="32" x="186.5" y="782.8784">[else]</text><ellipse cx="174.5" cy="849.8716" fill="#FFFFFF" filter="url(#fnf416sl2i4an)" rx="11" ry="11" style="stroke: #000000; stroke-width: 1.0;"/><ellipse cx="174.5" cy="849.8716" fill="#000000" rx="6" ry="6" style="stroke: #7F7F7F; stroke-width: 1.0;"/><line style="stroke: #A80036; stroke-width: 1.5;" x1="174.5" x2="174.5" y1="127.9688" y2="147.9688"/><polygon fill="#A80036" points="170.5,137.9688,174.5,147.9688,178.5,137.9688,174.5,141.9688" style="stroke: #A80036; stroke-width: 1.0;"/><line style="stroke: #A80036; stroke-width: 1.5;" x1="174.5" x2="174.5" y1="181.9375" y2="201.9375"/><polygon fill="#A80036" points="170.5,191.9375,174.5,201.9375,178.5,191.9375,174.5,195.9375" style="stroke: #A80036; stroke-width: 1.0;"/><line style="stroke: #A80036; stroke-width: 1.5;" x1="174.5" x2="174.5" y1="235.9063" y2="255.9063"/><polygon fill="#A80036" points="170.5,245.9063,174.5,255.9063,178.5,245.9063,174.5,249.9063" style="stroke: #A80036; stroke-width: 1.0;"/><line style="stroke: #A80036; stroke-width: 1.5;" x1="174.5" x2="174.5" y1="503.0195" y2="533.5352"/><polygon fill="#A80036" points="170.5,523.5352,174.5,533.5352,178.5,523.5352,174.5,527.5352" style="stroke: #A80036; stroke-width: 1.0;"/><line style="stroke: #A80036; stroke-width: 1.5;" x1="174.5" x2="174.5" y1="430.6797" y2="455.082"/><polygon fill="#A80036" points="170.5,445.082,174.5,455.082,178.5,445.082,174.5,449.082" style="stroke: #A80036; stroke-width: 1.0;"/><line style="stroke: #A80036; stroke-width: 1.5;" x1="186.5" x2="272.5" y1="418.6797" y2="418.6797"/><polygon fill="#A80036" points="268.5,503.5352,272.5,513.5352,276.5,503.5352,272.5,507.5352" style="stroke: #A80036; stroke-width: 1.5;"/><line style="stroke: #A80036; stroke-width: 1.5;" x1="272.5" x2="272.5" y1="418.6797" y2="599.5039"/><line style="stroke: #A80036; stroke-width: 1.5;" x1="272.5" x2="186.5" y1="599.5039" y2="599.5039"/><polygon fill="#A80036" points="196.5,595.5039,186.5,599.5039,196.5,603.5039,192.5,599.5039" style="stroke: #A80036; stroke-width: 1.0;"/><line style="stroke: #A80036; stroke-width: 1.5;" x1="174.5" x2="174.5" y1="567.5039" y2="587.5039"/><polygon fill="#A80036" points="170.5,577.5039,174.5,587.5039,178.5,577.5039,174.5,581.5039" style="stroke: #A80036; stroke-width: 1.0;"/><line style="stroke: #A80036; stroke-width: 1.5;" x1="174.5" x2="174.5" y1="611.5039" y2="631.5039"/><polygon fill="#A80036" points="170.5,621.5039,174.5,631.5039,178.5,621.5039,174.5,625.5039" style="stroke: #A80036; stroke-width: 1.0;"/><line style="stroke: #A80036; stroke-width: 1.5;" x1="174.5" x2="174.5" y1="382.2773" y2="406.6797"/><polygon fill="#A80036" points="170.5,396.6797,174.5,406.6797,178.5,396.6797,174.5,400.6797" style="stroke: #A80036; stroke-width: 1.0;"/><line style="stroke: #A80036; stroke-width: 1.5;" x1="186.5" x2="349" y1="370.2773" y2="370.2773"/><polygon fill="#A80036" points="345,533.5352,349,543.5352,353,533.5352,349,537.5352" style="stroke: #A80036; stroke-width: 1.5;"/><line style="stroke: #A80036; stroke-width: 1.5;" x1="349" x2="349" y1="370.2773" y2="697.4727"/><line style="stroke: #A80036; stroke-width: 1.5;" x1="349" x2="186.5" y1="697.4727" y2="697.4727"/><polygon fill="#A80036" points="196.5,693.4727,186.5,697.4727,196.5,701.4727,192.5,697.4727" style="stroke: #A80036; stroke-width: 1.0;"/><line style="stroke: #A80036; stroke-width: 1.5;" x1="174.5" x2="174.5" y1="665.4727" y2="685.4727"/><polygon fill="#A80036" points="170.5,675.4727,174.5,685.4727,178.5,675.4727,174.5,679.4727" style="stroke: #A80036; stroke-width: 1.0;"/><line style="stroke: #A80036; stroke-width: 1.5;" x1="174.5" x2="174.5" y1="333.875" y2="358.2773"/><polygon fill="#A80036" points="170.5,348.2773,174.5,358.2773,178.5,348.2773,174.5,352.2773" style="stroke: #A80036; stroke-width: 1.0;"/><line style="stroke: #A80036; stroke-width: 1.5;" x1="186.5" x2="371" y1="321.875" y2="321.875"/><polygon fill="#A80036" points="367,533.5352,371,543.5352,375,533.5352,371,537.5352" style="stroke: #A80036; stroke-width: 1.5;"/><line style="stroke: #A80036; stroke-width: 1.5;" x1="371" x2="371" y1="321.875" y2="741.4727"/><line style="stroke: #A80036; stroke-width: 1.5;" x1="371" x2="186.5" y1="741.4727" y2="741.4727"/><polygon fill="#A80036" points="196.5,737.4727,186.5,741.4727,196.5,745.4727,192.5,741.4727" style="stroke: #A80036; stroke-width: 1.0;"/><line style="stroke: #A80036; stroke-width: 1.5;" x1="174.5" x2="174.5" y1="709.4727" y2="729.4727"/><polygon fill="#A80036" points="170.5,719.4727,174.5,729.4727,178.5,719.4727,174.5,723.4727" style="stroke: #A80036; stroke-width: 1.0;"/><line style="stroke: #A80036; stroke-width: 1.5;" x1="174.5" x2="174.5" y1="289.875" y2="309.875"/><polygon fill="#A80036" points="170.5,299.875,174.5,309.875,178.5,299.875,174.5,303.875" style="stroke: #A80036; stroke-width: 1.0;"/><line style="stroke: #A80036; stroke-width: 1.5;" x1="174.5" x2="174.5" y1="74" y2="94"/><polygon fill="#A80036" points="170.5,84,174.5,94,178.5,84,174.5,88" style="stroke: #A80036; stroke-width: 1.0;"/><line style="stroke: #A80036; stroke-width: 1.5;" x1="186.5" x2="395" y1="785.4727" y2="785.4727"/><polygon fill="#A80036" points="391,420.082,395,410.082,399,420.082,395,416.082" style="stroke: #A80036; stroke-width: 1.5;"/><line style="stroke: #A80036; stroke-width: 1.5;" x1="395" x2="395" y1="62" y2="785.4727"/><line style="stroke: #A80036; stroke-width: 1.5;" x1="395" x2="186.5" y1="62" y2="62"/><polygon fill="#A80036" points="196.5,58,186.5,62,196.5,66,192.5,62" style="stroke: #A80036; stroke-width: 1.0;"/><line style="stroke: #A80036; stroke-width: 1.5;" x1="174.5" x2="174.5" y1="753.4727" y2="773.4727"/><polygon fill="#A80036" points="170.5,763.4727,174.5,773.4727,178.5,763.4727,174.5,767.4727" style="stroke: #A80036; stroke-width: 1.0;"/><line style="stroke: #A80036; stroke-width: 1.5;" x1="174.5" x2="174.5" y1="30" y2="50"/><polygon fill="#A80036" points="170.5,40,174.5,50,178.5,40,174.5,44" style="stroke: #A80036; stroke-width: 1.0;"/><line style="stroke: #A80036; stroke-width: 1.5;" x1="174.5" x2="174.5" y1="797.4727" y2="838.8716"/><polygon fill="#A80036" points="170.5,828.8716,174.5,838.8716,178.5,828.8716,174.5,832.8716" style="stroke: #A80036; stroke-width: 1.0;"/><text fill="#000000" font-family="sans-serif" font-size="11" lengthAdjust="spacingAndGlyphs" textLength="44" x="178.5" y="818.7773">[koniec]</text><!--
@startuml
start
repeat
:Nadejście próbki z wektorem przyspieszenia;
:Moduł wektora przyspieszenia;
:Filtracja sygnału (modułu);
:Aktualizacja czułości algorytmu;
if () then ([przekroczono próg czułości])
    if () then ([ostatni krok poza oknem czasowym])
            if () then ([przekroczono próg wykrycia z góry na dół])
                  :Wykryto krok\n//liczba_kroków++//;
                  :Zapisanie czasu wykrycia;
            else ([else])
            endif
            :Zapisanie pozycji próbki względem progu wykrycia;
    else ([else])
    endif
else ([else])
endif
repeat while () is ([else])
 -> [koniec];
stop
@enduml

PlantUML version 1.2019.04(Fri Mar 29 15:44:36 UTC 2019)
(GPL source distribution)
Java Runtime: OpenJDK Runtime Environment
JVM: OpenJDK 64-Bit Server VM
Java Version: 1.8.0_201-heroku-b09
Operating System: Linux
OS Version: 4.4.0-1042-aws
Default Encoding: UTF-8
Language: en
Country: US
--></g></svg>