<?xml version="1.0" encoding="us-ascii" standalone="no"?><svg xmlns="http://www.w3.org/2000/svg" xmlns:xlink="http://www.w3.org/1999/xlink" contentStyleType="text/css" height="1080px" preserveAspectRatio="none" style="width:1019px;height:1080px;background:#FFFFFF;" version="1.1" viewBox="0 0 1019 1080" width="1019px" zoomAndPan="magnify"><defs/><g><text fill="#000000" font-family="sans-serif" font-size="14" font-weight="bold" lengthAdjust="spacing" textLength="245" x="385.5" y="33.5352">Forced dark mode issue solutions</text><ellipse cx="460" cy="57.4883" fill="#222222" rx="10" ry="10" style="stroke:#222222;stroke-width:1.0;"/><polygon fill="#F1F1F1" points="392.5,135.9658,527.5,135.9658,539.5,147.9658,527.5,159.9658,392.5,159.9658,380.5,147.9658,392.5,135.9658" style="stroke:#181818;stroke-width:0.5;"/><text fill="#000000" font-family="sans-serif" font-size="11" lengthAdjust="spacing" textLength="135" x="392.5" y="152.123">Override styles or notify?</text><text fill="#000000" font-family="sans-serif" font-size="11" lengthAdjust="spacing" textLength="45" x="335.5" y="145.6455">override</text><text fill="#000000" font-family="sans-serif" font-size="11" lengthAdjust="spacing" textLength="31" x="539.5" y="145.6455">notify</text><path d="M186.5,169.9658 L186.5,201.5869 L166.5,205.5869 L186.5,209.5869 L186.5,241.208 A0,0 0 0 0 186.5,241.208 L496.5,241.208 A0,0 0 0 0 496.5,241.208 L496.5,179.9658 L486.5,169.9658 L186.5,169.9658 A0,0 0 0 0 186.5,169.9658 " fill="#FEFFDD" style="stroke:#181818;stroke-width:0.5;"/><path d="M486.5,169.9658 L486.5,179.9658 L496.5,179.9658 L486.5,169.9658 " fill="#FEFFDD" style="stroke:#181818;stroke-width:0.5;"/><text fill="#000000" font-family="sans-serif" font-size="13" lengthAdjust="spacing" textLength="98" x="192.5" y="187.5342">HTML, globally:</text><text fill="#000000" font-family="sans-serif" font-size="13" font-style="italic" lengthAdjust="spacing" textLength="187" x="294.5" y="187.5342">&lt;meta name="color-scheme"</text><text fill="#000000" font-family="sans-serif" font-size="13" lengthAdjust="spacing" textLength="8" x="192.5" y="202.8447">&#160;&#160;</text><text fill="#000000" font-family="sans-serif" font-size="13" font-style="italic" lengthAdjust="spacing" textLength="145" x="200.5" y="202.8447">content="only light"/&gt;</text><text fill="#000000" font-family="sans-serif" font-size="13" lengthAdjust="spacing" textLength="156" x="192.5" y="218.1553">or using CSS by selector:</text><text fill="#000000" font-family="sans-serif" font-size="13" lengthAdjust="spacing" textLength="8" x="192.5" y="233.4658">&#160;&#160;</text><text fill="#000000" font-family="sans-serif" font-size="13" font-style="italic" lengthAdjust="spacing" textLength="204" x="200.5" y="233.4658">img { color-scheme: only light; }</text><rect fill="#F1F1F1" height="34.1328" rx="12.5" ry="12.5" style="stroke:#181818;stroke-width:0.5;" width="142" x="24.5" y="188.5205"/><text fill="#000000" font-family="sans-serif" font-size="12" lengthAdjust="spacing" textLength="122" x="34.5" y="210.1221">Disable forced colors</text><path d="M200,276.208 L200,353.7607 L180,357.7607 L200,361.7607 L200,439.3135 A0,0 0 0 0 200,439.3135 L484,439.3135 A0,0 0 0 0 484,439.3135 L484,286.208 L474,276.208 L200,276.208 A0,0 0 0 0 200,276.208 " fill="#FEFFDD" style="stroke:#181818;stroke-width:0.5;"/><path d="M474,276.208 L474,286.208 L484,286.208 L474,276.208 " fill="#FEFFDD" style="stroke:#181818;stroke-width:0.5;"/><text fill="#000000" font-family="sans-serif" font-size="13" lengthAdjust="spacing" textLength="242" x="206" y="293.7764">Usually there is a CSS filter at the html</text><text fill="#000000" font-family="sans-serif" font-size="13" lengthAdjust="spacing" textLength="228" x="206" y="309.0869">level, but you may want to disable it</text><text fill="#000000" font-family="sans-serif" font-size="13" lengthAdjust="spacing" textLength="132" x="206" y="324.3975">at any possible level:</text><text fill="#000000" font-family="sans-serif" font-size="13" lengthAdjust="spacing" textLength="8" x="206" y="339.708">&#160;&#160;</text><text fill="#000000" font-family="sans-serif" font-size="13" font-style="italic" lengthAdjust="spacing" textLength="255" x="214" y="339.708">html, body, img { filter: none !important;</text><text fill="#000000" font-family="sans-serif" font-size="13" lengthAdjust="spacing" textLength="16" x="206" y="355.0186">&#160;&#160;&#160;&#160;</text><text fill="#000000" font-family="sans-serif" font-size="13" font-style="italic" lengthAdjust="spacing" textLength="209" x="222" y="355.0186">-webkit-filter: none !important; }</text><text fill="#000000" font-family="sans-serif" font-size="13" lengthAdjust="spacing" textLength="4" x="206" y="370.3291">&#160;</text><text fill="#000000" font-family="sans-serif" font-size="13" lengthAdjust="spacing" textLength="209" x="206" y="385.6396">For non-img elements you might</text><text fill="#000000" font-family="sans-serif" font-size="13" lengthAdjust="spacing" textLength="201" x="206" y="400.9502">be interested in the background</text><text fill="#000000" font-family="sans-serif" font-size="13" lengthAdjust="spacing" textLength="219" x="206" y="416.2607">and foreground specific attributes:</text><text fill="#000000" font-family="sans-serif" font-size="13" lengthAdjust="spacing" textLength="27" x="206" y="431.5713">e.g.,</text><text fill="#000000" font-family="sans-serif" font-size="13" font-style="italic" lengthAdjust="spacing" textLength="115" x="237" y="431.5713">background-color</text><text fill="#000000" font-family="sans-serif" font-size="13" lengthAdjust="spacing" textLength="23" x="356" y="431.5713">and</text><text fill="#000000" font-family="sans-serif" font-size="13" font-style="italic" lengthAdjust="spacing" textLength="32" x="383" y="431.5713">color</text><text fill="#000000" font-family="sans-serif" font-size="13" lengthAdjust="spacing" textLength="4" x="415" y="431.5713">.</text><rect fill="#F1F1F1" height="48.2656" rx="12.5" ry="12.5" style="stroke:#181818;stroke-width:0.5;" width="169" x="11" y="333.6279"/><text fill="#000000" font-family="sans-serif" font-size="12" lengthAdjust="spacing" textLength="149" x="21" y="355.2295">Override user's stylesheet</text><text fill="#000000" font-family="sans-serif" font-size="12" lengthAdjust="spacing" textLength="65" x="21" y="369.3623">(unreliable)</text><path d="M522.5,169.9658 L522.5,379.0029 A0,0 0 0 0 522.5,379.0029 L736.5,379.0029 A0,0 0 0 0 736.5,379.0029 L736.5,278.4844 L756.5,274.4844 L736.5,270.4844 L736.5,179.9658 L726.5,169.9658 L522.5,169.9658 A0,0 0 0 0 522.5,169.9658 " fill="#FEFFDD" style="stroke:#181818;stroke-width:0.5;"/><path d="M726.5,169.9658 L726.5,179.9658 L736.5,179.9658 L726.5,169.9658 " fill="#FEFFDD" style="stroke:#181818;stroke-width:0.5;"/><text fill="#000000" font-family="sans-serif" font-size="13" font-style="italic" lengthAdjust="spacing" textLength="173" x="528.5" y="187.5342">&lt;div id="detection" style="</text><text fill="#000000" font-family="sans-serif" font-size="13" lengthAdjust="spacing" textLength="8" x="528.5" y="202.8447">&#160;&#160;</text><text fill="#000000" font-family="sans-serif" font-size="13" font-style="italic" lengthAdjust="spacing" textLength="88" x="536.5" y="202.8447">display: none;</text><text fill="#000000" font-family="sans-serif" font-size="13" lengthAdjust="spacing" textLength="8" x="528.5" y="218.1553">&#160;&#160;</text><text fill="#000000" font-family="sans-serif" font-size="13" font-style="italic" lengthAdjust="spacing" textLength="185" x="536.5" y="218.1553">background-color: canvas;"&gt;</text><text fill="#000000" font-family="sans-serif" font-size="13" font-style="italic" lengthAdjust="spacing" textLength="46" x="528.5" y="233.4658">&lt;/div&gt;</text><text fill="#000000" font-family="sans-serif" font-size="13" font-style="italic" lengthAdjust="spacing" textLength="56" x="528.5" y="248.7764">&lt;script&gt;</text><text fill="#000000" font-family="sans-serif" font-size="13" font-style="italic" lengthAdjust="spacing" textLength="179" x="528.5" y="264.0869">const detection = document</text><text fill="#000000" font-family="sans-serif" font-size="13" lengthAdjust="spacing" textLength="8" x="528.5" y="279.3975">&#160;&#160;</text><text fill="#000000" font-family="sans-serif" font-size="13" font-style="italic" lengthAdjust="spacing" textLength="174" x="536.5" y="279.3975">.querySelector('#detection');</text><text fill="#000000" font-family="sans-serif" font-size="13" font-style="italic" lengthAdjust="spacing" textLength="103" x="528.5" y="294.708">const bgColor =</text><text fill="#000000" font-family="sans-serif" font-size="13" lengthAdjust="spacing" textLength="8" x="528.5" y="310.0186">&#160;&#160;</text><text fill="#000000" font-family="sans-serif" font-size="13" font-style="italic" lengthAdjust="spacing" textLength="182" x="536.5" y="310.0186">getComputedStyle(detection)</text><text fill="#000000" font-family="sans-serif" font-size="13" lengthAdjust="spacing" textLength="8" x="528.5" y="325.3291">&#160;&#160;</text><text fill="#000000" font-family="sans-serif" font-size="13" font-style="italic" lengthAdjust="spacing" textLength="113" x="536.5" y="325.3291">.backgroundColor</text><text fill="#000000" font-family="sans-serif" font-size="13" font-style="italic" lengthAdjust="spacing" textLength="190" x="528.5" y="340.6396">const isForcedDark = bgColor</text><text fill="#000000" font-family="sans-serif" font-size="13" lengthAdjust="spacing" textLength="8" x="528.5" y="355.9502">&#160;&#160;</text><text fill="#000000" font-family="sans-serif" font-size="13" font-style="italic" lengthAdjust="spacing" textLength="151" x="536.5" y="355.9502">!== 'rgb(255, 255, 255)'</text><text fill="#000000" font-family="sans-serif" font-size="13" font-style="italic" lengthAdjust="spacing" textLength="63" x="528.5" y="371.2607">&lt;/script&gt;</text><rect fill="#F1F1F1" height="48.2656" rx="12.5" ry="12.5" style="stroke:#181818;stroke-width:0.5;" width="136" x="756.5" y="250.3516"/><text fill="#000000" font-family="sans-serif" font-size="12" lengthAdjust="spacing" textLength="116" x="766.5" y="271.9531">Detect forced colors</text><text fill="#000000" font-family="sans-serif" font-size="12" lengthAdjust="spacing" textLength="79" x="766.5" y="286.0859">(only globally)</text><path d="M516.5,414.0029 L516.5,653.6611 A0,0 0 0 0 516.5,653.6611 L726.5,653.6611 A0,0 0 0 0 726.5,653.6611 L726.5,537.832 L746.5,533.832 L726.5,529.832 L726.5,424.0029 L716.5,414.0029 L516.5,414.0029 A0,0 0 0 0 516.5,414.0029 " fill="#FEFFDD" style="stroke:#181818;stroke-width:0.5;"/><path d="M716.5,414.0029 L716.5,424.0029 L726.5,424.0029 L716.5,414.0029 " fill="#FEFFDD" style="stroke:#181818;stroke-width:0.5;"/><text fill="#000000" font-family="sans-serif" font-size="13" font-style="italic" lengthAdjust="spacing" textLength="56" x="522.5" y="431.5713">&lt;script&gt;</text><text fill="#000000" font-family="sans-serif" font-size="13" font-style="italic" lengthAdjust="spacing" textLength="149" x="522.5" y="446.8818">const html = document</text><text fill="#000000" font-family="sans-serif" font-size="13" lengthAdjust="spacing" textLength="8" x="522.5" y="462.1924">&#160;&#160;</text><text fill="#000000" font-family="sans-serif" font-size="13" font-style="italic" lengthAdjust="spacing" textLength="140" x="530.5" y="462.1924">.querySelector("html");</text><text fill="#000000" font-family="sans-serif" font-size="13" font-style="italic" lengthAdjust="spacing" textLength="83" x="522.5" y="477.5029">const filter =</text><text fill="#000000" font-family="sans-serif" font-size="13" lengthAdjust="spacing" textLength="8" x="522.5" y="492.8135">&#160;&#160;</text><text fill="#000000" font-family="sans-serif" font-size="13" font-style="italic" lengthAdjust="spacing" textLength="152" x="530.5" y="492.8135">getComputedStyle(html)</text><text fill="#000000" font-family="sans-serif" font-size="13" lengthAdjust="spacing" textLength="8" x="522.5" y="508.124">&#160;&#160;</text><text fill="#000000" font-family="sans-serif" font-size="13" font-style="italic" lengthAdjust="spacing" textLength="38" x="530.5" y="508.124">.filter;</text><text fill="#000000" font-family="sans-serif" font-size="13" font-style="italic" lengthAdjust="spacing" textLength="157" x="522.5" y="523.4346">const isUserForcedStyles</text><text fill="#000000" font-family="sans-serif" font-size="13" lengthAdjust="spacing" textLength="8" x="522.5" y="538.7451">&#160;&#160;</text><text fill="#000000" font-family="sans-serif" font-size="13" font-style="italic" lengthAdjust="spacing" textLength="117" x="530.5" y="538.7451">= filter !== 'none';</text><text fill="#000000" font-family="sans-serif" font-size="13" font-style="italic" lengthAdjust="spacing" textLength="63" x="522.5" y="554.0557">&lt;/script&gt;</text><text fill="#000000" font-family="sans-serif" font-size="13" lengthAdjust="spacing" textLength="4" x="522.5" y="569.3662">&#160;</text><text fill="#000000" font-family="sans-serif" font-size="13" lengthAdjust="spacing" textLength="138" x="522.5" y="584.6768">Alternatively, if you're</text><text fill="#000000" font-family="sans-serif" font-size="13" lengthAdjust="spacing" textLength="163" x="522.5" y="599.9873">interested in the non-img</text><text fill="#000000" font-family="sans-serif" font-size="13" lengthAdjust="spacing" textLength="189" x="522.5" y="615.2979">element styles, you can check</text><text fill="#000000" font-family="sans-serif" font-size="13" lengthAdjust="spacing" textLength="126" x="522.5" y="630.6084">the background and</text><text fill="#000000" font-family="sans-serif" font-size="13" lengthAdjust="spacing" textLength="186" x="522.5" y="645.9189">foreground-related attributes</text><rect fill="#F1F1F1" height="34.1328" rx="12.5" ry="12.5" style="stroke:#181818;stroke-width:0.5;" width="156" x="746.5" y="516.7656"/><text fill="#000000" font-family="sans-serif" font-size="12" lengthAdjust="spacing" textLength="136" x="756.5" y="538.3672">Detect user's stylesheet</text><path d="M517.5,663.6611 L517.5,780.835 A0,0 0 0 0 517.5,780.835 L763.5,780.835 A0,0 0 0 0 763.5,780.835 L763.5,726.248 L783.5,722.248 L763.5,718.248 L763.5,673.6611 L753.5,663.6611 L517.5,663.6611 A0,0 0 0 0 517.5,663.6611 " fill="#FEFFDD" style="stroke:#181818;stroke-width:0.5;"/><path d="M753.5,663.6611 L753.5,673.6611 L763.5,673.6611 L753.5,663.6611 " fill="#FEFFDD" style="stroke:#181818;stroke-width:0.5;"/><text fill="#000000" font-family="sans-serif" font-size="13" lengthAdjust="spacing" textLength="121" x="523.5" y="681.2295">In its crudest form:</text><text fill="#000000" font-family="sans-serif" font-size="13" font-style="italic" lengthAdjust="spacing" textLength="37" x="648.5" y="681.2295">alert("</text><text fill="#000000" font-family="sans-serif" font-size="13" lengthAdjust="spacing" textLength="8" x="523.5" y="696.54">&#160;&#160;</text><text fill="#000000" font-family="sans-serif" font-size="13" font-style="italic" lengthAdjust="spacing" textLength="150" x="531.5" y="696.54">Please note that you are</text><text fill="#000000" font-family="sans-serif" font-size="13" lengthAdjust="spacing" textLength="8" x="523.5" y="711.8506">&#160;&#160;</text><text fill="#000000" font-family="sans-serif" font-size="13" font-style="italic" lengthAdjust="spacing" textLength="170" x="531.5" y="711.8506">currently viewing this page</text><text fill="#000000" font-family="sans-serif" font-size="13" lengthAdjust="spacing" textLength="8" x="523.5" y="727.1611">&#160;&#160;</text><text fill="#000000" font-family="sans-serif" font-size="13" font-style="italic" lengthAdjust="spacing" textLength="177" x="531.5" y="727.1611">with custom browser styles,</text><text fill="#000000" font-family="sans-serif" font-size="13" lengthAdjust="spacing" textLength="8" x="523.5" y="742.4717">&#160;&#160;</text><text fill="#000000" font-family="sans-serif" font-size="13" font-style="italic" lengthAdjust="spacing" textLength="195" x="531.5" y="742.4717">which may affect the rendering</text><text fill="#000000" font-family="sans-serif" font-size="13" lengthAdjust="spacing" textLength="8" x="523.5" y="757.7822">&#160;&#160;</text><text fill="#000000" font-family="sans-serif" font-size="13" font-style="italic" lengthAdjust="spacing" textLength="217" x="531.5" y="757.7822">of product image colors compared</text><text fill="#000000" font-family="sans-serif" font-size="13" lengthAdjust="spacing" textLength="8" x="523.5" y="773.0928">&#160;&#160;</text><text fill="#000000" font-family="sans-serif" font-size="13" font-style="italic" lengthAdjust="spacing" textLength="166" x="531.5" y="773.0928">to their original capture.");</text><rect fill="#F1F1F1" height="34.1328" rx="12.5" ry="12.5" style="stroke:#181818;stroke-width:0.5;" width="82" x="783.5" y="705.1816"/><text fill="#000000" font-family="sans-serif" font-size="12" lengthAdjust="spacing" textLength="62" x="793.5" y="726.7832">Notify user</text><polygon fill="#F1F1F1" points="460,786.835,472,798.835,460,810.835,448,798.835,460,786.835" style="stroke:#181818;stroke-width:0.5;"/><path d="M651,820.835 L651,898.3877 L631,902.3877 L651,906.3877 L651,983.9404 A0,0 0 0 0 651,983.9404 L983,983.9404 A0,0 0 0 0 983,983.9404 L983,830.835 L973,820.835 L651,820.835 A0,0 0 0 0 651,820.835 " fill="#FEFFDD" style="stroke:#181818;stroke-width:0.5;"/><path d="M973,820.835 L973,830.835 L983,830.835 L973,820.835 " fill="#FEFFDD" style="stroke:#181818;stroke-width:0.5;"/><text fill="#000000" font-family="sans-serif" font-size="13" font-style="italic" lengthAdjust="spacing" textLength="245" x="657" y="838.4033">@media (prefers-color-scheme: dark) {</text><text fill="#000000" font-family="sans-serif" font-size="13" font-style="italic" lengthAdjust="spacing" textLength="192" x="673" y="853.7139">div { background-color/*...*/ }</text><text fill="#000000" font-family="sans-serif" font-size="13" font-style="italic" lengthAdjust="spacing" textLength="4" x="657" y="869.0244">}</text><text fill="#000000" font-family="sans-serif" font-size="13" font-style="italic" lengthAdjust="spacing" textLength="56" x="657" y="884.335">&lt;script&gt;</text><text fill="#000000" font-family="sans-serif" font-size="13" lengthAdjust="spacing" textLength="16" x="657" y="899.6455">&#160;&#160;&#160;&#160;</text><text fill="#000000" font-family="sans-serif" font-size="13" font-style="italic" lengthAdjust="spacing" textLength="295" x="673" y="899.6455">if (matchMedia("(prefers-color-scheme: dark)")</text><text fill="#000000" font-family="sans-serif" font-size="13" lengthAdjust="spacing" textLength="24" x="657" y="914.9561">&#160;&#160;&#160;&#160;&#160;&#160;</text><text fill="#000000" font-family="sans-serif" font-size="13" font-style="italic" lengthAdjust="spacing" textLength="69" x="681" y="914.9561">.matches) {</text><text fill="#000000" font-family="sans-serif" font-size="13" lengthAdjust="spacing" textLength="32" x="657" y="930.2666">&#160;&#160;&#160;&#160;&#160;&#160;&#160;&#160;</text><text fill="#000000" font-family="sans-serif" font-size="13" font-style="italic" lengthAdjust="spacing" textLength="234" x="689" y="930.2666">// choose or replace image url with a</text><text fill="#000000" font-family="sans-serif" font-size="13" lengthAdjust="spacing" textLength="32" x="657" y="945.5771">&#160;&#160;&#160;&#160;&#160;&#160;&#160;&#160;</text><text fill="#000000" font-family="sans-serif" font-size="13" font-style="italic" lengthAdjust="spacing" textLength="238" x="689" y="945.5771">// one compliant with the dark theme</text><text fill="#000000" font-family="sans-serif" font-size="13" lengthAdjust="spacing" textLength="16" x="657" y="960.8877">&#160;&#160;&#160;&#160;</text><text fill="#000000" font-family="sans-serif" font-size="13" font-style="italic" lengthAdjust="spacing" textLength="4" x="673" y="960.8877">}</text><text fill="#000000" font-family="sans-serif" font-size="13" font-style="italic" lengthAdjust="spacing" textLength="56" x="657" y="976.1982">&lt;script&gt;</text><rect fill="#F1F1F1" height="34.1328" rx="12.5" ry="12.5" style="stroke:#181818;stroke-width:0.5;" width="342" x="289" y="885.3213"/><text fill="#000000" font-family="sans-serif" font-size="12" lengthAdjust="spacing" textLength="322" x="299" y="906.9229">(Optionally) implement media-based light/dark scheme</text><polygon fill="#F1F1F1" points="339,87.4883,581,87.4883,593,99.4883,581,111.4883,339,111.4883,327,99.4883,339,87.4883" style="stroke:#181818;stroke-width:0.5;"/><text fill="#000000" font-family="sans-serif" font-size="11" lengthAdjust="spacing" textLength="18" x="464" y="122.123">yes</text><text fill="#000000" font-family="sans-serif" font-size="11" lengthAdjust="spacing" textLength="242" x="339" y="103.6455">Specific elements need to have correct colors</text><polygon fill="#F1F1F1" points="460,1003.9404,472,1015.9404,460,1027.9404,448,1015.9404,460,1003.9404" style="stroke:#181818;stroke-width:0.5;"/><ellipse cx="460" cy="1058.9404" fill="none" rx="11" ry="11" style="stroke:#222222;stroke-width:1.0;"/><ellipse cx="460" cy="1058.9404" fill="#222222" rx="6" ry="6" style="stroke:#222222;stroke-width:1.0;"/><line style="stroke:#181818;stroke-width:1.0;" x1="95.5" x2="95.5" y1="222.6533" y2="333.6279"/><polygon fill="#181818" points="91.5,323.6279,95.5,333.6279,99.5,323.6279,95.5,327.6279" style="stroke:#181818;stroke-width:1.0;"/><line style="stroke:#181818;stroke-width:1.0;" x1="824.5" x2="824.5" y1="298.6172" y2="516.7656"/><polygon fill="#181818" points="820.5,506.7656,824.5,516.7656,828.5,506.7656,824.5,510.7656" style="stroke:#181818;stroke-width:1.0;"/><line style="stroke:#181818;stroke-width:1.0;" x1="824.5" x2="824.5" y1="550.8984" y2="705.1816"/><polygon fill="#181818" points="820.5,695.1816,824.5,705.1816,828.5,695.1816,824.5,699.1816" style="stroke:#181818;stroke-width:1.0;"/><line style="stroke:#181818;stroke-width:1.0;" x1="380.5" x2="95.5" y1="147.9658" y2="147.9658"/><line style="stroke:#181818;stroke-width:1.0;" x1="95.5" x2="95.5" y1="147.9658" y2="188.5205"/><polygon fill="#181818" points="91.5,178.5205,95.5,188.5205,99.5,178.5205,95.5,182.5205" style="stroke:#181818;stroke-width:1.0;"/><line style="stroke:#181818;stroke-width:1.0;" x1="539.5" x2="824.5" y1="147.9658" y2="147.9658"/><line style="stroke:#181818;stroke-width:1.0;" x1="824.5" x2="824.5" y1="147.9658" y2="250.3516"/><polygon fill="#181818" points="820.5,240.3516,824.5,250.3516,828.5,240.3516,824.5,244.3516" style="stroke:#181818;stroke-width:1.0;"/><line style="stroke:#181818;stroke-width:1.0;" x1="95.5" x2="95.5" y1="381.8936" y2="798.835"/><line style="stroke:#181818;stroke-width:1.0;" x1="95.5" x2="448" y1="798.835" y2="798.835"/><polygon fill="#181818" points="438,794.835,448,798.835,438,802.835,442,798.835" style="stroke:#181818;stroke-width:1.0;"/><line style="stroke:#181818;stroke-width:1.0;" x1="824.5" x2="824.5" y1="739.3145" y2="798.835"/><line style="stroke:#181818;stroke-width:1.0;" x1="824.5" x2="472" y1="798.835" y2="798.835"/><polygon fill="#181818" points="482,794.835,472,798.835,482,802.835,478,798.835" style="stroke:#181818;stroke-width:1.0;"/><line style="stroke:#181818;stroke-width:1.0;" x1="460" x2="460" y1="810.835" y2="885.3213"/><polygon fill="#181818" points="456,875.3213,460,885.3213,464,875.3213,460,879.3213" style="stroke:#181818;stroke-width:1.0;"/><line style="stroke:#181818;stroke-width:1.0;" x1="460" x2="460" y1="111.4883" y2="135.9658"/><polygon fill="#181818" points="456,125.9658,460,135.9658,464,125.9658,460,129.9658" style="stroke:#181818;stroke-width:1.0;"/><line style="stroke:#181818;stroke-width:1.0;" x1="593" x2="993" y1="99.4883" y2="99.4883"/><polygon fill="#181818" points="989,574.9531,993,584.9531,997,574.9531,993,578.9531" style="stroke:#181818;stroke-width:1.0;"/><line style="stroke:#181818;stroke-width:1.0;" x1="993" x2="993" y1="99.4883" y2="1015.9404"/><line style="stroke:#181818;stroke-width:1.0;" x1="993" x2="472" y1="1015.9404" y2="1015.9404"/><polygon fill="#181818" points="482,1011.9404,472,1015.9404,482,1019.9404,478,1015.9404" style="stroke:#181818;stroke-width:1.0;"/><line style="stroke:#181818;stroke-width:1.0;" x1="460" x2="460" y1="919.4541" y2="1003.9404"/><polygon fill="#181818" points="456,993.9404,460,1003.9404,464,993.9404,460,997.9404" style="stroke:#181818;stroke-width:1.0;"/><line style="stroke:#181818;stroke-width:1.0;" x1="460" x2="460" y1="67.4883" y2="87.4883"/><polygon fill="#181818" points="456,77.4883,460,87.4883,464,77.4883,460,81.4883" style="stroke:#181818;stroke-width:1.0;"/><line style="stroke:#181818;stroke-width:1.0;" x1="460" x2="460" y1="1027.9404" y2="1047.9404"/><polygon fill="#181818" points="456,1037.9404,460,1047.9404,464,1037.9404,460,1041.9404" style="stroke:#181818;stroke-width:1.0;"/><!--SRC=[ZLPDZvn64BtpAyhaC8mr7r8aNsQMTQArh4IAuqWJtt9fe83MDjsakvaLMlc_fwg1WHbFB5zs1DJdUrMlrdbXVUIbLmWVZSsnW4BOPsXCWI2Twn2SKPsNHhj8bf2SMinbAND0XGrgxq0ZENa3jJWZvCPQp3tzAcFT6doD6f8UtJfuVpwZjP92EzyhT60iQEDbsR-VJCreiOuE7wGJ6TLL3dKD8OyHEI1OMTK- -ktlJtzie58c4qhr1tYGZmyDUW5QD9Z6mMFhyfegZH_syZ42DicDzbHv6XkjUb0SATu_XkzKJ-Uahk3fT8Ai1qTTvjxOm-0fcmfUOHds07EG8tmDGL0Nt1L6XqkxdKExScFNDQB_HoUTjgWaTxY-QkgBwxWRniCo1o12DQLK7Yq8pn-WzesA59vHRI3hFFIcWqRqy2AqPpAA4Jlf8_8GkeVME2VvLV0Q6-8m5C0K_GQ6veOq1sf08xoHJMkifvZ74RxWjNt1x5dwxV_PZZX47mEzUikHB-CIAWsDPbGUCM7HUQ9Nwj1O9lBdoffE5v4W78bx71x1JPCdlBUIcaPtY71NxJPSq-ot3Vnm1S0H0k7ZYztC3Ig7a0p3nxE6diVsQjI8eq3kD5yJJGfB7_6e5V8CiaZZ8ZZJYiG3m-bYs8Y8Leb-0Eaulx-jzm2vq6VXZl4mYHn_Jmdc9vTRsVhBCqsnyt193IaK9kyOupd9xjyERNyQXpXP_NGnNwsFru6owedBW7Jshj0_cQObe8iJjvLSlDUB57CZJnFCSrJf1b7vm9gIJabcxpTf2YjRPSdFxzvjOFgpNiqGBBkU5skawvkrkcNeBcOyz3y2Lyo6yIrGunv-3oVsMq8qk1nleVb2rG_m13StUwHJbe0FJyxgU1-Iw5Usqy9BMcfUuf8NR6Kn-dQrnbMCnbKSOTk4ZQJX0nAq_3cwNa9UeMXUmYr9bk2GymukMFapR5DWPKd4xvfao45kkm9TsB4cIBLGQ7sos9M_50g78HWLB0PL4nONqjtHUT6Ubl8iyOM5sjUaaAse5aOlqjUGTywR1Z9hNgYSgTU5KItpEaYcA4kU9UwROXTeAUniPqfehIawif0DfHcrWNwQbaehPajINOeXBHqrMKaj587Q-ixYRfgXMNnq8Slea7nkUPk2jb3qTkIbmKAARKPG5CDXsOUJF1oSgrD1MNy9rf2q5akqRdjzdDXn3Q_JxB1-isYzmgtyxD_kThkt-r6voVJhNTqP3m2VyaRulFx4oPFuUzdZzSLps8RWIFyGZ6K1N3xjzpI3nj08a11P9DtCSKIzime2h-AE4vyVveEkAS4Np9ZDW9hdKfQrts_iXXgQdVO_]--></g></svg>