<?xml version="1.0" encoding="us-ascii" standalone="no"?><svg xmlns="http://www.w3.org/2000/svg" xmlns:xlink="http://www.w3.org/1999/xlink" contentStyleType="text/css" height="1065px" preserveAspectRatio="none" style="width:1098px;height:1065px;background:#FFFFFF;" version="1.1" viewBox="0 0 1098 1065" width="1098px" zoomAndPan="magnify"><defs/><g><text fill="#000000" font-family="sans-serif" font-size="14" font-weight="bold" lengthAdjust="spacing" textLength="480" x="307.5" y="33.5352">Mo&#380;liwe rozwi&#261;zania problem&#243;w z wymuszonym trybem ciemnym</text><ellipse cx="501" cy="57.4883" fill="#222222" rx="10" ry="10" style="stroke:#222222;stroke-width:1.0;"/><polygon fill="#F1F1F1" points="418,135.9658,584,135.9658,596,147.9658,584,159.9658,418,159.9658,406,147.9658,418,135.9658" style="stroke:#181818;stroke-width:0.5;"/><text fill="#000000" font-family="sans-serif" font-size="11" lengthAdjust="spacing" textLength="166" x="418" y="152.123">Zast&#261;pi&#263; style czy powiadomi&#263;?</text><text fill="#000000" font-family="sans-serif" font-size="11" lengthAdjust="spacing" textLength="44" x="362" y="145.6455">zast&#261;pi&#263;</text><text fill="#000000" font-family="sans-serif" font-size="11" lengthAdjust="spacing" textLength="64" x="596" y="145.6455">powiadomi&#263;</text><path d="M170,169.9658 L170,209.2422 L150,213.2422 L170,217.2422 L170,256.5186 A0,0 0 0 0 170,256.5186 L403,256.5186 A0,0 0 0 0 403,256.5186 L403,179.9658 L393,169.9658 L170,169.9658 A0,0 0 0 0 170,169.9658 " fill="#FEFFDD" style="stroke:#181818;stroke-width:0.5;"/><path d="M393,169.9658 L393,179.9658 L403,179.9658 L393,169.9658 " fill="#FEFFDD" style="stroke:#181818;stroke-width:0.5;"/><text fill="#000000" font-family="sans-serif" font-size="13" lengthAdjust="spacing" textLength="141" x="176" y="187.5342">Globalnie przez HTML:</text><text fill="#000000" font-family="sans-serif" font-size="13" lengthAdjust="spacing" textLength="8" x="176" y="202.8447">&#160;&#160;</text><text fill="#000000" font-family="sans-serif" font-size="13" font-style="italic" lengthAdjust="spacing" textLength="187" x="184" y="202.8447">&lt;meta name="color-scheme"</text><text fill="#000000" font-family="sans-serif" font-size="13" lengthAdjust="spacing" textLength="16" x="176" y="218.1553">&#160;&#160;&#160;&#160;</text><text fill="#000000" font-family="sans-serif" font-size="13" font-style="italic" lengthAdjust="spacing" textLength="145" x="192" y="218.1553">content="only light"/&gt;</text><text fill="#000000" font-family="sans-serif" font-size="13" lengthAdjust="spacing" textLength="185" x="176" y="233.4658">lub za pomoc&#261; selektora CSS:</text><text fill="#000000" font-family="sans-serif" font-size="13" lengthAdjust="spacing" textLength="8" x="176" y="248.7764">&#160;&#160;</text><text fill="#000000" font-family="sans-serif" font-size="13" font-style="italic" lengthAdjust="spacing" textLength="204" x="184" y="248.7764">img { color-scheme: only light; }</text><rect fill="#F1F1F1" height="48.2656" rx="12.5" ry="12.5" style="stroke:#181818;stroke-width:0.5;" width="139" x="11" y="189.1094"/><text fill="#000000" font-family="sans-serif" font-size="12" lengthAdjust="spacing" textLength="103" x="21" y="210.7109">Wy&#322;&#261;cz mo&#380;liwo&#347;&#263;</text><text fill="#000000" font-family="sans-serif" font-size="12" lengthAdjust="spacing" textLength="119" x="21" y="224.8438">wymuszenia kolor&#243;w</text><path d="M165.5,291.5186 L165.5,361.416 L145.5,365.416 L165.5,369.416 L165.5,439.3135 A0,0 0 0 0 165.5,439.3135 L517.5,439.3135 A0,0 0 0 0 517.5,439.3135 L517.5,301.5186 L507.5,291.5186 L165.5,291.5186 A0,0 0 0 0 165.5,291.5186 " fill="#FEFFDD" style="stroke:#181818;stroke-width:0.5;"/><path d="M507.5,291.5186 L507.5,301.5186 L517.5,301.5186 L507.5,291.5186 " fill="#FEFFDD" style="stroke:#181818;stroke-width:0.5;"/><text fill="#000000" font-family="sans-serif" font-size="13" lengthAdjust="spacing" textLength="302" x="171.5" y="309.0869">Zwykle na poziomie HTML znajduje si&#281; filtr CSS,</text><text fill="#000000" font-family="sans-serif" font-size="13" lengthAdjust="spacing" textLength="282" x="171.5" y="324.3975">ale mo&#380;esz chcie&#263; go wy&#322;&#261;czy&#263; na dowolnym</text><text fill="#000000" font-family="sans-serif" font-size="13" lengthAdjust="spacing" textLength="130" x="171.5" y="339.708">mo&#380;liwym poziomie:</text><text fill="#000000" font-family="sans-serif" font-size="13" lengthAdjust="spacing" textLength="8" x="171.5" y="355.0186">&#160;&#160;</text><text fill="#000000" font-family="sans-serif" font-size="13" font-style="italic" lengthAdjust="spacing" textLength="255" x="179.5" y="355.0186">html, body, img { filter: none !important;</text><text fill="#000000" font-family="sans-serif" font-size="13" lengthAdjust="spacing" textLength="16" x="171.5" y="370.3291">&#160;&#160;&#160;&#160;</text><text fill="#000000" font-family="sans-serif" font-size="13" font-style="italic" lengthAdjust="spacing" textLength="209" x="187.5" y="370.3291">-webkit-filter: none !important; }</text><text fill="#000000" font-family="sans-serif" font-size="13" lengthAdjust="spacing" textLength="4" x="171.5" y="385.6396">&#160;</text><text fill="#000000" font-family="sans-serif" font-size="13" lengthAdjust="spacing" textLength="331" x="171.5" y="400.9502">W przypadku element&#243;w innych ni&#380; obrazy mog&#261; Ci&#281;</text><text fill="#000000" font-family="sans-serif" font-size="13" lengthAdjust="spacing" textLength="319" x="171.5" y="416.2607">zainteresowa&#263; atrybuty specyficzne dla koloru t&#322;a i</text><text fill="#000000" font-family="sans-serif" font-size="13" lengthAdjust="spacing" textLength="138" x="171.5" y="431.5713">pierwszego planu: np.</text><text fill="#000000" font-family="sans-serif" font-size="13" font-style="italic" lengthAdjust="spacing" textLength="115" x="313.5" y="431.5713">background-color</text><text fill="#000000" font-family="sans-serif" font-size="13" lengthAdjust="spacing" textLength="4" x="432.5" y="431.5713">i</text><text fill="#000000" font-family="sans-serif" font-size="13" font-style="italic" lengthAdjust="spacing" textLength="32" x="440.5" y="431.5713">color</text><text fill="#000000" font-family="sans-serif" font-size="13" lengthAdjust="spacing" textLength="4" x="472.5" y="431.5713">.</text><rect fill="#F1F1F1" height="76.5313" rx="12.5" ry="12.5" style="stroke:#181818;stroke-width:0.5;" width="130" x="15.5" y="327.1504"/><text fill="#000000" font-family="sans-serif" font-size="12" lengthAdjust="spacing" textLength="98" x="25.5" y="348.752">Nadpisz arkusze</text><text fill="#000000" font-family="sans-serif" font-size="12" lengthAdjust="spacing" textLength="110" x="25.5" y="362.8848">styl&#243;w u&#380;ytkownika</text><text fill="#000000" font-family="sans-serif" font-size="12" lengthAdjust="spacing" textLength="55" x="25.5" y="377.0176">(trudne w</text><text fill="#000000" font-family="sans-serif" font-size="12" lengthAdjust="spacing" textLength="85" x="33.5" y="391.1504">implementacji)</text><path d="M606.5,169.9658 L606.5,379.0029 A0,0 0 0 0 606.5,379.0029 L820.5,379.0029 A0,0 0 0 0 820.5,379.0029 L820.5,278.4844 L840.5,274.4844 L820.5,270.4844 L820.5,179.9658 L810.5,169.9658 L606.5,169.9658 A0,0 0 0 0 606.5,169.9658 " fill="#FEFFDD" style="stroke:#181818;stroke-width:0.5;"/><path d="M810.5,169.9658 L810.5,179.9658 L820.5,179.9658 L810.5,169.9658 " fill="#FEFFDD" style="stroke:#181818;stroke-width:0.5;"/><text fill="#000000" font-family="sans-serif" font-size="13" font-style="italic" lengthAdjust="spacing" textLength="173" x="612.5" y="187.5342">&lt;div id="detection" style="</text><text fill="#000000" font-family="sans-serif" font-size="13" font-style="italic" lengthAdjust="spacing" textLength="88" x="620.5" y="202.8447">display: none;</text><text fill="#000000" font-family="sans-serif" font-size="13" font-style="italic" lengthAdjust="spacing" textLength="185" x="620.5" y="218.1553">background-color: canvas;"&gt;</text><text fill="#000000" font-family="sans-serif" font-size="13" font-style="italic" lengthAdjust="spacing" textLength="46" x="612.5" y="233.4658">&lt;/div&gt;</text><text fill="#000000" font-family="sans-serif" font-size="13" font-style="italic" lengthAdjust="spacing" textLength="56" x="612.5" y="248.7764">&lt;script&gt;</text><text fill="#000000" font-family="sans-serif" font-size="13" font-style="italic" lengthAdjust="spacing" textLength="179" x="612.5" y="264.0869">const detection = document</text><text fill="#000000" font-family="sans-serif" font-size="13" font-style="italic" lengthAdjust="spacing" textLength="174" x="620.5" y="279.3975">.querySelector('#detection');</text><text fill="#000000" font-family="sans-serif" font-size="13" font-style="italic" lengthAdjust="spacing" textLength="103" x="612.5" y="294.708">const bgColor =</text><text fill="#000000" font-family="sans-serif" font-size="13" font-style="italic" lengthAdjust="spacing" textLength="182" x="620.5" y="310.0186">getComputedStyle(detection)</text><text fill="#000000" font-family="sans-serif" font-size="13" font-style="italic" lengthAdjust="spacing" textLength="113" x="620.5" y="325.3291">.backgroundColor</text><text fill="#000000" font-family="sans-serif" font-size="13" font-style="italic" lengthAdjust="spacing" textLength="190" x="612.5" y="340.6396">const isForcedDark = bgColor</text><text fill="#000000" font-family="sans-serif" font-size="13" font-style="italic" lengthAdjust="spacing" textLength="151" x="620.5" y="355.9502">!== 'rgb(255, 255, 255)'</text><text fill="#000000" font-family="sans-serif" font-size="13" font-style="italic" lengthAdjust="spacing" textLength="63" x="612.5" y="371.2607">&lt;/script&gt;</text><rect fill="#F1F1F1" height="48.2656" rx="12.5" ry="12.5" style="stroke:#181818;stroke-width:0.5;" width="162" x="840.5" y="250.3516"/><text fill="#000000" font-family="sans-serif" font-size="12" lengthAdjust="spacing" textLength="109" x="850.5" y="271.9531">Wykryj wymuszone</text><text fill="#000000" font-family="sans-serif" font-size="12" lengthAdjust="spacing" textLength="142" x="850.5" y="286.0859">kolory (jedynie globanie)</text><path d="M583.5,414.0029 L583.5,638.3506 A0,0 0 0 0 583.5,638.3506 L836.5,638.3506 A0,0 0 0 0 836.5,638.3506 L836.5,530.1768 L856.5,526.1768 L836.5,522.1768 L836.5,424.0029 L826.5,414.0029 L583.5,414.0029 A0,0 0 0 0 583.5,414.0029 " fill="#FEFFDD" style="stroke:#181818;stroke-width:0.5;"/><path d="M826.5,414.0029 L826.5,424.0029 L836.5,424.0029 L826.5,414.0029 " fill="#FEFFDD" style="stroke:#181818;stroke-width:0.5;"/><text fill="#000000" font-family="sans-serif" font-size="13" font-style="italic" lengthAdjust="spacing" textLength="56" x="589.5" y="431.5713">&lt;script&gt;</text><text fill="#000000" font-family="sans-serif" font-size="13" font-style="italic" lengthAdjust="spacing" textLength="149" x="589.5" y="446.8818">const html = document</text><text fill="#000000" font-family="sans-serif" font-size="13" font-style="italic" lengthAdjust="spacing" textLength="140" x="597.5" y="462.1924">.querySelector("html");</text><text fill="#000000" font-family="sans-serif" font-size="13" font-style="italic" lengthAdjust="spacing" textLength="83" x="589.5" y="477.5029">const filter =</text><text fill="#000000" font-family="sans-serif" font-size="13" font-style="italic" lengthAdjust="spacing" textLength="152" x="597.5" y="492.8135">getComputedStyle(html)</text><text fill="#000000" font-family="sans-serif" font-size="13" font-style="italic" lengthAdjust="spacing" textLength="38" x="597.5" y="508.124">.filter;</text><text fill="#000000" font-family="sans-serif" font-size="13" font-style="italic" lengthAdjust="spacing" textLength="157" x="589.5" y="523.4346">const isUserForcedStyles</text><text fill="#000000" font-family="sans-serif" font-size="13" font-style="italic" lengthAdjust="spacing" textLength="117" x="597.5" y="538.7451">= filter !== 'none';</text><text fill="#000000" font-family="sans-serif" font-size="13" font-style="italic" lengthAdjust="spacing" textLength="63" x="589.5" y="554.0557">&lt;/script&gt;</text><text fill="#000000" font-family="sans-serif" font-size="13" lengthAdjust="spacing" textLength="4" x="589.5" y="569.3662">&#160;</text><text fill="#000000" font-family="sans-serif" font-size="13" lengthAdjust="spacing" textLength="186" x="589.5" y="584.6768">Alternatywnie, je&#347;li interesuj&#261;</text><text fill="#000000" font-family="sans-serif" font-size="13" lengthAdjust="spacing" textLength="185" x="589.5" y="599.9873">Ci&#281; elementy inne ni&#380; obrazy,</text><text fill="#000000" font-family="sans-serif" font-size="13" lengthAdjust="spacing" textLength="232" x="589.5" y="615.2979">mo&#380;esz sprawdzi&#263; atrybuty zwi&#261;zane</text><text fill="#000000" font-family="sans-serif" font-size="13" lengthAdjust="spacing" textLength="205" x="589.5" y="630.6084">z kolorem t&#322;a i pierwszego planu</text><rect fill="#F1F1F1" height="48.2656" rx="12.5" ry="12.5" style="stroke:#181818;stroke-width:0.5;" width="130" x="856.5" y="502.0439"/><text fill="#000000" font-family="sans-serif" font-size="12" lengthAdjust="spacing" textLength="88" x="866.5" y="523.6455">Wykryj arkusze</text><text fill="#000000" font-family="sans-serif" font-size="12" lengthAdjust="spacing" textLength="110" x="866.5" y="537.7783">styl&#243;w u&#380;ytkownika</text><path d="M537.5,648.3506 L537.5,765.5244 A0,0 0 0 0 537.5,765.5244 L824.5,765.5244 A0,0 0 0 0 824.5,765.5244 L824.5,710.9375 L844.5,706.9375 L824.5,702.9375 L824.5,658.3506 L814.5,648.3506 L537.5,648.3506 A0,0 0 0 0 537.5,648.3506 " fill="#FEFFDD" style="stroke:#181818;stroke-width:0.5;"/><path d="M814.5,648.3506 L814.5,658.3506 L824.5,658.3506 L814.5,648.3506 " fill="#FEFFDD" style="stroke:#181818;stroke-width:0.5;"/><text fill="#000000" font-family="sans-serif" font-size="13" lengthAdjust="spacing" textLength="142" x="543.5" y="665.9189">W prymitywny spos&#243;b:</text><text fill="#000000" font-family="sans-serif" font-size="13" font-style="italic" lengthAdjust="spacing" textLength="171" x="543.5" y="681.2295">alert("Przegl&#261;dasz t&#281; stron&#281;</text><text fill="#000000" font-family="sans-serif" font-size="13" lengthAdjust="spacing" textLength="8" x="543.5" y="696.54">&#160;&#160;</text><text fill="#000000" font-family="sans-serif" font-size="13" font-style="italic" lengthAdjust="spacing" textLength="240" x="551.5" y="696.54">przy wykorzystaniu niestandardowych</text><text fill="#000000" font-family="sans-serif" font-size="13" lengthAdjust="spacing" textLength="8" x="543.5" y="711.8506">&#160;&#160;</text><text fill="#000000" font-family="sans-serif" font-size="13" font-style="italic" lengthAdjust="spacing" textLength="218" x="551.5" y="711.8506">styl&#243;w przegl&#261;darki, co mo&#380;e mie&#263;</text><text fill="#000000" font-family="sans-serif" font-size="13" lengthAdjust="spacing" textLength="8" x="543.5" y="727.1611">&#160;&#160;</text><text fill="#000000" font-family="sans-serif" font-size="13" font-style="italic" lengthAdjust="spacing" textLength="258" x="551.5" y="727.1611">wp&#322;yw na renderowanie kolor&#243;w obraz&#243;w</text><text fill="#000000" font-family="sans-serif" font-size="13" lengthAdjust="spacing" textLength="8" x="543.5" y="742.4717">&#160;&#160;</text><text fill="#000000" font-family="sans-serif" font-size="13" font-style="italic" lengthAdjust="spacing" textLength="194" x="551.5" y="742.4717">produkt&#243;w w por&#243;wnaniu z ich</text><text fill="#000000" font-family="sans-serif" font-size="13" lengthAdjust="spacing" textLength="8" x="543.5" y="757.7822">&#160;&#160;</text><text fill="#000000" font-family="sans-serif" font-size="13" font-style="italic" lengthAdjust="spacing" textLength="201" x="551.5" y="757.7822">oryginalnym odwzorowaniem.");</text><rect fill="#F1F1F1" height="34.1328" rx="12.5" ry="12.5" style="stroke:#181818;stroke-width:0.5;" width="154" x="844.5" y="689.8711"/><text fill="#000000" font-family="sans-serif" font-size="12" lengthAdjust="spacing" textLength="134" x="854.5" y="711.4727">Powiadom u&#380;ytkownika</text><polygon fill="#F1F1F1" points="501,771.5244,513,783.5244,501,795.5244,489,783.5244,501,771.5244" style="stroke:#181818;stroke-width:0.5;"/><path d="M730,805.5244 L730,883.0771 L710,887.0771 L730,891.0771 L730,968.6299 A0,0 0 0 0 730,968.6299 L1062,968.6299 A0,0 0 0 0 1062,968.6299 L1062,815.5244 L1052,805.5244 L730,805.5244 A0,0 0 0 0 730,805.5244 " fill="#FEFFDD" style="stroke:#181818;stroke-width:0.5;"/><path d="M1052,805.5244 L1052,815.5244 L1062,815.5244 L1052,805.5244 " fill="#FEFFDD" style="stroke:#181818;stroke-width:0.5;"/><text fill="#000000" font-family="sans-serif" font-size="13" font-style="italic" lengthAdjust="spacing" textLength="245" x="736" y="823.0928">@media (prefers-color-scheme: dark) {</text><text fill="#000000" font-family="sans-serif" font-size="13" font-style="italic" lengthAdjust="spacing" textLength="192" x="752" y="838.4033">div { background-color/*...*/ }</text><text fill="#000000" font-family="sans-serif" font-size="13" font-style="italic" lengthAdjust="spacing" textLength="4" x="736" y="853.7139">}</text><text fill="#000000" font-family="sans-serif" font-size="13" font-style="italic" lengthAdjust="spacing" textLength="56" x="736" y="869.0244">&lt;script&gt;</text><text fill="#000000" font-family="sans-serif" font-size="13" font-style="italic" lengthAdjust="spacing" textLength="295" x="752" y="884.335">if (matchMedia("(prefers-color-scheme: dark)")</text><text fill="#000000" font-family="sans-serif" font-size="13" font-style="italic" lengthAdjust="spacing" textLength="69" x="760" y="899.6455">.matches) {</text><text fill="#000000" font-family="sans-serif" font-size="13" font-style="italic" lengthAdjust="spacing" textLength="249" x="768" y="914.9561">// wybierz lub zamie&#324; &#378;r&#243;d&#322;o obrazu na</text><text fill="#000000" font-family="sans-serif" font-size="13" font-style="italic" lengthAdjust="spacing" textLength="274" x="768" y="930.2666">// takie, kt&#243;re pasuje do motywu ciemnego</text><text fill="#000000" font-family="sans-serif" font-size="13" font-style="italic" lengthAdjust="spacing" textLength="4" x="752" y="945.5771">}</text><text fill="#000000" font-family="sans-serif" font-size="13" font-style="italic" lengthAdjust="spacing" textLength="56" x="736" y="960.8877">&lt;script&gt;</text><rect fill="#F1F1F1" height="34.1328" rx="12.5" ry="12.5" style="stroke:#181818;stroke-width:0.5;" width="418" x="292" y="870.0107"/><text fill="#000000" font-family="sans-serif" font-size="12" lengthAdjust="spacing" textLength="398" x="302" y="891.6123">(Opcjonalnie) zaimplementuj schemat ciemny oparty na mediach CSS</text><polygon fill="#F1F1F1" points="352,87.4883,650,87.4883,662,99.4883,650,111.4883,352,111.4883,340,99.4883,352,87.4883" style="stroke:#181818;stroke-width:0.5;"/><text fill="#000000" font-family="sans-serif" font-size="11" lengthAdjust="spacing" textLength="16" x="505" y="122.123">tak</text><text fill="#000000" font-family="sans-serif" font-size="11" lengthAdjust="spacing" textLength="298" x="352" y="103.6455">Poszczeg&#243;lne elementy musz&#261; mie&#263; odpowiednie kolory</text><polygon fill="#F1F1F1" points="501,988.6299,513,1000.6299,501,1012.6299,489,1000.6299,501,988.6299" style="stroke:#181818;stroke-width:0.5;"/><ellipse cx="501" cy="1043.6299" fill="none" rx="11" ry="11" style="stroke:#222222;stroke-width:1.0;"/><ellipse cx="501" cy="1043.6299" fill="#222222" rx="6" ry="6" style="stroke:#222222;stroke-width:1.0;"/><line style="stroke:#181818;stroke-width:1.0;" x1="80.5" x2="80.5" y1="237.375" y2="327.1504"/><polygon fill="#181818" points="76.5,317.1504,80.5,327.1504,84.5,317.1504,80.5,321.1504" style="stroke:#181818;stroke-width:1.0;"/><line style="stroke:#181818;stroke-width:1.0;" x1="921.5" x2="921.5" y1="298.6172" y2="502.0439"/><polygon fill="#181818" points="917.5,492.0439,921.5,502.0439,925.5,492.0439,921.5,496.0439" style="stroke:#181818;stroke-width:1.0;"/><line style="stroke:#181818;stroke-width:1.0;" x1="921.5" x2="921.5" y1="550.3096" y2="689.8711"/><polygon fill="#181818" points="917.5,679.8711,921.5,689.8711,925.5,679.8711,921.5,683.8711" style="stroke:#181818;stroke-width:1.0;"/><line style="stroke:#181818;stroke-width:1.0;" x1="406" x2="80.5" y1="147.9658" y2="147.9658"/><line style="stroke:#181818;stroke-width:1.0;" x1="80.5" x2="80.5" y1="147.9658" y2="189.1094"/><polygon fill="#181818" points="76.5,179.1094,80.5,189.1094,84.5,179.1094,80.5,183.1094" style="stroke:#181818;stroke-width:1.0;"/><line style="stroke:#181818;stroke-width:1.0;" x1="596" x2="921.5" y1="147.9658" y2="147.9658"/><line style="stroke:#181818;stroke-width:1.0;" x1="921.5" x2="921.5" y1="147.9658" y2="250.3516"/><polygon fill="#181818" points="917.5,240.3516,921.5,250.3516,925.5,240.3516,921.5,244.3516" style="stroke:#181818;stroke-width:1.0;"/><line style="stroke:#181818;stroke-width:1.0;" x1="80.5" x2="80.5" y1="403.6816" y2="783.5244"/><line style="stroke:#181818;stroke-width:1.0;" x1="80.5" x2="489" y1="783.5244" y2="783.5244"/><polygon fill="#181818" points="479,779.5244,489,783.5244,479,787.5244,483,783.5244" style="stroke:#181818;stroke-width:1.0;"/><line style="stroke:#181818;stroke-width:1.0;" x1="921.5" x2="921.5" y1="724.0039" y2="783.5244"/><line style="stroke:#181818;stroke-width:1.0;" x1="921.5" x2="513" y1="783.5244" y2="783.5244"/><polygon fill="#181818" points="523,779.5244,513,783.5244,523,787.5244,519,783.5244" style="stroke:#181818;stroke-width:1.0;"/><line style="stroke:#181818;stroke-width:1.0;" x1="501" x2="501" y1="795.5244" y2="870.0107"/><polygon fill="#181818" points="497,860.0107,501,870.0107,505,860.0107,501,864.0107" style="stroke:#181818;stroke-width:1.0;"/><line style="stroke:#181818;stroke-width:1.0;" x1="501" x2="501" y1="111.4883" y2="135.9658"/><polygon fill="#181818" points="497,125.9658,501,135.9658,505,125.9658,501,129.9658" style="stroke:#181818;stroke-width:1.0;"/><line style="stroke:#181818;stroke-width:1.0;" x1="662" x2="1072" y1="99.4883" y2="99.4883"/><polygon fill="#181818" points="1068,567.2979,1072,577.2979,1076,567.2979,1072,571.2979" style="stroke:#181818;stroke-width:1.0;"/><line style="stroke:#181818;stroke-width:1.0;" x1="1072" x2="1072" y1="99.4883" y2="1000.6299"/><line style="stroke:#181818;stroke-width:1.0;" x1="1072" x2="513" y1="1000.6299" y2="1000.6299"/><polygon fill="#181818" points="523,996.6299,513,1000.6299,523,1004.6299,519,1000.6299" style="stroke:#181818;stroke-width:1.0;"/><line style="stroke:#181818;stroke-width:1.0;" x1="501" x2="501" y1="904.1436" y2="988.6299"/><polygon fill="#181818" points="497,978.6299,501,988.6299,505,978.6299,501,982.6299" style="stroke:#181818;stroke-width:1.0;"/><line style="stroke:#181818;stroke-width:1.0;" x1="501" x2="501" y1="67.4883" y2="87.4883"/><polygon fill="#181818" points="497,77.4883,501,87.4883,505,77.4883,501,81.4883" style="stroke:#181818;stroke-width:1.0;"/><line style="stroke:#181818;stroke-width:1.0;" x1="501" x2="501" y1="1012.6299" y2="1032.6299"/><polygon fill="#181818" points="497,1022.6299,501,1032.6299,505,1022.6299,501,1026.6299" style="stroke:#181818;stroke-width:1.0;"/><!--SRC=[ZLRDRjj64BxpAIRimL8WIq21N2JBRU6YxQ5k3BX5WC2N9NT5hKZkihjB4sIGYr4Xpn3aCNmhVBFqNftXZqWBjb4VR56Uds- - -MQ6rZ7ZF2TT8k1IxnyIMGWmkYhaRbin9HbaHWU9I1_l2wYWADFSLbgLAJXJ1YA5K8eK7psvWj6LjbLOYUZnFb4217e9vKeWbzqMKYbsNq3pJ1TIS2K5n3hHfXo3Mmi58yVYSHtc8xDkjyqaMbjN8h2mAe6y6DSfVlj3vr4T3CVU_4EvlzjjmmhIfWoz_xRxSgCQn88ggTDX7GjFQOTLocZjl5yJ7R24q6Ic4XNyzkVbxtCFu4oUdwN2CL0i5Ki_9DzJ6wwn9lzi9i_Hf3OAjN9OvTBNAYaXePZ-xBosIF80AYHGfph4-YqI4Zjj65nSNxSfP1h19nW6dqCVQ06Vwq12SI38tlmFnZDfAs0cfgfk5154hSdt3wMBTQ5ap6xKo9cSOmkA6mKWqwpf10itSloa-8z56IE_Ya1M4iaLTVrGARRX-KQ0bRkli9A9CmHwuZ6q9du5OWZNOTtHIACi6kvBVCHWN1Sw8L6qhK2rTF7RkjSkJIOGQ5vEeE60aWWpnpeHznl4h8rZoYs6N9yM8eYbEtt9jgNB-q2zB3F6uxnJ8N4abIh3DIYvVm0T68QgIdM4dRd0AhsAIUoa4LON3CjWfEySrMip4POh6LQOYoUjYd9m-pi6qikaC0Ls0ad84gPo19LD2Ml0mZWoEbVyj6ul8GFPAAPzdFQD5OaLC1fel1PqRChDOUImsSsym6WZU4cAZKYx-A5hQY9MpYFXSdaBaYzzBfm8dTJARoPfsKWNJG2uj8YuR5XSzDyV0vz3oDGjiml_l3Cwcs62_ic6HcRky8mJOHqSKiCIzH3cr8G-oVJlN9Zo6fiJuaICJhuxc9-C5qy31T45mO1bxnq9Tw7JB7U2NrDPeuFtU92YB-IYOxoFAkqlseI2_uoJX0ZR9Bttc-KIJamKZBv_zsu2tQ_nIK_1iEf-GDkclJgVnzrwbZ-QaFz3dK-6_Z5fpOIyoXdv3UbgN1R7DFrbXMcegjrixx7iijHSaOfE5i_Ju_r4Tegv4kiN4zY8_RT4GZjl-MQtzMW4-uk1aog6SphnkgLZCyCANidXX7R7IdXLCvrubfhnXEFn77JggXss5rj3MwHC9O6cBQ3jutqmf-9m2Hetyg_mNaJ9RiiPud88tpgZrUvhkx7GaBOGpc-iyQ_53ILpB4hG9yuCBadSHhrnfvJi4DR4SeAteLcupVdipOjiVrSMj6qDrYGCRgt3IQKmDN7uOOX6ypokDo5cgQrKZQa2EGI2AoQIYj42nsjTLBgDdKuxcVLhIt6vykQZzrcuqQe-esCyUOUBas-WlchCjUy9e3DytoW9TYguPBYEyQuykKc8uCVwVxWFZLW9Oq-VtaSYPWoVUY7IBhl54tAykMPlfzFfsrbx5T3qyqihYsBGcmS23TUNb7palvRT7myzSNXgHs6FOD7FR8OA25265JJl0zZ7_J-m_nVvv_ixtJGAXS6UySHN8feNQfh15nHcwIPpKWIgCcyuHMqFFP-lyQXZrkdiFm00]--></g></svg>