<?xml version="1.0" encoding="UTF-8" standalone="no"?><svg xmlns="http://www.w3.org/2000/svg" xmlns:xlink="http://www.w3.org/1999/xlink" contentScriptType="application/ecmascript" contentStyleType="text/css" height="1011px" preserveAspectRatio="none" style="width:966px;height:1011px;" version="1.1" viewBox="0 0 966 1011" width="966px" zoomAndPan="magnify"><defs><filter height="300%" id="f1mk2kf747oyfm" width="300%" x="-1" y="-1"><feGaussianBlur result="blurOut" stdDeviation="2.0"/><feColorMatrix in="blurOut" result="blurOut2" type="matrix" values="0 0 0 0 0 0 0 0 0 0 0 0 0 0 0 0 0 0 .4 0"/><feOffset dx="4.0" dy="4.0" in="blurOut2" result="blurOut3"/><feBlend in="SourceGraphic" in2="blurOut3" mode="normal"/></filter></defs><g><!--MD5=[1c9b1d2e9243e736b0f72b6c5d1b7f6b]
class SupportSQLiteOpenHelper--><rect width="100%" height="100%" fill="white"/><rect fill="#FEFECE" filter="url(#f1mk2kf747oyfm)" height="99.2188" id="SupportSQLiteOpenHelper" style="stroke: #A80036; stroke-width: 1.5;" width="191" x="665.5" y="498"/><ellipse cx="680.5" cy="514" fill="#B4A7E5" rx="11" ry="11" style="stroke: #A80036; stroke-width: 1.0;"/><path d="M681.4531,510.7813 L683.1719,510.7813 C683.5625,510.7813 683.75,510.75 683.875,510.6719 C684.1406,510.5156 684.2813,510.2344 684.2813,509.9375 C684.2813,509.6719 684.1719,509.4063 683.9375,509.2344 C683.7656,509.125 683.625,509.0938 683.1719,509.0938 L678.0313,509.0938 C677.5938,509.0938 677.4688,509.1094 677.3125,509.2031 C677.0625,509.3594 676.9063,509.6563 676.9063,509.9375 C676.9063,510.2188 677.0469,510.4688 677.2656,510.6406 C677.4219,510.75 677.6094,510.7813 678.0313,510.7813 L679.75,510.7813 L679.75,517.2969 L678.0313,517.2969 C677.5938,517.2969 677.4688,517.3125 677.3125,517.4219 C677.0625,517.5781 676.9063,517.8594 676.9063,518.1563 C676.9063,518.4063 677.0469,518.6719 677.2656,518.8281 C677.4219,518.9531 677.625,519 678.0313,519 L683.1719,519 C683.9219,519 684.2813,518.7188 684.2813,518.1563 C684.2813,517.875 684.1719,517.625 683.9375,517.4531 C683.7656,517.3281 683.625,517.2969 683.1719,517.2969 L681.4531,517.2969 L681.4531,510.7813 Z "/><text fill="#000000" font-family="sans-serif" font-size="12" font-style="italic" lengthAdjust="spacingAndGlyphs" textLength="159" x="694.5" y="518.1543">SupportSQLiteOpenHelper</text><line style="stroke: #A80036; stroke-width: 1.5;" x1="666.5" x2="855.5" y1="530" y2="530"/><line style="stroke: #A80036; stroke-width: 1.5;" x1="666.5" x2="855.5" y1="538" y2="538"/><text fill="#000000" font-family="sans-serif" font-size="11" lengthAdjust="spacingAndGlyphs" textLength="116" x="671.5" y="552.2104">getDatabaseName()</text><text fill="#000000" font-family="sans-serif" font-size="11" lengthAdjust="spacingAndGlyphs" textLength="129" x="671.5" y="565.0151">getWritableDatabase()</text><text fill="#000000" font-family="sans-serif" font-size="11" lengthAdjust="spacingAndGlyphs" textLength="136" x="671.5" y="577.8198">getReadableDatabase()</text><text fill="#000000" font-family="sans-serif" font-size="11" lengthAdjust="spacingAndGlyphs" textLength="38" x="671.5" y="590.6245">close()</text><!--MD5=[a77822a8c48f55e5ad47275dd23e540d]
class SupportSQLiteOpenHelper.Callback--><rect fill="#FEFECE" filter="url(#f1mk2kf747oyfm)" height="124.8281" id="SupportSQLiteOpenHelper.Callback" style="stroke: #A80036; stroke-width: 1.5;" width="245" x="91.5" y="485"/><ellipse cx="106.5" cy="501" fill="#A9DCDF" rx="11" ry="11" style="stroke: #A80036; stroke-width: 1.0;"/><path d="M108.5781,502.8125 L108.9688,503.7969 L108.5781,503.7969 C108.125,503.7969 108.0156,503.8125 107.8594,503.9219 C107.6094,504.0781 107.4531,504.3594 107.4531,504.6563 C107.4531,504.9219 107.5938,505.1719 107.8125,505.3281 C107.9531,505.4531 108.1563,505.5 108.5781,505.5 L110.9375,505.5 C111.2969,505.5 111.5156,505.4688 111.6563,505.375 C111.9063,505.2344 112.0625,504.9375 112.0625,504.6563 C112.0625,504.375 111.9219,504.125 111.7031,503.9688 C111.5313,503.8281 111.375,503.7969 110.9063,503.7969 L107.5156,495.5938 L103.8438,495.5938 C103.3906,495.5938 103.2656,495.6094 103.1094,495.7031 C102.8594,495.875 102.7031,496.1563 102.7031,496.4375 C102.7031,496.7188 102.8438,496.9688 103.0625,497.1406 C103.2344,497.25 103.4063,497.2813 103.8438,497.2813 L104.9219,497.2813 L102.2813,503.7969 C101.8594,503.7969 101.7031,503.8125 101.5469,503.9219 C101.2969,504.0781 101.1406,504.3594 101.1406,504.6563 C101.1406,505.2188 101.5156,505.5 102.2656,505.5 L104.5313,505.5 C104.8906,505.5 105.1094,505.4688 105.2344,505.375 C105.5,505.2344 105.6406,504.9375 105.6406,504.6563 C105.6406,504.375 105.5156,504.125 105.2969,503.9531 C105.125,503.8281 104.9844,503.7969 104.5313,503.7969 L104.1406,503.7969 L104.5313,502.8125 L108.5781,502.8125 Z M107.875,501.1094 L105.2031,501.1094 L106.5469,497.8438 L107.875,501.1094 Z "/><text fill="#000000" font-family="sans-serif" font-size="12" font-style="italic" lengthAdjust="spacingAndGlyphs" textLength="213" x="120.5" y="505.1543">SupportSQLiteOpenHelper.Callback</text><line style="stroke: #A80036; stroke-width: 1.5;" x1="92.5" x2="335.5" y1="517" y2="517"/><line style="stroke: #A80036; stroke-width: 1.5;" x1="92.5" x2="335.5" y1="525" y2="525"/><text fill="#000000" font-family="sans-serif" font-size="11" lengthAdjust="spacingAndGlyphs" textLength="87" x="97.5" y="539.2104">onDowngrade()</text><text fill="#000000" font-family="sans-serif" font-size="11" lengthAdjust="spacingAndGlyphs" textLength="61" x="97.5" y="552.0151">onCreate()</text><text fill="#000000" font-family="sans-serif" font-size="11" lengthAdjust="spacingAndGlyphs" textLength="53" x="97.5" y="564.8198">onOpen()</text><text fill="#000000" font-family="sans-serif" font-size="11" lengthAdjust="spacingAndGlyphs" textLength="77" x="97.5" y="577.6245">onConfigure()</text><text fill="#000000" font-family="sans-serif" font-size="11" lengthAdjust="spacingAndGlyphs" textLength="80" x="97.5" y="590.4292">onCorruption()</text><text fill="#000000" font-family="sans-serif" font-size="11" lengthAdjust="spacingAndGlyphs" textLength="70" x="97.5" y="603.2339">onUpgrade()</text><!--MD5=[5641ca2d81e366f49a29de026e3830b2]
class RoomOpenHelper--><rect fill="#FEFECE" filter="url(#f1mk2kf747oyfm)" height="48" id="RoomOpenHelper" style="stroke: #A80036; stroke-width: 1.5;" width="140" x="235" y="738"/><ellipse cx="250" cy="754" fill="#ADD1B2" rx="11" ry="11" style="stroke: #A80036; stroke-width: 1.0;"/><path d="M252.3438,749.6719 C251.4063,749.2344 250.8125,749.0938 249.9375,749.0938 C247.3125,749.0938 245.3125,751.1719 245.3125,753.8906 L245.3125,755.0156 C245.3125,757.5938 247.4219,759.4844 250.3125,759.4844 C251.5313,759.4844 252.6875,759.1875 253.4375,758.6406 C254.0156,758.2344 254.3438,757.7813 254.3438,757.3906 C254.3438,756.9375 253.9531,756.5469 253.4844,756.5469 C253.2656,756.5469 253.0625,756.625 252.875,756.8125 C252.4219,757.2969 252.4219,757.2969 252.2344,757.3906 C251.8125,757.6563 251.125,757.7813 250.3594,757.7813 C248.3125,757.7813 247.0156,756.6875 247.0156,754.9844 L247.0156,753.8906 C247.0156,752.1094 248.2656,750.7969 250,750.7969 C250.5781,750.7969 251.1875,750.9531 251.6563,751.2031 C252.1406,751.4844 252.3125,751.7031 252.4063,752.1094 C252.4688,752.5156 252.5,752.6406 252.6406,752.7656 C252.7813,752.9063 253.0156,753.0156 253.2344,753.0156 C253.5,753.0156 253.7656,752.875 253.9375,752.6563 C254.0469,752.5 254.0781,752.3125 254.0781,751.8906 L254.0781,750.4688 C254.0781,750.0313 254.0625,749.9063 253.9688,749.75 C253.8125,749.4844 253.5313,749.3438 253.2344,749.3438 C252.9375,749.3438 252.7344,749.4375 252.5156,749.75 L252.3438,749.6719 Z "/><text fill="#000000" font-family="sans-serif" font-size="12" lengthAdjust="spacingAndGlyphs" textLength="108" x="264" y="758.1543">RoomOpenHelper</text><line style="stroke: #A80036; stroke-width: 1.5;" x1="236" x2="374" y1="770" y2="770"/><line style="stroke: #A80036; stroke-width: 1.5;" x1="236" x2="374" y1="778" y2="778"/><!--MD5=[2ea8e392dc27e84722c8e6879f246831]
class RoomOpenHelper.Delegate--><rect fill="#FEFECE" filter="url(#f1mk2kf747oyfm)" height="150.4375" id="RoomOpenHelper.Delegate" style="stroke: #A80036; stroke-width: 1.5;" width="194" x="6" y="687"/><ellipse cx="21" cy="703" fill="#A9DCDF" rx="11" ry="11" style="stroke: #A80036; stroke-width: 1.0;"/><path d="M23.0781,704.8125 L23.4688,705.7969 L23.0781,705.7969 C22.625,705.7969 22.5156,705.8125 22.3594,705.9219 C22.1094,706.0781 21.9531,706.3594 21.9531,706.6563 C21.9531,706.9219 22.0938,707.1719 22.3125,707.3281 C22.4531,707.4531 22.6563,707.5 23.0781,707.5 L25.4375,707.5 C25.7969,707.5 26.0156,707.4688 26.1563,707.375 C26.4063,707.2344 26.5625,706.9375 26.5625,706.6563 C26.5625,706.375 26.4219,706.125 26.2031,705.9688 C26.0313,705.8281 25.875,705.7969 25.4063,705.7969 L22.0156,697.5938 L18.3438,697.5938 C17.8906,697.5938 17.7656,697.6094 17.6094,697.7031 C17.3594,697.875 17.2031,698.1563 17.2031,698.4375 C17.2031,698.7188 17.3438,698.9688 17.5625,699.1406 C17.7344,699.25 17.9063,699.2813 18.3438,699.2813 L19.4219,699.2813 L16.7813,705.7969 C16.3594,705.7969 16.2031,705.8125 16.0469,705.9219 C15.7969,706.0781 15.6406,706.3594 15.6406,706.6563 C15.6406,707.2188 16.0156,707.5 16.7656,707.5 L19.0313,707.5 C19.3906,707.5 19.6094,707.4688 19.7344,707.375 C20,707.2344 20.1406,706.9375 20.1406,706.6563 C20.1406,706.375 20.0156,706.125 19.7969,705.9531 C19.625,705.8281 19.4844,705.7969 19.0313,705.7969 L18.6406,705.7969 L19.0313,704.8125 L23.0781,704.8125 Z M22.375,703.1094 L19.7031,703.1094 L21.0469,699.8438 L22.375,703.1094 Z "/><text fill="#000000" font-family="sans-serif" font-size="12" font-style="italic" lengthAdjust="spacingAndGlyphs" textLength="162" x="35" y="707.1543">RoomOpenHelper.Delegate</text><line style="stroke: #A80036; stroke-width: 1.5;" x1="7" x2="199" y1="719" y2="719"/><line style="stroke: #A80036; stroke-width: 1.5;" x1="7" x2="199" y1="727" y2="727"/><text fill="#000000" font-family="sans-serif" font-size="11" lengthAdjust="spacingAndGlyphs" textLength="85" x="12" y="741.2104">dropAllTables()</text><text fill="#000000" font-family="sans-serif" font-size="11" lengthAdjust="spacingAndGlyphs" textLength="97" x="12" y="754.0151">createAllTables()</text><text fill="#000000" font-family="sans-serif" font-size="11" lengthAdjust="spacingAndGlyphs" textLength="53" x="12" y="766.8198">onOpen()</text><text fill="#000000" font-family="sans-serif" font-size="11" lengthAdjust="spacingAndGlyphs" textLength="61" x="12" y="779.6245">onCreate()</text><text fill="#000000" font-family="sans-serif" font-size="11" lengthAdjust="spacingAndGlyphs" textLength="105" x="12" y="792.4292">validateMigration()</text><text fill="#000000" font-family="sans-serif" font-size="11" lengthAdjust="spacingAndGlyphs" textLength="116" x="12" y="805.2339">onValidateSchema()</text><text fill="#000000" font-family="sans-serif" font-size="11" lengthAdjust="spacingAndGlyphs" textLength="82" x="12" y="818.0386">onPreMigrate()</text><text fill="#000000" font-family="sans-serif" font-size="11" lengthAdjust="spacingAndGlyphs" textLength="87" x="12" y="830.8433">onPostMigrate()</text><!--MD5=[d71bbc1f738241305f3f67bef5a52b55]
class RoomDatabase--><rect fill="#FEFECE" filter="url(#f1mk2kf747oyfm)" height="86.4141" id="RoomDatabase" style="stroke: #A80036; stroke-width: 1.5;" width="122" x="215" y="184"/><ellipse cx="230" cy="200" fill="#A9DCDF" rx="11" ry="11" style="stroke: #A80036; stroke-width: 1.0;"/><path d="M232.0781,201.8125 L232.4688,202.7969 L232.0781,202.7969 C231.625,202.7969 231.5156,202.8125 231.3594,202.9219 C231.1094,203.0781 230.9531,203.3594 230.9531,203.6563 C230.9531,203.9219 231.0938,204.1719 231.3125,204.3281 C231.4531,204.4531 231.6563,204.5 232.0781,204.5 L234.4375,204.5 C234.7969,204.5 235.0156,204.4688 235.1563,204.375 C235.4063,204.2344 235.5625,203.9375 235.5625,203.6563 C235.5625,203.375 235.4219,203.125 235.2031,202.9688 C235.0313,202.8281 234.875,202.7969 234.4063,202.7969 L231.0156,194.5938 L227.3438,194.5938 C226.8906,194.5938 226.7656,194.6094 226.6094,194.7031 C226.3594,194.875 226.2031,195.1563 226.2031,195.4375 C226.2031,195.7188 226.3438,195.9688 226.5625,196.1406 C226.7344,196.25 226.9063,196.2813 227.3438,196.2813 L228.4219,196.2813 L225.7813,202.7969 C225.3594,202.7969 225.2031,202.8125 225.0469,202.9219 C224.7969,203.0781 224.6406,203.3594 224.6406,203.6563 C224.6406,204.2188 225.0156,204.5 225.7656,204.5 L228.0313,204.5 C228.3906,204.5 228.6094,204.4688 228.7344,204.375 C229,204.2344 229.1406,203.9375 229.1406,203.6563 C229.1406,203.375 229.0156,203.125 228.7969,202.9531 C228.625,202.8281 228.4844,202.7969 228.0313,202.7969 L227.6406,202.7969 L228.0313,201.8125 L232.0781,201.8125 Z M231.375,200.1094 L228.7031,200.1094 L230.0469,196.8438 L231.375,200.1094 Z "/><text fill="#000000" font-family="sans-serif" font-size="12" font-style="italic" lengthAdjust="spacingAndGlyphs" textLength="90" x="244" y="204.1543">RoomDatabase</text><line style="stroke: #A80036; stroke-width: 1.5;" x1="216" x2="336" y1="216" y2="216"/><line style="stroke: #A80036; stroke-width: 1.5;" x1="216" x2="336" y1="224" y2="224"/><text fill="#000000" font-family="sans-serif" font-size="11" lengthAdjust="spacingAndGlyphs" textLength="41" x="221" y="238.2104">query()</text><text fill="#000000" font-family="sans-serif" font-size="11" lengthAdjust="spacingAndGlyphs" textLength="29" x="221" y="251.0151">dao()</text><text fill="#000000" font-family="sans-serif" font-size="11" lengthAdjust="spacingAndGlyphs" textLength="75" x="221" y="263.8198">openHelper()</text><!--MD5=[6adbfddbf7c43aef435a00677528307e]
class RoomDatabase.Callback--><rect fill="#FEFECE" filter="url(#f1mk2kf747oyfm)" height="86.4141" id="RoomDatabase.Callback" style="stroke: #A80036; stroke-width: 1.5;" width="176" x="596" y="914"/><ellipse cx="611" cy="930" fill="#A9DCDF" rx="11" ry="11" style="stroke: #A80036; stroke-width: 1.0;"/><path d="M613.0781,931.8125 L613.4688,932.7969 L613.0781,932.7969 C612.625,932.7969 612.5156,932.8125 612.3594,932.9219 C612.1094,933.0781 611.9531,933.3594 611.9531,933.6563 C611.9531,933.9219 612.0938,934.1719 612.3125,934.3281 C612.4531,934.4531 612.6563,934.5 613.0781,934.5 L615.4375,934.5 C615.7969,934.5 616.0156,934.4688 616.1563,934.375 C616.4063,934.2344 616.5625,933.9375 616.5625,933.6563 C616.5625,933.375 616.4219,933.125 616.2031,932.9688 C616.0313,932.8281 615.875,932.7969 615.4063,932.7969 L612.0156,924.5938 L608.3438,924.5938 C607.8906,924.5938 607.7656,924.6094 607.6094,924.7031 C607.3594,924.875 607.2031,925.1563 607.2031,925.4375 C607.2031,925.7188 607.3438,925.9688 607.5625,926.1406 C607.7344,926.25 607.9063,926.2813 608.3438,926.2813 L609.4219,926.2813 L606.7813,932.7969 C606.3594,932.7969 606.2031,932.8125 606.0469,932.9219 C605.7969,933.0781 605.6406,933.3594 605.6406,933.6563 C605.6406,934.2188 606.0156,934.5 606.7656,934.5 L609.0313,934.5 C609.3906,934.5 609.6094,934.4688 609.7344,934.375 C610,934.2344 610.1406,933.9375 610.1406,933.6563 C610.1406,933.375 610.0156,933.125 609.7969,932.9531 C609.625,932.8281 609.4844,932.7969 609.0313,932.7969 L608.6406,932.7969 L609.0313,931.8125 L613.0781,931.8125 Z M612.375,930.1094 L609.7031,930.1094 L611.0469,926.8438 L612.375,930.1094 Z "/><text fill="#000000" font-family="sans-serif" font-size="12" font-style="italic" lengthAdjust="spacingAndGlyphs" textLength="144" x="625" y="934.1543">RoomDatabase.Callback</text><line style="stroke: #A80036; stroke-width: 1.5;" x1="597" x2="771" y1="946" y2="946"/><line style="stroke: #A80036; stroke-width: 1.5;" x1="597" x2="771" y1="954" y2="954"/><text fill="#000000" font-family="sans-serif" font-size="11" lengthAdjust="spacingAndGlyphs" textLength="61" x="602" y="968.2104">onCreate()</text><text fill="#000000" font-family="sans-serif" font-size="11" lengthAdjust="spacingAndGlyphs" textLength="53" x="602" y="981.0151">onOpen()</text><text fill="#000000" font-family="sans-serif" font-size="11" lengthAdjust="spacingAndGlyphs" textLength="139" x="602" y="993.8198">onDestructiveMigration()</text><!--MD5=[4a040f903318e9fa136c292e1b35f601]
class SupportSQLiteOpenHelper.Factory--><rect fill="#FEFECE" filter="url(#f1mk2kf747oyfm)" height="60.8047" id="SupportSQLiteOpenHelper.Factory" style="stroke: #A80036; stroke-width: 1.5;" width="364" x="302" y="347"/><ellipse cx="375.75" cy="363" fill="#B4A7E5" rx="11" ry="11" style="stroke: #A80036; stroke-width: 1.0;"/><path d="M376.7031,359.7813 L378.4219,359.7813 C378.8125,359.7813 379,359.75 379.125,359.6719 C379.3906,359.5156 379.5313,359.2344 379.5313,358.9375 C379.5313,358.6719 379.4219,358.4063 379.1875,358.2344 C379.0156,358.125 378.875,358.0938 378.4219,358.0938 L373.2813,358.0938 C372.8438,358.0938 372.7188,358.1094 372.5625,358.2031 C372.3125,358.3594 372.1563,358.6563 372.1563,358.9375 C372.1563,359.2188 372.2969,359.4688 372.5156,359.6406 C372.6719,359.75 372.8594,359.7813 373.2813,359.7813 L375,359.7813 L375,366.2969 L373.2813,366.2969 C372.8438,366.2969 372.7188,366.3125 372.5625,366.4219 C372.3125,366.5781 372.1563,366.8594 372.1563,367.1563 C372.1563,367.4063 372.2969,367.6719 372.5156,367.8281 C372.6719,367.9531 372.875,368 373.2813,368 L378.4219,368 C379.1719,368 379.5313,367.7188 379.5313,367.1563 C379.5313,366.875 379.4219,366.625 379.1875,366.4531 C379.0156,366.3281 378.875,366.2969 378.4219,366.2969 L376.7031,366.2969 L376.7031,359.7813 Z "/><text fill="#000000" font-family="sans-serif" font-size="12" font-style="italic" lengthAdjust="spacingAndGlyphs" textLength="208" x="396.25" y="367.1543">SupportSQLiteOpenHelper.Factory</text><line style="stroke: #A80036; stroke-width: 1.5;" x1="303" x2="665" y1="379" y2="379"/><line style="stroke: #A80036; stroke-width: 1.5;" x1="303" x2="665" y1="387" y2="387"/><text fill="#000000" font-family="sans-serif" font-size="11" lengthAdjust="spacingAndGlyphs" textLength="352" x="308" y="401.2104">SupportSQLiteOpenHelper create(Configuration configuration)</text><!--MD5=[0a33e3c00d03fdc0cc0c0370a88e4b05]
class RoomDatabase.Builder--><rect fill="#FEFECE" filter="url(#f1mk2kf747oyfm)" height="99.2188" id="RoomDatabase.Builder" style="stroke: #A80036; stroke-width: 1.5;" width="194" x="387" y="8"/><ellipse cx="413.7" cy="24" fill="#ADD1B2" rx="11" ry="11" style="stroke: #A80036; stroke-width: 1.0;"/><path d="M416.0438,19.6719 C415.1063,19.2344 414.5125,19.0938 413.6375,19.0938 C411.0125,19.0938 409.0125,21.1719 409.0125,23.8906 L409.0125,25.0156 C409.0125,27.5938 411.1219,29.4844 414.0125,29.4844 C415.2313,29.4844 416.3875,29.1875 417.1375,28.6406 C417.7156,28.2344 418.0438,27.7813 418.0438,27.3906 C418.0438,26.9375 417.6531,26.5469 417.1844,26.5469 C416.9656,26.5469 416.7625,26.625 416.575,26.8125 C416.1219,27.2969 416.1219,27.2969 415.9344,27.3906 C415.5125,27.6563 414.825,27.7813 414.0594,27.7813 C412.0125,27.7813 410.7156,26.6875 410.7156,24.9844 L410.7156,23.8906 C410.7156,22.1094 411.9656,20.7969 413.7,20.7969 C414.2781,20.7969 414.8875,20.9531 415.3563,21.2031 C415.8406,21.4844 416.0125,21.7031 416.1063,22.1094 C416.1688,22.5156 416.2,22.6406 416.3406,22.7656 C416.4813,22.9063 416.7156,23.0156 416.9344,23.0156 C417.2,23.0156 417.4656,22.875 417.6375,22.6563 C417.7469,22.5 417.7781,22.3125 417.7781,21.8906 L417.7781,20.4688 C417.7781,20.0313 417.7625,19.9063 417.6688,19.75 C417.5125,19.4844 417.2313,19.3438 416.9344,19.3438 C416.6375,19.3438 416.4344,19.4375 416.2156,19.75 L416.0438,19.6719 Z "/><text fill="#000000" font-family="sans-serif" font-size="12" lengthAdjust="spacingAndGlyphs" textLength="136" x="430.3" y="28.1543">RoomDatabase.Builder</text><line style="stroke: #A80036; stroke-width: 1.5;" x1="388" x2="580" y1="40" y2="40"/><line style="stroke: #A80036; stroke-width: 1.5;" x1="388" x2="580" y1="48" y2="48"/><text fill="#000000" font-family="sans-serif" font-size="11" lengthAdjust="spacingAndGlyphs" textLength="182" x="393" y="62.2104">fallbackToDestructiveMigration()</text><text fill="#000000" font-family="sans-serif" font-size="11" lengthAdjust="spacingAndGlyphs" textLength="116" x="393" y="75.0151">openHelperFactory()</text><text fill="#000000" font-family="sans-serif" font-size="11" lengthAdjust="spacingAndGlyphs" textLength="76" x="393" y="87.8198">addCallback()</text><text fill="#000000" font-family="sans-serif" font-size="11" lengthAdjust="spacingAndGlyphs" textLength="86" x="393" y="100.6245">addMigrations()</text><!--MD5=[a400533a5f6fafaeec4c5648499f470c]
class FrameworkSQLiteOpenHelper--><rect fill="#FEFECE" filter="url(#f1mk2kf747oyfm)" height="48" id="FrameworkSQLiteOpenHelper" style="stroke: #A80036; stroke-width: 1.5;" width="213" x="643.5" y="738"/><ellipse cx="658.5" cy="754" fill="#ADD1B2" rx="11" ry="11" style="stroke: #A80036; stroke-width: 1.0;"/><path d="M660.8438,749.6719 C659.9063,749.2344 659.3125,749.0938 658.4375,749.0938 C655.8125,749.0938 653.8125,751.1719 653.8125,753.8906 L653.8125,755.0156 C653.8125,757.5938 655.9219,759.4844 658.8125,759.4844 C660.0313,759.4844 661.1875,759.1875 661.9375,758.6406 C662.5156,758.2344 662.8438,757.7813 662.8438,757.3906 C662.8438,756.9375 662.4531,756.5469 661.9844,756.5469 C661.7656,756.5469 661.5625,756.625 661.375,756.8125 C660.9219,757.2969 660.9219,757.2969 660.7344,757.3906 C660.3125,757.6563 659.625,757.7813 658.8594,757.7813 C656.8125,757.7813 655.5156,756.6875 655.5156,754.9844 L655.5156,753.8906 C655.5156,752.1094 656.7656,750.7969 658.5,750.7969 C659.0781,750.7969 659.6875,750.9531 660.1563,751.2031 C660.6406,751.4844 660.8125,751.7031 660.9063,752.1094 C660.9688,752.5156 661,752.6406 661.1406,752.7656 C661.2813,752.9063 661.5156,753.0156 661.7344,753.0156 C662,753.0156 662.2656,752.875 662.4375,752.6563 C662.5469,752.5 662.5781,752.3125 662.5781,751.8906 L662.5781,750.4688 C662.5781,750.0313 662.5625,749.9063 662.4688,749.75 C662.3125,749.4844 662.0313,749.3438 661.7344,749.3438 C661.4375,749.3438 661.2344,749.4375 661.0156,749.75 L660.8438,749.6719 Z "/><text fill="#000000" font-family="sans-serif" font-size="12" lengthAdjust="spacingAndGlyphs" textLength="181" x="672.5" y="758.1543">FrameworkSQLiteOpenHelper</text><line style="stroke: #A80036; stroke-width: 1.5;" x1="644.5" x2="855.5" y1="770" y2="770"/><line style="stroke: #A80036; stroke-width: 1.5;" x1="644.5" x2="855.5" y1="778" y2="778"/><!--MD5=[ec401eda3c24e19e68064e4348677d2d]
class FrameworkSQLiteOpenHelperFactory--><rect fill="#FEFECE" filter="url(#f1mk2kf747oyfm)" height="48" id="FrameworkSQLiteOpenHelperFactory" style="stroke: #A80036; stroke-width: 1.5;" width="258" x="372" y="523.5"/><ellipse cx="387" cy="539.5" fill="#ADD1B2" rx="11" ry="11" style="stroke: #A80036; stroke-width: 1.0;"/><path d="M389.3438,535.1719 C388.4063,534.7344 387.8125,534.5938 386.9375,534.5938 C384.3125,534.5938 382.3125,536.6719 382.3125,539.3906 L382.3125,540.5156 C382.3125,543.0938 384.4219,544.9844 387.3125,544.9844 C388.5313,544.9844 389.6875,544.6875 390.4375,544.1406 C391.0156,543.7344 391.3438,543.2813 391.3438,542.8906 C391.3438,542.4375 390.9531,542.0469 390.4844,542.0469 C390.2656,542.0469 390.0625,542.125 389.875,542.3125 C389.4219,542.7969 389.4219,542.7969 389.2344,542.8906 C388.8125,543.1563 388.125,543.2813 387.3594,543.2813 C385.3125,543.2813 384.0156,542.1875 384.0156,540.4844 L384.0156,539.3906 C384.0156,537.6094 385.2656,536.2969 387,536.2969 C387.5781,536.2969 388.1875,536.4531 388.6563,536.7031 C389.1406,536.9844 389.3125,537.2031 389.4063,537.6094 C389.4688,538.0156 389.5,538.1406 389.6406,538.2656 C389.7813,538.4063 390.0156,538.5156 390.2344,538.5156 C390.5,538.5156 390.7656,538.375 390.9375,538.1563 C391.0469,538 391.0781,537.8125 391.0781,537.3906 L391.0781,535.9688 C391.0781,535.5313 391.0625,535.4063 390.9688,535.25 C390.8125,534.9844 390.5313,534.8438 390.2344,534.8438 C389.9375,534.8438 389.7344,534.9375 389.5156,535.25 L389.3438,535.1719 Z "/><text fill="#000000" font-family="sans-serif" font-size="12" lengthAdjust="spacingAndGlyphs" textLength="226" x="401" y="543.6543">FrameworkSQLiteOpenHelperFactory</text><line style="stroke: #A80036; stroke-width: 1.5;" x1="373" x2="629" y1="555.5" y2="555.5"/><line style="stroke: #A80036; stroke-width: 1.5;" x1="373" x2="629" y1="563.5" y2="563.5"/><!--MD5=[8168833d88bb4c675f24417c2a10f85b]
reverse link SupportSQLiteOpenHelper.Callback to RoomOpenHelper--><path d="M248.425,628.888 C265.118,667.869 283.929,711.795 295.106,737.895 " fill="none" id="SupportSQLiteOpenHelper.Callback&lt;-RoomOpenHelper" style="stroke: #A80036; stroke-width: 1.0;"/><polygon fill="none" points="241.882,631.39,240.443,610.249,254.751,625.879,241.882,631.39" style="stroke: #A80036; stroke-width: 1.0;"/><!--MD5=[4d134da83d35c7572fea8e6f4bf54540]
reverse link SupportSQLiteOpenHelper to FrameworkSQLiteOpenHelper--><path d="M757.432,617.418 C755.282,658.969 752.679,709.245 751.194,737.937 " fill="none" id="SupportSQLiteOpenHelper&lt;-FrameworkSQLiteOpenHelper" style="stroke: #A80036; stroke-width: 1.0;"/><polygon fill="none" points="750.452,616.863,758.476,597.252,764.433,617.587,750.452,616.863" style="stroke: #A80036; stroke-width: 1.0;"/><!--MD5=[62e69798cb767fe15677abc02396d64e]
reverse link SupportSQLiteOpenHelper.Factory to FrameworkSQLiteOpenHelperFactory--><path d="M489.051,428.418 C492.233,459.865 496.192,498.987 498.658,523.357 " fill="none" id="SupportSQLiteOpenHelper.Factory&lt;-FrameworkSQLiteOpenHelperFactory" style="stroke: #A80036; stroke-width: 1.0; stroke-dasharray: 7.0,7.0;"/><polygon fill="none" points="482.049,428.751,487,408.148,495.978,427.342,482.049,428.751" style="stroke: #A80036; stroke-width: 1.0;"/><!--MD5=[baea79fa7a5109bff4ebf9876544077e]
link SupportSQLiteOpenHelper.Callback to RoomOpenHelper.Delegate--><path d="M181.745,610.249 C169.263,634.145 154.867,661.706 141.825,686.674 " fill="none" id="SupportSQLiteOpenHelper.Callback-RoomOpenHelper.Delegate" style="stroke: #A80036; stroke-width: 1.0;"/><text fill="#000000" font-family="sans-serif" font-size="13" lengthAdjust="spacingAndGlyphs" textLength="60" x="167" y="653.0669">wywołuje</text><polygon fill="#000000" points="192.5,662.1328,195.5,668.1328,198.5,662.1328,192.5,662.1328" style="stroke: #000000; stroke-width: 1.0;"/><!--MD5=[3ad2aaa929def9ed5b7d32a1dc87295b]
link RoomOpenHelper.Delegate to RoomDatabase.Callback--><path d="M200.102,828.907 C205.726,831.816 211.38,834.54 217,837 C343.081,892.194 499.955,925.5908 595.989,942.4135 " fill="none" id="RoomOpenHelper.Delegate-RoomDatabase.Callback" style="stroke: #A80036; stroke-width: 1.0;"/><text fill="#000000" font-family="sans-serif" font-size="13" lengthAdjust="spacingAndGlyphs" textLength="60" x="342" y="880.0669">wywołuje</text><polygon fill="#000000" points="405,874.0664,411,877.0664,405,880.0664,405,874.0664" style="stroke: #000000; stroke-width: 1.0;"/><!--MD5=[0105d80eb09de455d4addd3d8d2fb67b]
link RoomDatabase to RoomOpenHelper.Delegate--><path d="M269.19,270.059 C260.97,309.479 243.806,368.151 210,408 C165.065,460.968 108.983,424.993 74,485 C38.3294,546.187 53.1864,628.109 72.3047,686.779 " fill="none" id="RoomDatabase-RoomOpenHelper.Delegate" style="stroke: #A80036; stroke-width: 1.0;"/><text fill="#000000" font-family="sans-serif" font-size="13" lengthAdjust="spacingAndGlyphs" textLength="44" x="164" y="451.0669">tworzy</text><polygon fill="#000000" points="181.5,460.1328,184.5,466.1328,187.5,460.1328,181.5,460.1328" style="stroke: #000000; stroke-width: 1.0;"/><!--MD5=[81956720e8570cf7be618910e3bfbb89]
link SupportSQLiteOpenHelper.Factory to SupportSQLiteOpenHelper--><path d="M532.884,408.148 C573.81,432.97 633.03,468.887 680.875,497.904 " fill="none" id="SupportSQLiteOpenHelper.Factory-SupportSQLiteOpenHelper" style="stroke: #A80036; stroke-width: 1.0;"/><text fill="#000000" font-family="sans-serif" font-size="13" lengthAdjust="spacingAndGlyphs" textLength="44" x="607" y="451.0669">tworzy</text><polygon fill="#000000" points="654,445.0664,660,448.0664,654,451.0664,654,445.0664" style="stroke: #000000; stroke-width: 1.0;"/><!--MD5=[4d0522892bf3a52fe8bb53d220ced74f]
link RoomDatabase to SupportSQLiteOpenHelper.Factory--><path d="M323.163,270.026 C341.349,285.475 362.645,302.68 383,317 C397.814,327.422 414.535,337.789 430.046,346.879 " fill="none" id="RoomDatabase-SupportSQLiteOpenHelper.Factory" style="stroke: #A80036; stroke-width: 1.0;"/><text fill="#000000" font-family="sans-serif" font-size="13" lengthAdjust="spacingAndGlyphs" textLength="60" x="384" y="313.0669">wywołuje</text><polygon fill="#000000" points="447,307.0664,453,310.0664,447,313.0664,447,307.0664" style="stroke: #000000; stroke-width: 1.0;"/><!--MD5=[3ac1c4815fc55241ba097faeb4948966]
link SupportSQLiteOpenHelper.Factory to SupportSQLiteOpenHelper.Callback--><path d="M436.351,408.148 C402.213,429.39 355.014,458.758 312.882,484.974 " fill="none" id="SupportSQLiteOpenHelper.Factory-SupportSQLiteOpenHelper.Callback" style="stroke: #A80036; stroke-width: 1.0;"/><polygon fill="#000000" points="390,445.0664,384,448.0664,390,451.0664,390,445.0664" style="stroke: #000000; stroke-width: 1.0;"/><text fill="#000000" font-family="sans-serif" font-size="13" lengthAdjust="spacingAndGlyphs" textLength="65" x="396" y="451.0669">otrzymuje</text><!--MD5=[231fc249ef20318b3561f1809a19fb38]
link RoomDatabase.Builder to RoomDatabase--><path d="M423.558,107.173 C393.452,131.417 357.401,160.449 328.47,183.747 " fill="none" id="RoomDatabase.Builder-RoomDatabase" style="stroke: #A80036; stroke-width: 1.0;"/><polygon fill="#000000" points="395,144.0664,389,147.0664,395,150.0664,395,144.0664" style="stroke: #000000; stroke-width: 1.0;"/><text fill="#000000" font-family="sans-serif" font-size="13" lengthAdjust="spacingAndGlyphs" textLength="37" x="401" y="150.0669">builds</text><!--MD5=[36ab9d46a67eecf3a87b2c74672bb3fd]
link RoomDatabase.Builder to SupportSQLiteOpenHelper.Factory--><path d="M484,107.144 C484,173.954 484,292.062 484,346.94 " fill="none" id="RoomDatabase.Builder-SupportSQLiteOpenHelper.Factory" style="stroke: #A80036; stroke-width: 1.0;"/><text fill="#000000" font-family="sans-serif" font-size="13" lengthAdjust="spacingAndGlyphs" textLength="50" x="485" y="231.5669">ustawia</text><polygon fill="#000000" points="505.5,240.6328,508.5,246.6328,511.5,240.6328,505.5,240.6328" style="stroke: #000000; stroke-width: 1.0;"/><!--MD5=[b5f482fb7362c68efd9b550a0c523539]
link RoomDatabase.Builder to RoomDatabase.Callback--><path d="M581.199,76.526 C706.929,102.671 910,155.768 910,226 C910,226 910,226 910,763 C910,838.847 835.482,891.226 772.025,922.0792 " fill="none" id="RoomDatabase.Builder-RoomDatabase.Callback" style="stroke: #A80036; stroke-width: 1.0;"/><text fill="#000000" font-family="sans-serif" font-size="13" lengthAdjust="spacingAndGlyphs" textLength="43" x="911" y="451.0669">dodaje</text><polygon fill="#000000" points="928,460.1328,931,466.1328,934,460.1328,928,460.1328" style="stroke: #000000; stroke-width: 1.0;"/><!--MD5=[fdbd6e17317cd6cb85728b9c68c4e43a]
link RoomDatabase to SupportSQLiteOpenHelper.Callback--><path d="M253.715,270.008 C243.03,292.254 231.226,320.409 225,347 C214.404,392.258 211.887,444.797 211.894,484.594 " fill="none" id="RoomDatabase-SupportSQLiteOpenHelper.Callback" style="stroke: #A80036; stroke-width: 1.0;"/><text fill="#000000" font-family="sans-serif" font-size="13" lengthAdjust="spacingAndGlyphs" textLength="44" x="226" y="382.0669">tworzy</text><polygon fill="#000000" points="243.5,391.1328,246.5,397.1328,249.5,391.1328,243.5,391.1328" style="stroke: #000000; stroke-width: 1.0;"/><!--MD5=[c69810ae33d03a2c0c96c691a7cab58e]
@startuml
interface SupportSQLiteOpenHelper {
    getDatabaseName()
    getWritableDatabase()
    getReadableDatabase()
    close()
}
abstract class SupportSQLiteOpenHelper.Callback {
    onDowngrade()
    onCreate()
    onOpen()
    onConfigure()
    onCorruption()
    onUpgrade()
}

class RoomOpenHelper extends SupportSQLiteOpenHelper.Callback
abstract class RoomOpenHelper.Delegate {
    dropAllTables()
    createAllTables()
    onOpen()
    onCreate()
    validateMigration()
    onValidateSchema()
    onPreMigrate()
    onPostMigrate()
}

abstract class RoomDatabase {
    query()
    dao()
    openHelper()
}
abstract class RoomDatabase.Callback {
    onCreate()
    onOpen()
    onDestructiveMigration()
}
interface SupportSQLiteOpenHelper.Factory {
    SupportSQLiteOpenHelper create(Configuration configuration)
}
class RoomDatabase.Builder {
    fallbackToDestructiveMigration()
    openHelperFactory()
    addCallback()
    addMigrations()
}
class FrameworkSQLiteOpenHelper extends SupportSQLiteOpenHelper
class FrameworkSQLiteOpenHelperFactory implements SupportSQLiteOpenHelper.Factory

SupportSQLiteOpenHelper.Callback - - RoomOpenHelper.Delegate: wywołuje >
RoomOpenHelper.Delegate - - RoomDatabase.Callback: wywołuje >

RoomDatabase - - RoomOpenHelper.Delegate: tworzy >
SupportSQLiteOpenHelper.Factory - - SupportSQLiteOpenHelper: tworzy >
RoomDatabase - - SupportSQLiteOpenHelper.Factory: wywołuje >
SupportSQLiteOpenHelper.Factory - - SupportSQLiteOpenHelper.Callback: otrzymuje >

RoomDatabase.Builder - - RoomDatabase: builds >
RoomDatabase.Builder - - SupportSQLiteOpenHelper.Factory: ustawia >
RoomDatabase.Builder - - RoomDatabase.Callback: dodaje >
RoomDatabase - - SupportSQLiteOpenHelper.Callback: tworzy >
@enduml

PlantUML version 1.2020.11(Sat May 30 10:13:43 UTC 2020)
(GPL source distribution)
Java Runtime: Java(TM) SE Runtime Environment
JVM: Java HotSpot(TM) 64-Bit Server VM
Default Encoding: UTF-8
Language: en
Country: US
--></g></svg>