<?xml version="1.0" encoding="UTF-8" standalone="no"?><svg xmlns="http://www.w3.org/2000/svg" xmlns:xlink="http://www.w3.org/1999/xlink" contentScriptType="application/ecmascript" contentStyleType="text/css" height="1011px" preserveAspectRatio="none" style="width:965px;height:1011px;" version="1.1" viewBox="0 0 965 1011" width="965px" zoomAndPan="magnify"><defs><filter height="300%" id="fpfawqdpicb02" width="300%" x="-1" y="-1"><feGaussianBlur result="blurOut" stdDeviation="2.0"/><feColorMatrix in="blurOut" result="blurOut2" type="matrix" values="0 0 0 0 0 0 0 0 0 0 0 0 0 0 0 0 0 0 .4 0"/><feOffset dx="4.0" dy="4.0" in="blurOut2" result="blurOut3"/><feBlend in="SourceGraphic" in2="blurOut3" mode="normal"/></filter></defs><g><!--MD5=[1c9b1d2e9243e736b0f72b6c5d1b7f6b]
class SupportSQLiteOpenHelper--><rect width="100%" height="100%" fill="white"/><rect fill="#FEFECE" filter="url(#fpfawqdpicb02)" height="99.2188" id="SupportSQLiteOpenHelper" style="stroke: #A80036; stroke-width: 1.5;" width="191" x="676.5" y="498"/><ellipse cx="691.5" cy="514" fill="#B4A7E5" rx="11" ry="11" style="stroke: #A80036; stroke-width: 1.0;"/><path d="M692.4531,510.7813 L694.1719,510.7813 C694.5625,510.7813 694.75,510.75 694.875,510.6719 C695.1406,510.5156 695.2813,510.2344 695.2813,509.9375 C695.2813,509.6719 695.1719,509.4063 694.9375,509.2344 C694.7656,509.125 694.625,509.0938 694.1719,509.0938 L689.0313,509.0938 C688.5938,509.0938 688.4688,509.1094 688.3125,509.2031 C688.0625,509.3594 687.9063,509.6563 687.9063,509.9375 C687.9063,510.2188 688.0469,510.4688 688.2656,510.6406 C688.4219,510.75 688.6094,510.7813 689.0313,510.7813 L690.75,510.7813 L690.75,517.2969 L689.0313,517.2969 C688.5938,517.2969 688.4688,517.3125 688.3125,517.4219 C688.0625,517.5781 687.9063,517.8594 687.9063,518.1563 C687.9063,518.4063 688.0469,518.6719 688.2656,518.8281 C688.4219,518.9531 688.625,519 689.0313,519 L694.1719,519 C694.9219,519 695.2813,518.7188 695.2813,518.1563 C695.2813,517.875 695.1719,517.625 694.9375,517.4531 C694.7656,517.3281 694.625,517.2969 694.1719,517.2969 L692.4531,517.2969 L692.4531,510.7813 Z "/><text fill="#000000" font-family="sans-serif" font-size="12" font-style="italic" lengthAdjust="spacingAndGlyphs" textLength="159" x="705.5" y="518.1543">SupportSQLiteOpenHelper</text><line style="stroke: #A80036; stroke-width: 1.5;" x1="677.5" x2="866.5" y1="530" y2="530"/><line style="stroke: #A80036; stroke-width: 1.5;" x1="677.5" x2="866.5" y1="538" y2="538"/><text fill="#000000" font-family="sans-serif" font-size="11" lengthAdjust="spacingAndGlyphs" textLength="116" x="682.5" y="552.2104">getDatabaseName()</text><text fill="#000000" font-family="sans-serif" font-size="11" lengthAdjust="spacingAndGlyphs" textLength="129" x="682.5" y="565.0151">getWritableDatabase()</text><text fill="#000000" font-family="sans-serif" font-size="11" lengthAdjust="spacingAndGlyphs" textLength="136" x="682.5" y="577.8198">getReadableDatabase()</text><text fill="#000000" font-family="sans-serif" font-size="11" lengthAdjust="spacingAndGlyphs" textLength="38" x="682.5" y="590.6245">close()</text><!--MD5=[a77822a8c48f55e5ad47275dd23e540d]
class SupportSQLiteOpenHelper.Callback--><rect fill="#FEFECE" filter="url(#fpfawqdpicb02)" height="124.8281" id="SupportSQLiteOpenHelper.Callback" style="stroke: #A80036; stroke-width: 1.5;" width="245" x="102.5" y="485"/><ellipse cx="117.5" cy="501" fill="#A9DCDF" rx="11" ry="11" style="stroke: #A80036; stroke-width: 1.0;"/><path d="M119.5781,502.8125 L119.9688,503.7969 L119.5781,503.7969 C119.125,503.7969 119.0156,503.8125 118.8594,503.9219 C118.6094,504.0781 118.4531,504.3594 118.4531,504.6563 C118.4531,504.9219 118.5938,505.1719 118.8125,505.3281 C118.9531,505.4531 119.1563,505.5 119.5781,505.5 L121.9375,505.5 C122.2969,505.5 122.5156,505.4688 122.6563,505.375 C122.9063,505.2344 123.0625,504.9375 123.0625,504.6563 C123.0625,504.375 122.9219,504.125 122.7031,503.9688 C122.5313,503.8281 122.375,503.7969 121.9063,503.7969 L118.5156,495.5938 L114.8438,495.5938 C114.3906,495.5938 114.2656,495.6094 114.1094,495.7031 C113.8594,495.875 113.7031,496.1563 113.7031,496.4375 C113.7031,496.7188 113.8438,496.9688 114.0625,497.1406 C114.2344,497.25 114.4063,497.2813 114.8438,497.2813 L115.9219,497.2813 L113.2813,503.7969 C112.8594,503.7969 112.7031,503.8125 112.5469,503.9219 C112.2969,504.0781 112.1406,504.3594 112.1406,504.6563 C112.1406,505.2188 112.5156,505.5 113.2656,505.5 L115.5313,505.5 C115.8906,505.5 116.1094,505.4688 116.2344,505.375 C116.5,505.2344 116.6406,504.9375 116.6406,504.6563 C116.6406,504.375 116.5156,504.125 116.2969,503.9531 C116.125,503.8281 115.9844,503.7969 115.5313,503.7969 L115.1406,503.7969 L115.5313,502.8125 L119.5781,502.8125 Z M118.875,501.1094 L116.2031,501.1094 L117.5469,497.8438 L118.875,501.1094 Z "/><text fill="#000000" font-family="sans-serif" font-size="12" font-style="italic" lengthAdjust="spacingAndGlyphs" textLength="213" x="131.5" y="505.1543">SupportSQLiteOpenHelper.Callback</text><line style="stroke: #A80036; stroke-width: 1.5;" x1="103.5" x2="346.5" y1="517" y2="517"/><line style="stroke: #A80036; stroke-width: 1.5;" x1="103.5" x2="346.5" y1="525" y2="525"/><text fill="#000000" font-family="sans-serif" font-size="11" lengthAdjust="spacingAndGlyphs" textLength="87" x="108.5" y="539.2104">onDowngrade()</text><text fill="#000000" font-family="sans-serif" font-size="11" lengthAdjust="spacingAndGlyphs" textLength="61" x="108.5" y="552.0151">onCreate()</text><text fill="#000000" font-family="sans-serif" font-size="11" lengthAdjust="spacingAndGlyphs" textLength="53" x="108.5" y="564.8198">onOpen()</text><text fill="#000000" font-family="sans-serif" font-size="11" lengthAdjust="spacingAndGlyphs" textLength="77" x="108.5" y="577.6245">onConfigure()</text><text fill="#000000" font-family="sans-serif" font-size="11" lengthAdjust="spacingAndGlyphs" textLength="80" x="108.5" y="590.4292">onCorruption()</text><text fill="#000000" font-family="sans-serif" font-size="11" lengthAdjust="spacingAndGlyphs" textLength="70" x="108.5" y="603.2339">onUpgrade()</text><!--MD5=[5641ca2d81e366f49a29de026e3830b2]
class RoomOpenHelper--><rect fill="#FEFECE" filter="url(#fpfawqdpicb02)" height="48" id="RoomOpenHelper" style="stroke: #A80036; stroke-width: 1.5;" width="140" x="235" y="738"/><ellipse cx="250" cy="754" fill="#ADD1B2" rx="11" ry="11" style="stroke: #A80036; stroke-width: 1.0;"/><path d="M252.3438,749.6719 C251.4063,749.2344 250.8125,749.0938 249.9375,749.0938 C247.3125,749.0938 245.3125,751.1719 245.3125,753.8906 L245.3125,755.0156 C245.3125,757.5938 247.4219,759.4844 250.3125,759.4844 C251.5313,759.4844 252.6875,759.1875 253.4375,758.6406 C254.0156,758.2344 254.3438,757.7813 254.3438,757.3906 C254.3438,756.9375 253.9531,756.5469 253.4844,756.5469 C253.2656,756.5469 253.0625,756.625 252.875,756.8125 C252.4219,757.2969 252.4219,757.2969 252.2344,757.3906 C251.8125,757.6563 251.125,757.7813 250.3594,757.7813 C248.3125,757.7813 247.0156,756.6875 247.0156,754.9844 L247.0156,753.8906 C247.0156,752.1094 248.2656,750.7969 250,750.7969 C250.5781,750.7969 251.1875,750.9531 251.6563,751.2031 C252.1406,751.4844 252.3125,751.7031 252.4063,752.1094 C252.4688,752.5156 252.5,752.6406 252.6406,752.7656 C252.7813,752.9063 253.0156,753.0156 253.2344,753.0156 C253.5,753.0156 253.7656,752.875 253.9375,752.6563 C254.0469,752.5 254.0781,752.3125 254.0781,751.8906 L254.0781,750.4688 C254.0781,750.0313 254.0625,749.9063 253.9688,749.75 C253.8125,749.4844 253.5313,749.3438 253.2344,749.3438 C252.9375,749.3438 252.7344,749.4375 252.5156,749.75 L252.3438,749.6719 Z "/><text fill="#000000" font-family="sans-serif" font-size="12" lengthAdjust="spacingAndGlyphs" textLength="108" x="264" y="758.1543">RoomOpenHelper</text><line style="stroke: #A80036; stroke-width: 1.5;" x1="236" x2="374" y1="770" y2="770"/><line style="stroke: #A80036; stroke-width: 1.5;" x1="236" x2="374" y1="778" y2="778"/><!--MD5=[2ea8e392dc27e84722c8e6879f246831]
class RoomOpenHelper.Delegate--><rect fill="#FEFECE" filter="url(#fpfawqdpicb02)" height="150.4375" id="RoomOpenHelper.Delegate" style="stroke: #A80036; stroke-width: 1.5;" width="194" x="6" y="687"/><ellipse cx="21" cy="703" fill="#A9DCDF" rx="11" ry="11" style="stroke: #A80036; stroke-width: 1.0;"/><path d="M23.0781,704.8125 L23.4688,705.7969 L23.0781,705.7969 C22.625,705.7969 22.5156,705.8125 22.3594,705.9219 C22.1094,706.0781 21.9531,706.3594 21.9531,706.6563 C21.9531,706.9219 22.0938,707.1719 22.3125,707.3281 C22.4531,707.4531 22.6563,707.5 23.0781,707.5 L25.4375,707.5 C25.7969,707.5 26.0156,707.4688 26.1563,707.375 C26.4063,707.2344 26.5625,706.9375 26.5625,706.6563 C26.5625,706.375 26.4219,706.125 26.2031,705.9688 C26.0313,705.8281 25.875,705.7969 25.4063,705.7969 L22.0156,697.5938 L18.3438,697.5938 C17.8906,697.5938 17.7656,697.6094 17.6094,697.7031 C17.3594,697.875 17.2031,698.1563 17.2031,698.4375 C17.2031,698.7188 17.3438,698.9688 17.5625,699.1406 C17.7344,699.25 17.9063,699.2813 18.3438,699.2813 L19.4219,699.2813 L16.7813,705.7969 C16.3594,705.7969 16.2031,705.8125 16.0469,705.9219 C15.7969,706.0781 15.6406,706.3594 15.6406,706.6563 C15.6406,707.2188 16.0156,707.5 16.7656,707.5 L19.0313,707.5 C19.3906,707.5 19.6094,707.4688 19.7344,707.375 C20,707.2344 20.1406,706.9375 20.1406,706.6563 C20.1406,706.375 20.0156,706.125 19.7969,705.9531 C19.625,705.8281 19.4844,705.7969 19.0313,705.7969 L18.6406,705.7969 L19.0313,704.8125 L23.0781,704.8125 Z M22.375,703.1094 L19.7031,703.1094 L21.0469,699.8438 L22.375,703.1094 Z "/><text fill="#000000" font-family="sans-serif" font-size="12" font-style="italic" lengthAdjust="spacingAndGlyphs" textLength="162" x="35" y="707.1543">RoomOpenHelper.Delegate</text><line style="stroke: #A80036; stroke-width: 1.5;" x1="7" x2="199" y1="719" y2="719"/><line style="stroke: #A80036; stroke-width: 1.5;" x1="7" x2="199" y1="727" y2="727"/><text fill="#000000" font-family="sans-serif" font-size="11" lengthAdjust="spacingAndGlyphs" textLength="85" x="12" y="741.2104">dropAllTables()</text><text fill="#000000" font-family="sans-serif" font-size="11" lengthAdjust="spacingAndGlyphs" textLength="97" x="12" y="754.0151">createAllTables()</text><text fill="#000000" font-family="sans-serif" font-size="11" lengthAdjust="spacingAndGlyphs" textLength="53" x="12" y="766.8198">onOpen()</text><text fill="#000000" font-family="sans-serif" font-size="11" lengthAdjust="spacingAndGlyphs" textLength="61" x="12" y="779.6245">onCreate()</text><text fill="#000000" font-family="sans-serif" font-size="11" lengthAdjust="spacingAndGlyphs" textLength="105" x="12" y="792.4292">validateMigration()</text><text fill="#000000" font-family="sans-serif" font-size="11" lengthAdjust="spacingAndGlyphs" textLength="116" x="12" y="805.2339">onValidateSchema()</text><text fill="#000000" font-family="sans-serif" font-size="11" lengthAdjust="spacingAndGlyphs" textLength="82" x="12" y="818.0386">onPreMigrate()</text><text fill="#000000" font-family="sans-serif" font-size="11" lengthAdjust="spacingAndGlyphs" textLength="87" x="12" y="830.8433">onPostMigrate()</text><!--MD5=[d71bbc1f738241305f3f67bef5a52b55]
class RoomDatabase--><rect fill="#FEFECE" filter="url(#fpfawqdpicb02)" height="86.4141" id="RoomDatabase" style="stroke: #A80036; stroke-width: 1.5;" width="122" x="233" y="184"/><ellipse cx="248" cy="200" fill="#A9DCDF" rx="11" ry="11" style="stroke: #A80036; stroke-width: 1.0;"/><path d="M250.0781,201.8125 L250.4688,202.7969 L250.0781,202.7969 C249.625,202.7969 249.5156,202.8125 249.3594,202.9219 C249.1094,203.0781 248.9531,203.3594 248.9531,203.6563 C248.9531,203.9219 249.0938,204.1719 249.3125,204.3281 C249.4531,204.4531 249.6563,204.5 250.0781,204.5 L252.4375,204.5 C252.7969,204.5 253.0156,204.4688 253.1563,204.375 C253.4063,204.2344 253.5625,203.9375 253.5625,203.6563 C253.5625,203.375 253.4219,203.125 253.2031,202.9688 C253.0313,202.8281 252.875,202.7969 252.4063,202.7969 L249.0156,194.5938 L245.3438,194.5938 C244.8906,194.5938 244.7656,194.6094 244.6094,194.7031 C244.3594,194.875 244.2031,195.1563 244.2031,195.4375 C244.2031,195.7188 244.3438,195.9688 244.5625,196.1406 C244.7344,196.25 244.9063,196.2813 245.3438,196.2813 L246.4219,196.2813 L243.7813,202.7969 C243.3594,202.7969 243.2031,202.8125 243.0469,202.9219 C242.7969,203.0781 242.6406,203.3594 242.6406,203.6563 C242.6406,204.2188 243.0156,204.5 243.7656,204.5 L246.0313,204.5 C246.3906,204.5 246.6094,204.4688 246.7344,204.375 C247,204.2344 247.1406,203.9375 247.1406,203.6563 C247.1406,203.375 247.0156,203.125 246.7969,202.9531 C246.625,202.8281 246.4844,202.7969 246.0313,202.7969 L245.6406,202.7969 L246.0313,201.8125 L250.0781,201.8125 Z M249.375,200.1094 L246.7031,200.1094 L248.0469,196.8438 L249.375,200.1094 Z "/><text fill="#000000" font-family="sans-serif" font-size="12" font-style="italic" lengthAdjust="spacingAndGlyphs" textLength="90" x="262" y="204.1543">RoomDatabase</text><line style="stroke: #A80036; stroke-width: 1.5;" x1="234" x2="354" y1="216" y2="216"/><line style="stroke: #A80036; stroke-width: 1.5;" x1="234" x2="354" y1="224" y2="224"/><text fill="#000000" font-family="sans-serif" font-size="11" lengthAdjust="spacingAndGlyphs" textLength="41" x="239" y="238.2104">query()</text><text fill="#000000" font-family="sans-serif" font-size="11" lengthAdjust="spacingAndGlyphs" textLength="29" x="239" y="251.0151">dao()</text><text fill="#000000" font-family="sans-serif" font-size="11" lengthAdjust="spacingAndGlyphs" textLength="75" x="239" y="263.8198">openHelper()</text><!--MD5=[6adbfddbf7c43aef435a00677528307e]
class RoomDatabase.Callback--><rect fill="#FEFECE" filter="url(#fpfawqdpicb02)" height="86.4141" id="RoomDatabase.Callback" style="stroke: #A80036; stroke-width: 1.5;" width="176" x="612" y="914"/><ellipse cx="627" cy="930" fill="#A9DCDF" rx="11" ry="11" style="stroke: #A80036; stroke-width: 1.0;"/><path d="M629.0781,931.8125 L629.4688,932.7969 L629.0781,932.7969 C628.625,932.7969 628.5156,932.8125 628.3594,932.9219 C628.1094,933.0781 627.9531,933.3594 627.9531,933.6563 C627.9531,933.9219 628.0938,934.1719 628.3125,934.3281 C628.4531,934.4531 628.6563,934.5 629.0781,934.5 L631.4375,934.5 C631.7969,934.5 632.0156,934.4688 632.1563,934.375 C632.4063,934.2344 632.5625,933.9375 632.5625,933.6563 C632.5625,933.375 632.4219,933.125 632.2031,932.9688 C632.0313,932.8281 631.875,932.7969 631.4063,932.7969 L628.0156,924.5938 L624.3438,924.5938 C623.8906,924.5938 623.7656,924.6094 623.6094,924.7031 C623.3594,924.875 623.2031,925.1563 623.2031,925.4375 C623.2031,925.7188 623.3438,925.9688 623.5625,926.1406 C623.7344,926.25 623.9063,926.2813 624.3438,926.2813 L625.4219,926.2813 L622.7813,932.7969 C622.3594,932.7969 622.2031,932.8125 622.0469,932.9219 C621.7969,933.0781 621.6406,933.3594 621.6406,933.6563 C621.6406,934.2188 622.0156,934.5 622.7656,934.5 L625.0313,934.5 C625.3906,934.5 625.6094,934.4688 625.7344,934.375 C626,934.2344 626.1406,933.9375 626.1406,933.6563 C626.1406,933.375 626.0156,933.125 625.7969,932.9531 C625.625,932.8281 625.4844,932.7969 625.0313,932.7969 L624.6406,932.7969 L625.0313,931.8125 L629.0781,931.8125 Z M628.375,930.1094 L625.7031,930.1094 L627.0469,926.8438 L628.375,930.1094 Z "/><text fill="#000000" font-family="sans-serif" font-size="12" font-style="italic" lengthAdjust="spacingAndGlyphs" textLength="144" x="641" y="934.1543">RoomDatabase.Callback</text><line style="stroke: #A80036; stroke-width: 1.5;" x1="613" x2="787" y1="946" y2="946"/><line style="stroke: #A80036; stroke-width: 1.5;" x1="613" x2="787" y1="954" y2="954"/><text fill="#000000" font-family="sans-serif" font-size="11" lengthAdjust="spacingAndGlyphs" textLength="61" x="618" y="968.2104">onCreate()</text><text fill="#000000" font-family="sans-serif" font-size="11" lengthAdjust="spacingAndGlyphs" textLength="53" x="618" y="981.0151">onOpen()</text><text fill="#000000" font-family="sans-serif" font-size="11" lengthAdjust="spacingAndGlyphs" textLength="139" x="618" y="993.8198">onDestructiveMigration()</text><!--MD5=[4a040f903318e9fa136c292e1b35f601]
class SupportSQLiteOpenHelper.Factory--><rect fill="#FEFECE" filter="url(#fpfawqdpicb02)" height="60.8047" id="SupportSQLiteOpenHelper.Factory" style="stroke: #A80036; stroke-width: 1.5;" width="364" x="317" y="347"/><ellipse cx="390.75" cy="363" fill="#B4A7E5" rx="11" ry="11" style="stroke: #A80036; stroke-width: 1.0;"/><path d="M391.7031,359.7813 L393.4219,359.7813 C393.8125,359.7813 394,359.75 394.125,359.6719 C394.3906,359.5156 394.5313,359.2344 394.5313,358.9375 C394.5313,358.6719 394.4219,358.4063 394.1875,358.2344 C394.0156,358.125 393.875,358.0938 393.4219,358.0938 L388.2813,358.0938 C387.8438,358.0938 387.7188,358.1094 387.5625,358.2031 C387.3125,358.3594 387.1563,358.6563 387.1563,358.9375 C387.1563,359.2188 387.2969,359.4688 387.5156,359.6406 C387.6719,359.75 387.8594,359.7813 388.2813,359.7813 L390,359.7813 L390,366.2969 L388.2813,366.2969 C387.8438,366.2969 387.7188,366.3125 387.5625,366.4219 C387.3125,366.5781 387.1563,366.8594 387.1563,367.1563 C387.1563,367.4063 387.2969,367.6719 387.5156,367.8281 C387.6719,367.9531 387.875,368 388.2813,368 L393.4219,368 C394.1719,368 394.5313,367.7188 394.5313,367.1563 C394.5313,366.875 394.4219,366.625 394.1875,366.4531 C394.0156,366.3281 393.875,366.2969 393.4219,366.2969 L391.7031,366.2969 L391.7031,359.7813 Z "/><text fill="#000000" font-family="sans-serif" font-size="12" font-style="italic" lengthAdjust="spacingAndGlyphs" textLength="208" x="411.25" y="367.1543">SupportSQLiteOpenHelper.Factory</text><line style="stroke: #A80036; stroke-width: 1.5;" x1="318" x2="680" y1="379" y2="379"/><line style="stroke: #A80036; stroke-width: 1.5;" x1="318" x2="680" y1="387" y2="387"/><text fill="#000000" font-family="sans-serif" font-size="11" lengthAdjust="spacingAndGlyphs" textLength="352" x="323" y="401.2104">SupportSQLiteOpenHelper create(Configuration configuration)</text><!--MD5=[0a33e3c00d03fdc0cc0c0370a88e4b05]
class RoomDatabase.Builder--><rect fill="#FEFECE" filter="url(#fpfawqdpicb02)" height="99.2188" id="RoomDatabase.Builder" style="stroke: #A80036; stroke-width: 1.5;" width="194" x="402" y="8"/><ellipse cx="428.7" cy="24" fill="#ADD1B2" rx="11" ry="11" style="stroke: #A80036; stroke-width: 1.0;"/><path d="M431.0438,19.6719 C430.1063,19.2344 429.5125,19.0938 428.6375,19.0938 C426.0125,19.0938 424.0125,21.1719 424.0125,23.8906 L424.0125,25.0156 C424.0125,27.5938 426.1219,29.4844 429.0125,29.4844 C430.2313,29.4844 431.3875,29.1875 432.1375,28.6406 C432.7156,28.2344 433.0438,27.7813 433.0438,27.3906 C433.0438,26.9375 432.6531,26.5469 432.1844,26.5469 C431.9656,26.5469 431.7625,26.625 431.575,26.8125 C431.1219,27.2969 431.1219,27.2969 430.9344,27.3906 C430.5125,27.6563 429.825,27.7813 429.0594,27.7813 C427.0125,27.7813 425.7156,26.6875 425.7156,24.9844 L425.7156,23.8906 C425.7156,22.1094 426.9656,20.7969 428.7,20.7969 C429.2781,20.7969 429.8875,20.9531 430.3563,21.2031 C430.8406,21.4844 431.0125,21.7031 431.1063,22.1094 C431.1688,22.5156 431.2,22.6406 431.3406,22.7656 C431.4813,22.9063 431.7156,23.0156 431.9344,23.0156 C432.2,23.0156 432.4656,22.875 432.6375,22.6563 C432.7469,22.5 432.7781,22.3125 432.7781,21.8906 L432.7781,20.4688 C432.7781,20.0313 432.7625,19.9063 432.6688,19.75 C432.5125,19.4844 432.2313,19.3438 431.9344,19.3438 C431.6375,19.3438 431.4344,19.4375 431.2156,19.75 L431.0438,19.6719 Z "/><text fill="#000000" font-family="sans-serif" font-size="12" lengthAdjust="spacingAndGlyphs" textLength="136" x="445.3" y="28.1543">RoomDatabase.Builder</text><line style="stroke: #A80036; stroke-width: 1.5;" x1="403" x2="595" y1="40" y2="40"/><line style="stroke: #A80036; stroke-width: 1.5;" x1="403" x2="595" y1="48" y2="48"/><text fill="#000000" font-family="sans-serif" font-size="11" lengthAdjust="spacingAndGlyphs" textLength="182" x="408" y="62.2104">fallbackToDestructiveMigration()</text><text fill="#000000" font-family="sans-serif" font-size="11" lengthAdjust="spacingAndGlyphs" textLength="116" x="408" y="75.0151">openHelperFactory()</text><text fill="#000000" font-family="sans-serif" font-size="11" lengthAdjust="spacingAndGlyphs" textLength="76" x="408" y="87.8198">addCallback()</text><text fill="#000000" font-family="sans-serif" font-size="11" lengthAdjust="spacingAndGlyphs" textLength="86" x="408" y="100.6245">addMigrations()</text><!--MD5=[a400533a5f6fafaeec4c5648499f470c]
class FrameworkSQLiteOpenHelper--><rect fill="#FEFECE" filter="url(#fpfawqdpicb02)" height="48" id="FrameworkSQLiteOpenHelper" style="stroke: #A80036; stroke-width: 1.5;" width="213" x="654.5" y="738"/><ellipse cx="669.5" cy="754" fill="#ADD1B2" rx="11" ry="11" style="stroke: #A80036; stroke-width: 1.0;"/><path d="M671.8438,749.6719 C670.9063,749.2344 670.3125,749.0938 669.4375,749.0938 C666.8125,749.0938 664.8125,751.1719 664.8125,753.8906 L664.8125,755.0156 C664.8125,757.5938 666.9219,759.4844 669.8125,759.4844 C671.0313,759.4844 672.1875,759.1875 672.9375,758.6406 C673.5156,758.2344 673.8438,757.7813 673.8438,757.3906 C673.8438,756.9375 673.4531,756.5469 672.9844,756.5469 C672.7656,756.5469 672.5625,756.625 672.375,756.8125 C671.9219,757.2969 671.9219,757.2969 671.7344,757.3906 C671.3125,757.6563 670.625,757.7813 669.8594,757.7813 C667.8125,757.7813 666.5156,756.6875 666.5156,754.9844 L666.5156,753.8906 C666.5156,752.1094 667.7656,750.7969 669.5,750.7969 C670.0781,750.7969 670.6875,750.9531 671.1563,751.2031 C671.6406,751.4844 671.8125,751.7031 671.9063,752.1094 C671.9688,752.5156 672,752.6406 672.1406,752.7656 C672.2813,752.9063 672.5156,753.0156 672.7344,753.0156 C673,753.0156 673.2656,752.875 673.4375,752.6563 C673.5469,752.5 673.5781,752.3125 673.5781,751.8906 L673.5781,750.4688 C673.5781,750.0313 673.5625,749.9063 673.4688,749.75 C673.3125,749.4844 673.0313,749.3438 672.7344,749.3438 C672.4375,749.3438 672.2344,749.4375 672.0156,749.75 L671.8438,749.6719 Z "/><text fill="#000000" font-family="sans-serif" font-size="12" lengthAdjust="spacingAndGlyphs" textLength="181" x="683.5" y="758.1543">FrameworkSQLiteOpenHelper</text><line style="stroke: #A80036; stroke-width: 1.5;" x1="655.5" x2="866.5" y1="770" y2="770"/><line style="stroke: #A80036; stroke-width: 1.5;" x1="655.5" x2="866.5" y1="778" y2="778"/><!--MD5=[ec401eda3c24e19e68064e4348677d2d]
class FrameworkSQLiteOpenHelperFactory--><rect fill="#FEFECE" filter="url(#fpfawqdpicb02)" height="48" id="FrameworkSQLiteOpenHelperFactory" style="stroke: #A80036; stroke-width: 1.5;" width="258" x="383" y="523.5"/><ellipse cx="398" cy="539.5" fill="#ADD1B2" rx="11" ry="11" style="stroke: #A80036; stroke-width: 1.0;"/><path d="M400.3438,535.1719 C399.4063,534.7344 398.8125,534.5938 397.9375,534.5938 C395.3125,534.5938 393.3125,536.6719 393.3125,539.3906 L393.3125,540.5156 C393.3125,543.0938 395.4219,544.9844 398.3125,544.9844 C399.5313,544.9844 400.6875,544.6875 401.4375,544.1406 C402.0156,543.7344 402.3438,543.2813 402.3438,542.8906 C402.3438,542.4375 401.9531,542.0469 401.4844,542.0469 C401.2656,542.0469 401.0625,542.125 400.875,542.3125 C400.4219,542.7969 400.4219,542.7969 400.2344,542.8906 C399.8125,543.1563 399.125,543.2813 398.3594,543.2813 C396.3125,543.2813 395.0156,542.1875 395.0156,540.4844 L395.0156,539.3906 C395.0156,537.6094 396.2656,536.2969 398,536.2969 C398.5781,536.2969 399.1875,536.4531 399.6563,536.7031 C400.1406,536.9844 400.3125,537.2031 400.4063,537.6094 C400.4688,538.0156 400.5,538.1406 400.6406,538.2656 C400.7813,538.4063 401.0156,538.5156 401.2344,538.5156 C401.5,538.5156 401.7656,538.375 401.9375,538.1563 C402.0469,538 402.0781,537.8125 402.0781,537.3906 L402.0781,535.9688 C402.0781,535.5313 402.0625,535.4063 401.9688,535.25 C401.8125,534.9844 401.5313,534.8438 401.2344,534.8438 C400.9375,534.8438 400.7344,534.9375 400.5156,535.25 L400.3438,535.1719 Z "/><text fill="#000000" font-family="sans-serif" font-size="12" lengthAdjust="spacingAndGlyphs" textLength="226" x="412" y="543.6543">FrameworkSQLiteOpenHelperFactory</text><line style="stroke: #A80036; stroke-width: 1.5;" x1="384" x2="640" y1="555.5" y2="555.5"/><line style="stroke: #A80036; stroke-width: 1.5;" x1="384" x2="640" y1="563.5" y2="563.5"/><!--MD5=[8168833d88bb4c675f24417c2a10f85b]
reverse link SupportSQLiteOpenHelper.Callback to RoomOpenHelper--><path d="M255.364,629.154 C270.014,668.069 286.498,711.854 296.302,737.895 " fill="none" id="SupportSQLiteOpenHelper.Callback&lt;-RoomOpenHelper" style="stroke: #A80036; stroke-width: 1.0;"/><polygon fill="none" points="248.742,631.433,248.247,610.249,261.845,626.5,248.742,631.433" style="stroke: #A80036; stroke-width: 1.0;"/><!--MD5=[4d134da83d35c7572fea8e6f4bf54540]
reverse link SupportSQLiteOpenHelper to FrameworkSQLiteOpenHelper--><path d="M768.432,617.418 C766.282,658.969 763.679,709.245 762.194,737.937 " fill="none" id="SupportSQLiteOpenHelper&lt;-FrameworkSQLiteOpenHelper" style="stroke: #A80036; stroke-width: 1.0;"/><polygon fill="none" points="761.452,616.863,769.476,597.252,775.433,617.587,761.452,616.863" style="stroke: #A80036; stroke-width: 1.0;"/><!--MD5=[62e69798cb767fe15677abc02396d64e]
reverse link SupportSQLiteOpenHelper.Factory to FrameworkSQLiteOpenHelperFactory--><path d="M502.863,428.418 C505.296,459.865 508.323,498.987 510.209,523.357 " fill="none" id="SupportSQLiteOpenHelper.Factory&lt;-FrameworkSQLiteOpenHelperFactory" style="stroke: #A80036; stroke-width: 1.0; stroke-dasharray: 7.0,7.0;"/><polygon fill="none" points="495.858,428.629,501.294,408.148,509.816,427.549,495.858,428.629" style="stroke: #A80036; stroke-width: 1.0;"/><!--MD5=[baea79fa7a5109bff4ebf9876544077e]
link SupportSQLiteOpenHelper.Callback to RoomOpenHelper.Delegate--><path d="M189.549,610.249 C175.83,634.145 160.007,661.706 145.672,686.674 " fill="none" id="SupportSQLiteOpenHelper.Callback-RoomOpenHelper.Delegate" style="stroke: #A80036; stroke-width: 1.0;"/><text fill="#000000" font-family="sans-serif" font-size="13" lengthAdjust="spacingAndGlyphs" textLength="28" x="173" y="653.0669">calls</text><polygon fill="#000000" points="182.5,662.1328,185.5,668.1328,188.5,662.1328,182.5,662.1328" style="stroke: #000000; stroke-width: 1.0;"/><!--MD5=[3ad2aaa929def9ed5b7d32a1dc87295b]
link RoomOpenHelper.Delegate to RoomDatabase.Callback--><path d="M200.078,828.962 C205.708,831.856 211.37,834.562 217,837 C348.555,893.969 512.587,927.0923 611.663,943.3411 " fill="none" id="RoomOpenHelper.Delegate-RoomDatabase.Callback" style="stroke: #A80036; stroke-width: 1.0;"/><text fill="#000000" font-family="sans-serif" font-size="13" lengthAdjust="spacingAndGlyphs" textLength="28" x="347" y="880.0669">calls</text><polygon fill="#000000" points="378,874.0664,384,877.0664,378,880.0664,378,874.0664" style="stroke: #000000; stroke-width: 1.0;"/><!--MD5=[0105d80eb09de455d4addd3d8d2fb67b]
link RoomDatabase to RoomOpenHelper.Delegate--><path d="M287.667,270.237 C279.842,309.786 263.126,368.549 229,408 C181.52,462.889 122.306,422.747 85,485 C48.6542,545.651 60.0756,627.844 76.3382,686.731 " fill="none" id="RoomDatabase-RoomOpenHelper.Delegate" style="stroke: #A80036; stroke-width: 1.0;"/><text fill="#000000" font-family="sans-serif" font-size="13" lengthAdjust="spacingAndGlyphs" textLength="48" x="182" y="451.0669">creates</text><polygon fill="#000000" points="201.5,460.1328,204.5,466.1328,207.5,460.1328,201.5,460.1328" style="stroke: #000000; stroke-width: 1.0;"/><!--MD5=[81956720e8570cf7be618910e3bfbb89]
link SupportSQLiteOpenHelper.Factory to SupportSQLiteOpenHelper--><path d="M547.178,408.148 C587.513,432.97 645.878,468.887 693.032,497.904 " fill="none" id="SupportSQLiteOpenHelper.Factory-SupportSQLiteOpenHelper" style="stroke: #A80036; stroke-width: 1.0;"/><text fill="#000000" font-family="sans-serif" font-size="13" lengthAdjust="spacingAndGlyphs" textLength="48" x="621" y="451.0669">creates</text><polygon fill="#000000" points="672,445.0664,678,448.0664,672,451.0664,672,445.0664" style="stroke: #000000; stroke-width: 1.0;"/><!--MD5=[4d0522892bf3a52fe8bb53d220ced74f]
link RoomDatabase to SupportSQLiteOpenHelper.Factory--><path d="M346.623,270.046 C365.995,285.171 388.268,302.156 409,317 C423.011,327.032 438.575,337.538 452.767,346.882 " fill="none" id="RoomDatabase-SupportSQLiteOpenHelper.Factory" style="stroke: #A80036; stroke-width: 1.0;"/><text fill="#000000" font-family="sans-serif" font-size="13" lengthAdjust="spacingAndGlyphs" textLength="49" x="410" y="313.0669">invokes</text><polygon fill="#000000" points="462,307.0664,468,310.0664,462,313.0664,462,307.0664" style="stroke: #000000; stroke-width: 1.0;"/><!--MD5=[3ac1c4815fc55241ba097faeb4948966]
link SupportSQLiteOpenHelper.Factory to SupportSQLiteOpenHelper.Callback--><path d="M450.645,408.148 C416.001,429.39 368.103,458.758 325.346,484.974 " fill="none" id="SupportSQLiteOpenHelper.Factory-SupportSQLiteOpenHelper.Callback" style="stroke: #A80036; stroke-width: 1.0;"/><polygon fill="#000000" points="403,445.0664,397,448.0664,403,451.0664,403,445.0664" style="stroke: #000000; stroke-width: 1.0;"/><text fill="#000000" font-family="sans-serif" font-size="13" lengthAdjust="spacingAndGlyphs" textLength="54" x="409" y="451.0669">receives</text><!--MD5=[231fc249ef20318b3561f1809a19fb38]
link RoomDatabase.Builder to RoomDatabase--><path d="M439.43,107.173 C409.758,131.417 374.227,160.449 345.713,183.747 " fill="none" id="RoomDatabase.Builder-RoomDatabase" style="stroke: #A80036; stroke-width: 1.0;"/><polygon fill="#000000" points="411,144.0664,405,147.0664,411,150.0664,411,144.0664" style="stroke: #000000; stroke-width: 1.0;"/><text fill="#000000" font-family="sans-serif" font-size="13" lengthAdjust="spacingAndGlyphs" textLength="37" x="417" y="150.0669">builds</text><!--MD5=[36ab9d46a67eecf3a87b2c74672bb3fd]
link RoomDatabase.Builder to SupportSQLiteOpenHelper.Factory--><path d="M499,107.144 C499,173.954 499,292.062 499,346.94 " fill="none" id="RoomDatabase.Builder-SupportSQLiteOpenHelper.Factory" style="stroke: #A80036; stroke-width: 1.0;"/><text fill="#000000" font-family="sans-serif" font-size="13" lengthAdjust="spacingAndGlyphs" textLength="27" x="500" y="231.5669">sets</text><polygon fill="#000000" points="509,240.6328,512,246.6328,515,240.6328,509,240.6328" style="stroke: #000000; stroke-width: 1.0;"/><!--MD5=[b5f482fb7362c68efd9b550a0c523539]
link RoomDatabase.Builder to RoomDatabase.Callback--><path d="M596.08,76.858 C720.688,103.25 921,156.487 921,226 C921,226 921,226 921,763 C921,836.989 849.855,889.149 788.298,920.4323 " fill="none" id="RoomDatabase.Builder-RoomDatabase.Callback" style="stroke: #A80036; stroke-width: 1.0;"/><text fill="#000000" font-family="sans-serif" font-size="13" lengthAdjust="spacingAndGlyphs" textLength="31" x="922" y="451.0669">adds</text><polygon fill="#000000" points="933,460.1328,936,466.1328,939,460.1328,933,460.1328" style="stroke: #000000; stroke-width: 1.0;"/><!--MD5=[fdbd6e17317cd6cb85728b9c68c4e43a]
link RoomDatabase to SupportSQLiteOpenHelper.Callback--><path d="M268.31,270.196 C256.226,292.26 242.967,320.196 236,347 C224.263,392.155 221.823,444.931 222.15,484.856 " fill="none" id="RoomDatabase-SupportSQLiteOpenHelper.Callback" style="stroke: #A80036; stroke-width: 1.0;"/><text fill="#000000" font-family="sans-serif" font-size="13" lengthAdjust="spacingAndGlyphs" textLength="48" x="237" y="382.0669">creates</text><polygon fill="#000000" points="256.5,391.1328,259.5,397.1328,262.5,391.1328,256.5,391.1328" style="stroke: #000000; stroke-width: 1.0;"/><!--MD5=[107fb158577e5c630b74958c2bab5849]
@startuml
interface SupportSQLiteOpenHelper {
    getDatabaseName()
    getWritableDatabase()
    getReadableDatabase()
    close()
}
abstract class SupportSQLiteOpenHelper.Callback {
    onDowngrade()
    onCreate()
    onOpen()
    onConfigure()
    onCorruption()
    onUpgrade()
}

class RoomOpenHelper extends SupportSQLiteOpenHelper.Callback
abstract class RoomOpenHelper.Delegate {
    dropAllTables()
    createAllTables()
    onOpen()
    onCreate()
    validateMigration()
    onValidateSchema()
    onPreMigrate()
    onPostMigrate()
}

abstract class RoomDatabase {
    query()
    dao()
    openHelper()
}
abstract class RoomDatabase.Callback {
    onCreate()
    onOpen()
    onDestructiveMigration()
}
interface SupportSQLiteOpenHelper.Factory {
    SupportSQLiteOpenHelper create(Configuration configuration)
}
class RoomDatabase.Builder {
    fallbackToDestructiveMigration()
    openHelperFactory()
    addCallback()
    addMigrations()
}
class FrameworkSQLiteOpenHelper extends SupportSQLiteOpenHelper
class FrameworkSQLiteOpenHelperFactory implements SupportSQLiteOpenHelper.Factory

SupportSQLiteOpenHelper.Callback - - RoomOpenHelper.Delegate: calls >
RoomOpenHelper.Delegate - - RoomDatabase.Callback: calls >

RoomDatabase - - RoomOpenHelper.Delegate: creates >
SupportSQLiteOpenHelper.Factory - - SupportSQLiteOpenHelper: creates >
RoomDatabase - - SupportSQLiteOpenHelper.Factory: invokes >
SupportSQLiteOpenHelper.Factory - - SupportSQLiteOpenHelper.Callback: receives >

RoomDatabase.Builder - - RoomDatabase: builds >
RoomDatabase.Builder - - SupportSQLiteOpenHelper.Factory: sets >
RoomDatabase.Builder - - RoomDatabase.Callback: adds >
RoomDatabase - - SupportSQLiteOpenHelper.Callback: creates >
@enduml

PlantUML version 1.2020.11(Sat May 30 10:13:43 UTC 2020)
(GPL source distribution)
Java Runtime: Java(TM) SE Runtime Environment
JVM: Java HotSpot(TM) 64-Bit Server VM
Default Encoding: UTF-8
Language: en
Country: US
--></g></svg>