<svg xmlns="http://www.w3.org/2000/svg" xmlns:xlink="http://www.w3.org/1999/xlink" contentStyleType="text/css" height="485px" preserveAspectRatio="none" style="width:555px;height:485px;background:#FFFFFF;" version="1.1" viewBox="0 0 555 485" width="555px" zoomAndPan="magnify"><defs/><g><text fill="#000000" font-family="sans-serif" font-size="14" font-weight="bold" lengthAdjust="spacing" textLength="401" x="70" y="22.9951">WebLogic Remote EJB Load Balancing (simplified)</text><!--cluster Cluster A--><g id="cluster_Cluster A"><polygon fill="none" points="16,116.2969,26,106.2969,538,106.2969,538,265.2969,528,275.2969,16,275.2969,16,116.2969" style="stroke:#181818;stroke-width:1.0;"/><line style="stroke:#181818;stroke-width:1.0;" x1="528" x2="538" y1="116.2969" y2="106.2969"/><line style="stroke:#181818;stroke-width:1.0;" x1="16" x2="528" y1="116.2969" y2="116.2969"/><line style="stroke:#181818;stroke-width:1.0;" x1="528" x2="528" y1="116.2969" y2="275.2969"/><text fill="#000000" font-family="sans-serif" font-size="14" font-weight="bold" lengthAdjust="spacing" textLength="74" x="236" y="132.292">Cluster A</text></g><!--cluster WLS Node A1--><g id="cluster_WLS Node A1"><rect fill="none" height="97" rx="2.5" ry="2.5" style="stroke:#181818;stroke-width:1.0;" width="225" x="289" y="154.2969"/><path d="M404,154.2969 L404,163.5938 L394,173.5938 L289,173.5938 " fill="none" style="stroke:#181818;stroke-width:1.0;"/><text fill="#000000" font-family="sans-serif" font-size="14" font-weight="bold" lengthAdjust="spacing" textLength="105" x="292" y="168.292">WLS Node A1</text></g><!--cluster WLS Node A2--><g id="cluster_WLS Node A2"><rect fill="none" height="97" rx="2.5" ry="2.5" style="stroke:#181818;stroke-width:1.0;" width="225" x="40" y="154.2969"/><path d="M155,154.2969 L155,163.5938 L145,173.5938 L40,173.5938 " fill="none" style="stroke:#181818;stroke-width:1.0;"/><text fill="#000000" font-family="sans-serif" font-size="14" font-weight="bold" lengthAdjust="spacing" textLength="105" x="43" y="168.292">WLS Node A2</text></g><!--cluster Cluster B--><g id="cluster_Cluster B"><polygon fill="none" points="175,309.2969,185,299.2969,489,299.2969,489,458.2969,479,468.2969,175,468.2969,175,309.2969" style="stroke:#181818;stroke-width:1.0;"/><line style="stroke:#181818;stroke-width:1.0;" x1="479" x2="489" y1="309.2969" y2="299.2969"/><line style="stroke:#181818;stroke-width:1.0;" x1="175" x2="479" y1="309.2969" y2="309.2969"/><line style="stroke:#181818;stroke-width:1.0;" x1="479" x2="479" y1="309.2969" y2="468.2969"/><text fill="#000000" font-family="sans-serif" font-size="14" font-weight="bold" lengthAdjust="spacing" textLength="74" x="291" y="325.292">Cluster B</text></g><!--cluster WLS Node B2--><g id="cluster_WLS Node B2"><rect fill="none" height="97" rx="2.5" ry="2.5" style="stroke:#181818;stroke-width:1.0;" width="121" x="344" y="347.2969"/><path d="M459,347.2969 L459,356.5938 L449,366.5938 L344,366.5938 " fill="none" style="stroke:#181818;stroke-width:1.0;"/><text fill="#000000" font-family="sans-serif" font-size="14" font-weight="bold" lengthAdjust="spacing" textLength="105" x="347" y="361.292">WLS Node B2</text></g><!--cluster WLS Node B1--><g id="cluster_WLS Node B1"><rect fill="none" height="97" rx="2.5" ry="2.5" style="stroke:#181818;stroke-width:1.0;" width="121" x="199" y="347.2969"/><path d="M314,347.2969 L314,356.5938 L304,366.5938 L199,366.5938 " fill="none" style="stroke:#181818;stroke-width:1.0;"/><text fill="#000000" font-family="sans-serif" font-size="14" font-weight="bold" lengthAdjust="spacing" textLength="105" x="202" y="361.292">WLS Node B1</text></g><!--entity EJB X--><g id="elem_EJB X"><rect fill="#F1F1F1" height="46.2969" rx="2.5" ry="2.5" style="stroke:#181818;stroke-width:0.5;" width="77" x="305.5" y="189.2969"/><rect fill="#F1F1F1" height="10" style="stroke:#181818;stroke-width:0.5;" width="15" x="362.5" y="194.2969"/><rect fill="#F1F1F1" height="2" style="stroke:#181818;stroke-width:0.5;" width="4" x="360.5" y="196.2969"/><rect fill="#F1F1F1" height="2" style="stroke:#181818;stroke-width:0.5;" width="4" x="360.5" y="200.2969"/><text fill="#000000" font-family="sans-serif" font-size="14" lengthAdjust="spacing" textLength="37" x="320.5" y="222.292">EJB X</text></g><!--entity EJB Y --><g id="elem_EJB Y "><rect fill="#F1F1F1" height="46.2969" rx="2.5" ry="2.5" style="stroke:#181818;stroke-width:0.5;" width="80" x="418" y="189.2969"/><rect fill="#F1F1F1" height="10" style="stroke:#181818;stroke-width:0.5;" width="15" x="478" y="194.2969"/><rect fill="#F1F1F1" height="2" style="stroke:#181818;stroke-width:0.5;" width="4" x="476" y="196.2969"/><rect fill="#F1F1F1" height="2" style="stroke:#181818;stroke-width:0.5;" width="4" x="476" y="200.2969"/><text fill="#000000" font-family="sans-serif" font-size="14" lengthAdjust="spacing" textLength="36" x="433" y="222.292">EJB Y</text></g><!--entity EJB X --><g id="elem_EJB X "><rect fill="#F1F1F1" height="46.2969" rx="2.5" ry="2.5" style="stroke:#181818;stroke-width:0.5;" width="81" x="56.5" y="189.2969"/><rect fill="#F1F1F1" height="10" style="stroke:#181818;stroke-width:0.5;" width="15" x="117.5" y="194.2969"/><rect fill="#F1F1F1" height="2" style="stroke:#181818;stroke-width:0.5;" width="4" x="115.5" y="196.2969"/><rect fill="#F1F1F1" height="2" style="stroke:#181818;stroke-width:0.5;" width="4" x="115.5" y="200.2969"/><text fill="#000000" font-family="sans-serif" font-size="14" lengthAdjust="spacing" textLength="37" x="71.5" y="222.292">EJB X</text></g><!--entity EJB Y--><g id="elem_EJB Y"><rect fill="#F1F1F1" height="46.2969" rx="2.5" ry="2.5" style="stroke:#181818;stroke-width:0.5;" width="76" x="173" y="189.2969"/><rect fill="#F1F1F1" height="10" style="stroke:#181818;stroke-width:0.5;" width="15" x="229" y="194.2969"/><rect fill="#F1F1F1" height="2" style="stroke:#181818;stroke-width:0.5;" width="4" x="227" y="196.2969"/><rect fill="#F1F1F1" height="2" style="stroke:#181818;stroke-width:0.5;" width="4" x="227" y="200.2969"/><text fill="#000000" font-family="sans-serif" font-size="14" lengthAdjust="spacing" textLength="36" x="188" y="222.292">EJB Y</text></g><!--entity EJB Z--><g id="elem_EJB Z"><rect fill="#F1F1F1" height="46.2969" rx="2.5" ry="2.5" style="stroke:#181818;stroke-width:0.5;" width="77" x="365.5" y="382.2969"/><rect fill="#F1F1F1" height="10" style="stroke:#181818;stroke-width:0.5;" width="15" x="422.5" y="387.2969"/><rect fill="#F1F1F1" height="2" style="stroke:#181818;stroke-width:0.5;" width="4" x="420.5" y="389.2969"/><rect fill="#F1F1F1" height="2" style="stroke:#181818;stroke-width:0.5;" width="4" x="420.5" y="393.2969"/><text fill="#000000" font-family="sans-serif" font-size="14" lengthAdjust="spacing" textLength="37" x="380.5" y="415.292">EJB Z</text></g><!--entity EJB Z --><g id="elem_EJB Z "><rect fill="#F1F1F1" height="46.2969" rx="2.5" ry="2.5" style="stroke:#181818;stroke-width:0.5;" width="81" x="218.5" y="382.2969"/><rect fill="#F1F1F1" height="10" style="stroke:#181818;stroke-width:0.5;" width="15" x="279.5" y="387.2969"/><rect fill="#F1F1F1" height="2" style="stroke:#181818;stroke-width:0.5;" width="4" x="277.5" y="389.2969"/><rect fill="#F1F1F1" height="2" style="stroke:#181818;stroke-width:0.5;" width="4" x="277.5" y="393.2969"/><text fill="#000000" font-family="sans-serif" font-size="14" lengthAdjust="spacing" textLength="37" x="233.5" y="415.292">EJB Z</text></g><!--entity Client--><g id="elem_Client"><rect fill="#F1F1F1" height="46.2969" rx="2.5" ry="2.5" style="stroke:#181818;stroke-width:0.5;" width="83" x="178.5" y="44.2969"/><rect fill="#F1F1F1" height="10" style="stroke:#181818;stroke-width:0.5;" width="15" x="241.5" y="49.2969"/><rect fill="#F1F1F1" height="2" style="stroke:#181818;stroke-width:0.5;" width="4" x="239.5" y="51.2969"/><rect fill="#F1F1F1" height="2" style="stroke:#181818;stroke-width:0.5;" width="4" x="239.5" y="55.2969"/><text fill="#000000" font-family="sans-serif" font-size="14" lengthAdjust="spacing" textLength="43" x="193.5" y="77.292">Client</text></g><!--link Client to EJB X--><g id="link_Client_EJB X"><path d="M255.854,90.3589 C259.075,92.8789 262.181,95.5389 265,98.2969 C293.235,125.9139 314.8945,159.6763 328.8555,183.8843 " fill="none" id="Client-to-EJB X" style="stroke:#181818;stroke-width:1.0;"/><polygon fill="#181818" points="331.853,189.0819,330.8218,179.2872,329.3551,184.7505,323.8917,183.2838,331.853,189.0819" style="stroke:#181818;stroke-width:1.0;"/></g><!--link Client to EJB X --><g id="link_Client_EJB X "><path d="M178.219,82.5729 C169.869,86.7389 161.638,91.9309 155,98.2969 C128.422,123.7869 113.7355,158.4158 105.4165,183.3708 " fill="none" id="Client-to-EJB X " style="stroke:#181818;stroke-width:1.0;"/><polygon fill="#181818" points="103.519,189.0629,110.16,181.7898,105.1003,184.3195,102.5706,179.2598,103.519,189.0629" style="stroke:#181818;stroke-width:1.0;"/></g><!--link EJB X to EJB Y --><g id="link_EJB X_EJB Y "><path d="M382.742,212.2969 C394.403,212.2969 400.064,212.2969 411.725,212.2969 " fill="none" id="EJB X-to-EJB Y " style="stroke:#181818;stroke-width:1.0;"/><polygon fill="#181818" points="417.725,212.2969,408.725,208.2969,412.725,212.2969,408.725,216.2969,417.725,212.2969" style="stroke:#181818;stroke-width:1.0;"/></g><!--link EJB X  to EJB Y--><g id="link_EJB X _EJB Y"><path d="M137.523,212.2969 C149.291,212.2969 155.059,212.2969 166.827,212.2969 " fill="none" id="EJB X -to-EJB Y" style="stroke:#181818;stroke-width:1.0;"/><polygon fill="#181818" points="172.827,212.2969,163.827,208.2969,167.827,212.2969,163.827,216.2969,172.827,212.2969" style="stroke:#181818;stroke-width:1.0;"/></g><!--link EJB Y to EJB Z--><g id="link_EJB Y_EJB Z"><path d="M230.522,235.4049 C245.218,250.8149 266.606,270.7789 289,283.2969 C299.925,289.4039 305.66,284.2449 316,291.2969 C350.716,314.9759 374.9885,351.417 389.4875,376.999 " fill="none" id="EJB Y-to-EJB Z" style="stroke:#181818;stroke-width:1.0;"/><polygon fill="#181818" points="392.446,382.2189,391.4882,372.4167,389.9806,377.8689,384.5284,376.3613,392.446,382.2189" style="stroke:#181818;stroke-width:1.0;"/></g><!--link EJB Y  to EJB Z--><g id="link_EJB Y _EJB Z"><path d="M451.7,235.5809 C441.295,272.3849 422.2714,339.6712 411.8924,376.3812 " fill="none" id="EJB Y -to-EJB Z" style="stroke:#181818;stroke-width:1.0;"/><polygon fill="#181818" points="410.26,382.1549,416.5577,374.5826,411.6203,377.3435,408.8595,372.4061,410.26,382.1549" style="stroke:#181818;stroke-width:1.0;"/></g><!--link EJB Y to EJB Z --><g id="link_EJB Y_EJB Z "><path d="M216.6,235.5809 C225.849,272.3849 242.7476,339.6258 251.9736,376.3358 " fill="none" id="EJB Y-to-EJB Z " style="stroke:#181818;stroke-width:1.0;"/><polygon fill="#181818" points="253.436,382.1549,255.1217,372.4513,252.2173,377.3057,247.363,374.4013,253.436,382.1549" style="stroke:#181818;stroke-width:1.0;"/></g><!--link EJB Y  to EJB Z --><g id="link_EJB Y _EJB Z "><path d="M445.752,235.3159 C435.636,251.3149 419.754,272.0589 400,283.2969 C380.057,294.6419 368.832,279.7589 349,291.2969 C312.147,312.7369 287.427,350.2671 273.045,376.6001 " fill="none" id="EJB Y -to-EJB Z " style="stroke:#181818;stroke-width:1.0;"/><polygon fill="#181818" points="270.169,381.8659,277.9935,375.8845,272.5656,377.4777,270.9724,372.0498,270.169,381.8659" style="stroke:#181818;stroke-width:1.0;"/></g><!--SRC=[TL2x3e8m5Dtx5ITCEZ3e1vXGucA8Wmu8XA72XJGfr42T3Fyk9G71mDIRSy_ZdXff526aPw1BcU56bJQ4yuKZq2875qhKcQnBx5fPlPGi9ELxblXAKcrIncgT4nnVlLj33Jm77yQ0eX5L3uV17LTBy0vs0I2npezq6YFOkGFMHCU523FL86BTNphVIESBetWxaI_EZ376zC_O6Avx6bjW7SUmc4WZ7iqAMCw4ptlzREB59wtZSnXRVAHV]--></g></svg>